<?xml version="1.0" encoding="UTF-8"?>
<svg version="1.1" xmlns="http://www.w3.org/2000/svg" width="512" height="512">
<path d="M0 0 C2.02393435 -0.02454111 4.04784621 -0.05100535 6.07173157 -0.07929993 C10.31138482 -0.12557471 14.54897346 -0.13220793 18.78881836 -0.11401367 C24.19815017 -0.0962542 29.59717195 -0.20141971 35.00445843 -0.34013653 C39.18570565 -0.42927541 43.36450798 -0.43951862 47.54657936 -0.42807961 C49.53814395 -0.43430037 51.52982714 -0.46737213 53.5204525 -0.52884483 C68.57418331 -0.94341323 68.57418331 -0.94341323 73.58237076 3.20544052 C77.17048931 7.19541957 79.81707581 11.62674345 82.34916401 16.33615303 C84.44665664 20.04967438 86.97338829 23.44839066 89.48828125 26.88671875 C90.48211974 28.29793143 91.47569931 29.70932659 92.46875 31.12109375 C94.68508487 34.2677681 96.92048521 37.40004326 99.1640625 40.52734375 C117.08433118 65.61668219 130.6210653 92.05226616 130.81640625 123.6171875 C130.82210632 124.34867508 130.8278064 125.08016266 130.8336792 125.83381653 C130.84304807 127.36567776 130.84963047 128.89755841 130.85351562 130.42944336 C130.86330112 132.76646479 130.89443099 135.10263425 130.92578125 137.43945312 C130.93230565 138.93619276 130.93755833 140.43293859 130.94140625 141.9296875 C130.95992645 142.96889595 130.95992645 142.96889595 130.9788208 144.02909851 C130.95444379 149.34545515 129.51252103 152.358439 126.11328125 156.32421875 C122.58493516 159.26450716 118.32596676 158.71976449 113.99710083 158.71466064 C113.21402333 158.71763177 112.43094583 158.72060289 111.62413871 158.72366405 C108.99176533 158.73235788 106.35943739 158.73385986 103.72705078 158.73535156 C101.84311831 158.73997921 99.95918678 158.74500379 98.07525635 158.75039673 C92.9512951 158.76352683 87.82734697 158.76996673 82.70337152 158.77440739 C79.50371149 158.77733678 76.30405505 158.7814413 73.10439682 158.78591156 C63.09790282 158.79958732 53.09141702 158.80925392 43.08491433 158.81311345 C31.52523926 158.8175963 19.96568231 158.83515442 8.40604317 158.86411405 C-0.52396033 158.8857111 -9.45393054 158.89581665 -18.38395989 158.89715457 C-23.72006844 158.8982039 -29.05606596 158.90413905 -34.39214706 158.92197418 C-39.41048502 158.93842096 -44.42862808 158.94062689 -49.44698334 158.93183517 C-51.28965653 158.93106301 -53.13234006 158.93543104 -54.97498703 158.94529343 C-57.489082 158.95796137 -60.0024813 158.95216447 -62.51657104 158.94171143 C-63.24702255 158.94976783 -63.97747406 158.95782423 -64.73006046 158.96612477 C-69.132854 158.92326321 -71.88009667 158.26180667 -75.38671875 155.57421875 C-79.05343598 151.16827249 -79.89137072 148.11903876 -79.8828125 142.4375 C-79.88558197 141.76470001 -79.88835144 141.09190002 -79.89120483 140.39871216 C-79.89186077 138.22722656 -79.86047901 136.05788003 -79.82421875 133.88671875 C-79.81740082 133.14567902 -79.81058289 132.40463928 -79.80355835 131.6411438 C-79.44746432 94.40539321 -66.54276848 65.94940987 -44.83203125 36.30859375 C-41.15443487 31.27965517 -37.57678646 26.18331902 -34.01171875 21.07421875 C-33.45323242 20.2740332 -32.89474609 19.47384766 -32.31933594 18.64941406 C-31.77696289 17.87178711 -31.23458984 17.09416016 -30.67578125 16.29296875 C-30.14933517 15.57295181 -29.6228891 14.85293488 -29.08049011 14.11109924 C-27.32871153 11.64751906 -27.32871153 11.64751906 -26.25099182 8.98124695 C-20.91606126 -1.73893956 -10.48760731 -0.00948622 0 0 Z " fill="#000000" transform="translate(230.38671875,68.42578125)"/>
<path d="M0 0 C0.80026613 -0.00538554 1.60053227 -0.01077108 2.42504889 -0.01631981 C5.10973947 -0.03064069 7.79393985 -0.02348558 10.47865295 -0.01637268 C12.40214434 -0.0220741 14.32563235 -0.02903746 16.24911499 -0.03717041 C21.47636849 -0.05514225 26.70345449 -0.05392586 31.93072963 -0.04822803 C36.29222247 -0.04514197 40.65368287 -0.05122212 45.01517111 -0.05726677 C55.30315594 -0.07132363 65.59105776 -0.06974106 75.87904358 -0.05836487 C86.49801083 -0.04688227 97.11672557 -0.06095914 107.73565954 -0.08776134 C116.84828756 -0.10990177 125.96083623 -0.11655946 135.07348925 -0.11068493 C140.51802748 -0.10731021 145.96240382 -0.1097646 151.40691948 -0.12693596 C156.52629681 -0.14237657 161.64529942 -0.13848156 166.76466179 -0.11963081 C168.64441861 -0.11593693 170.52420302 -0.11907658 172.40393448 -0.1295166 C174.96853629 -0.14267379 177.53188793 -0.13122652 180.09643555 -0.11352539 C181.21443532 -0.1279329 181.21443532 -0.1279329 182.35502094 -0.14263147 C187.22298696 -0.0734149 189.67847412 0.95040368 193.11170959 4.38768005 C195.56270862 7.83302313 195.37668608 11.13069033 195.40223694 15.27659607 C195.40895416 15.96176804 195.41567139 16.64694 195.42259216 17.35287476 C195.44157024 19.61585275 195.4454973 21.87853368 195.44764709 24.1415863 C195.45407904 25.72377644 195.46080769 27.3059654 195.46781921 28.88815308 C195.47979427 32.20776623 195.4835002 35.52727535 195.48231506 38.84690857 C195.48211275 43.0744123 195.5093224 47.30123715 195.54385948 51.52858067 C195.56625004 54.7999774 195.57014879 58.07121451 195.56909561 61.34267998 C195.57143689 62.89941161 195.58017621 64.45614865 195.59576035 66.01280403 C195.7226103 80.00223286 193.34610128 90.66772228 183.52186584 101.0712738 C174.64358312 109.44819468 164.50810939 109.97576154 152.81483459 109.90525818 C151.29265171 109.91068832 149.77047408 109.91781595 148.24830627 109.92649841 C144.14078719 109.94462897 140.03367301 109.93770712 135.92614746 109.92498207 C131.61201447 109.91480081 127.29791437 109.9242619 122.98377991 109.93052673 C115.74120407 109.93778829 108.4987918 109.92825474 101.25624084 109.90916443 C92.90254227 109.88739851 84.54923431 109.89445094 76.1955452 109.91647005 C69.00200704 109.93466671 61.80858595 109.93716159 54.6150322 109.92671537 C50.32793025 109.92050381 46.04101144 109.91957999 41.75392151 109.93286133 C37.72192246 109.94448161 33.69042327 109.93628256 29.65847778 109.9132843 C28.18557563 109.90802997 26.71263085 109.90945436 25.23974609 109.91833496 C12.52204034 109.98790047 3.72113986 107.90143824 -5.61875916 99.0322113 C-12.07944102 91.50401574 -14.99544779 83.26858802 -15.04942322 73.51121521 C-15.05438812 72.82776535 -15.05935303 72.14431549 -15.06446838 71.44015503 C-15.07903881 69.18567386 -15.08588306 66.93126302 -15.09141541 64.67674255 C-15.09717063 63.10499572 -15.10292831 61.53324889 -15.10868835 59.96150208 C-15.11918346 56.66801121 -15.12503602 53.37454465 -15.12852478 50.08103943 C-15.1340095 45.86887512 -15.15804314 41.65703405 -15.18649673 37.44497108 C-15.20515451 34.19867524 -15.21033036 30.95245683 -15.21186066 27.70611191 C-15.21488012 26.15362657 -15.22288475 24.60114236 -15.23604584 23.04870987 C-15.25317433 20.87320338 -15.25121013 18.69848123 -15.24473572 16.52293396 C-15.24838135 15.28701508 -15.25202698 14.05109619 -15.25578308 12.77772522 C-14.76616098 8.26106092 -13.47782383 5.00885935 -10.27332592 1.74056339 C-6.91219436 -0.16599895 -3.7610743 -0.03023718 0 0 Z " fill="#000000" transform="translate(165.88829040527344,402.61231994628906)"/>
<path d="M0 0 C0.64397773 -0.00226556 1.28795546 -0.00453111 1.95144767 -0.00686532 C4.09531047 -0.01316251 6.23910936 -0.01237873 8.38298035 -0.0115509 C9.92589397 -0.01454508 11.46880685 -0.01794821 13.01171875 -0.02172852 C17.19365658 -0.03054667 21.37557393 -0.03290572 25.55752015 -0.0335443 C28.17312154 -0.03425608 30.78871775 -0.03639282 33.40431786 -0.03904152 C42.53750818 -0.04828791 51.67068393 -0.05237731 60.80387878 -0.05158997 C69.30396057 -0.05098945 77.80397883 -0.06153796 86.30404454 -0.07733363 C93.61295361 -0.09042953 100.92184196 -0.095773 108.23076266 -0.09513456 C112.5910676 -0.09488016 116.95131607 -0.09769903 121.31160927 -0.10831261 C125.41481057 -0.11802807 129.51790181 -0.11804923 133.6211071 -0.11079597 C135.12184943 -0.10975439 136.62259874 -0.11208756 138.12332916 -0.11815643 C149.8121086 -0.16234092 160.17738281 0.02103771 169.34074402 8.13371277 C174.99553651 14.88804825 177.84804489 21.56527138 177.66105652 30.40715027 C176.86974047 37.14298685 174.3969528 44.47667836 169.34074402 49.13371277 C162.69661493 53.58867247 157.78041887 56.24875586 149.68280029 56.29434204 C149.00266701 56.29942986 148.32253373 56.30451768 147.62179035 56.30975968 C145.33743643 56.32548442 143.05311416 56.33400944 140.76872253 56.342453 C139.13259684 56.35199184 137.49647316 56.36188302 135.86035156 56.37210083 C130.48014217 56.40349601 125.0999173 56.42376041 119.71965027 56.44230652 C118.34532148 56.4472525 118.34532148 56.4472525 116.94322848 56.4522984 C108.29638516 56.48309062 99.64953831 56.5097904 91.00265598 56.52671719 C79.95675232 56.54859541 68.9113365 56.59049992 57.86562783 56.66015476 C50.09219854 56.70750109 42.31890033 56.73166528 34.54533142 56.73891407 C29.90689317 56.74385618 25.26900462 56.75879804 20.63072395 56.79865837 C16.25977181 56.83572432 11.88967871 56.8438697 7.51859856 56.83065224 C5.92233201 56.83070586 4.32602547 56.84087013 2.72990417 56.86240387 C-7.17142907 56.98874193 -15.26433564 56.00050918 -23.65925598 50.13371277 C-29.69918243 44.13489291 -32.75101504 37.16983749 -33.03425598 28.69621277 C-32.74489074 20.3161953 -30.548073 14.07780139 -24.75300598 7.92668152 C-17.4220997 1.64890916 -9.43593382 0.01377541 0 0 Z " fill="#000000" transform="translate(183.6592559814453,324.8662872314453)"/>
<path d="M0 0 C0.65058484 -0.00297112 1.30116969 -0.00594224 1.97146922 -0.0090034 C4.14373782 -0.01765022 6.31595105 -0.01919524 8.48823547 -0.02069092 C10.04908362 -0.02532199 11.60993065 -0.03034704 13.17077637 -0.03573608 C17.40655341 -0.04883545 21.64231462 -0.05530039 25.87810874 -0.05974674 C28.52738198 -0.06268185 31.17665094 -0.06678751 33.82592201 -0.07125092 C42.12329039 -0.08492024 50.42064892 -0.09458929 58.71802777 -0.09845281 C68.28027561 -0.10293032 77.84238027 -0.12046634 87.40458459 -0.1494534 C94.80605728 -0.17110763 102.20748981 -0.1811591 109.60899383 -0.18249393 C114.02471128 -0.1835394 118.44029405 -0.18939215 122.85597801 -0.20731354 C127.01337626 -0.22385873 131.17053951 -0.22591864 135.32795906 -0.21717453 C136.84763598 -0.21640756 138.36732586 -0.22070173 139.88697052 -0.23063278 C150.90799414 -0.29839016 160.78098661 0.1913858 169.63789368 7.40216064 C175.27764256 12.99166678 178.38085423 19.92228014 178.76679993 27.82794189 C178.52041607 36.9304567 175.33819192 43.95664388 168.97773743 50.38653564 C159.92916688 56.52370811 150.76123576 56.71785795 140.17695618 56.65802002 C138.55625278 56.66344919 136.93555433 56.67057629 135.31486511 56.67926025 C130.93876782 56.69740215 126.56305029 56.69046412 122.18694687 56.67774391 C117.5925423 56.66756864 112.99816876 56.6770221 108.40376282 56.68328857 C100.69040633 56.69055185 92.97720338 56.68101201 85.26387024 56.66192627 C76.3648641 56.64016005 67.46622463 56.64721236 58.56722736 56.66923189 C50.90660383 56.68742359 43.24609025 56.68992583 35.58545208 56.67947721 C31.01889733 56.67326296 26.45251455 56.6723494 21.88597107 56.68562317 C17.59133491 56.69723613 13.29716835 56.68905735 9.00258255 56.66604614 C7.43292645 56.66078797 5.86323037 56.66222289 4.29359055 56.6710968 C-5.55275352 56.72160165 -13.89379677 56.09391125 -22.19413757 50.35137939 C-28.62148839 43.75562637 -31.73115082 37.35099702 -32.10820007 28.07794189 C-31.76582169 19.45221554 -28.42019962 13.14568119 -22.60429382 6.86700439 C-16.15323194 1.28702523 -8.2750813 0.02117837 0 0 Z " fill="#000000" transform="translate(182.6082000732422,247.85955810546875)"/>
<path d="M0 0 C0.98325508 -0.0098568 0.98325508 -0.0098568 1.9863739 -0.01991272 C4.15912996 -0.03964861 6.33181688 -0.05130922 8.50463867 -0.0612793 C9.24677801 -0.06535482 9.98891735 -0.06943035 10.75354576 -0.07362938 C14.68204851 -0.09449195 18.61051632 -0.10879249 22.5390625 -0.11816406 C26.59454865 -0.12922549 30.64948563 -0.16362107 34.70477772 -0.20333576 C37.82493603 -0.2294968 40.94496344 -0.23785543 44.06522179 -0.24144554 C45.55994053 -0.24631335 47.05465335 -0.25793303 48.54926491 -0.27648354 C50.64396119 -0.30086468 52.73723616 -0.29991293 54.83203125 -0.29296875 C56.61834709 -0.30176811 56.61834709 -0.30176811 58.44075012 -0.31074524 C62.24553549 0.27479095 63.8878333 1.50976643 66.61010742 4.17700195 C67.76420996 6.48520703 67.73113712 7.78484472 67.72363281 10.35131836 C67.72351196 11.22409424 67.72339111 12.09687012 67.7232666 12.99609375 C67.71815063 13.91430908 67.71303467 14.83252441 67.70776367 15.77856445 C67.70675659 16.62185303 67.70574951 17.4651416 67.70471191 18.33398438 C67.69947218 21.49000403 67.68551095 24.64600433 67.67260742 27.80200195 C67.65198242 34.85575195 67.63135742 41.90950195 67.61010742 49.17700195 C41.21010742 49.17700195 14.81010742 49.17700195 -12.38989258 49.17700195 C-12.47239258 42.18512695 -12.55489258 35.19325195 -12.63989258 27.98950195 C-12.67630859 25.79011963 -12.71272461 23.5907373 -12.75024414 21.32470703 C-12.76193095 19.57365901 -12.7721228 17.8226001 -12.78051758 16.0715332 C-12.80098145 15.16866577 -12.82144531 14.26579834 -12.8425293 13.33557129 C-12.84488731 9.07994127 -12.78199422 6.80784208 -10.49047852 3.12109375 C-6.97060009 -0.13655291 -4.72491484 0.03913624 0 0 Z " fill="#000000" transform="translate(228.389892578125,-0.177001953125)"/>
</svg>
