<?xml version="1.0" encoding="UTF-8"?>
<svg version="1.1" xmlns="http://www.w3.org/2000/svg" width="512" height="512">
<path d="M0 0 C87.12 0 174.24 0 264 0 C264 39.93 264 79.86 264 121 C259.05 121.33 254.1 121.66 249 122 C241.54076302 124.7657845 236.79487957 127.91024189 233 135 C231.25720304 139.51059903 230.64776686 143.55611888 230.375 148.375 C230.30023438 149.62023437 230.22546875 150.86546875 230.1484375 152.1484375 C230.07496094 153.55996094 230.07496094 153.55996094 230 155 C229.19535309 155.00142502 228.39070618 155.00285004 227.56167603 155.00431824 C219.94150468 155.02222173 212.32200287 155.06405078 204.70212746 155.13209057 C200.78555418 155.16623665 196.86936583 155.19145105 192.95263672 155.19555664 C189.16564018 155.1998665 185.3795101 155.22854798 181.59278488 155.27343178 C180.15531862 155.28632178 178.7177482 155.29074489 177.28023148 155.28615379 C167.91298395 155.26322615 159.72923775 155.97351982 152.39639282 162.40690613 C147.30080274 168.01515624 145.73719669 173.58490676 145.8495636 180.88633728 C146.09063707 198.47816623 140.96398953 215.10279639 136.47338867 231.94750977 C135.37691056 236.07864395 134.30552425 240.21625997 133.23242188 244.35351562 C131.58337028 250.69995754 129.9260216 257.04415609 128.26025391 263.38623047 C127.68685067 265.57106635 127.11355859 267.75593134 126.54035187 269.94081879 C126.02281775 271.91304577 125.50479776 273.88514523 124.98675537 275.85723877 C124.11105785 279.20596305 123.24675203 282.55738067 122.38671875 285.91015625 C122.13823685 286.85201279 121.88975494 287.79386932 121.63374329 288.76426697 C119.92772732 295.48036898 119.55535966 301.17068822 121 308 C111.62021468 308.09290462 102.24058909 308.1638683 92.86044312 308.20724869 C88.50428959 308.22807492 84.14845213 308.25630099 79.79248047 308.30175781 C75.58439043 308.34539387 71.37660337 308.3691744 67.16830444 308.37950897 C65.56720209 308.38686863 63.9661153 308.4012402 62.36514282 308.42292023 C52.42383712 308.55212242 45.15324471 308.45052952 37.25 301.625 C29.86440803 293.00847604 28.78284899 284.59067066 27.65853882 273.66519165 C27.53840695 272.54243501 27.41827508 271.41967837 27.29450285 270.2628988 C26.89451264 266.51127018 26.50267955 262.75883564 26.11083984 259.00634766 C25.82593949 256.31195005 25.539334 253.61773442 25.25282288 250.92350769 C24.55710385 244.37114278 23.86753839 237.81814439 23.18017648 231.26489808 C22.62116481 225.93648561 22.05987491 220.60831766 21.49696732 215.2803154 C21.41675282 214.52106221 21.33653832 213.76180901 21.25389308 212.97954815 C21.09090892 211.43696212 20.92791896 209.89437671 20.76492329 208.3517919 C19.23772164 193.89596485 17.71744599 179.43941592 16.19960006 164.98260395 C14.89836486 152.59038902 13.59143536 140.19878562 12.28027344 127.80761719 C10.75631443 113.40536737 9.23573026 99.00276802 7.72061503 84.59958494 C7.55888072 83.06216162 7.39714277 81.52473868 7.23540115 79.98731613 C7.15583193 79.23095283 7.07626271 78.47458953 6.9942823 77.69530613 C6.43459367 72.37722267 5.87252981 67.05939335 5.30955124 61.74165726 C4.62295851 55.25560305 3.94013425 48.76916502 3.26204966 42.28221561 C2.91629452 38.97539902 2.56834871 35.66885361 2.21697044 32.36262703 C1.83564476 28.77183068 1.4607716 25.18041624 1.0874939 21.58877563 C0.97602064 20.55335023 0.86454737 19.51792482 0.74969614 18.45112288 C0.64991106 17.4782122 0.55012599 16.50530153 0.44731712 15.50290871 C0.36030615 14.67565776 0.27329518 13.84840682 0.18364751 12.99608767 C-0.0814166 8.67174199 0 4.33246172 0 0 Z " fill="#000000" transform="translate(35,187)"/>
<path d="M0 0 C91.74 0 183.48 0 278 0 C283.94 23.1 289.88 46.2 296 70 C297.65 76.27 299.3 82.54 301 89 C301.82631241 97.72218656 301.82631241 97.72218656 299.64526367 101.0949707 C295.43373532 104.12797077 291.16502545 103.49202887 286.109375 103.390625 C284.51974945 103.38213531 284.51974945 103.38213531 282.89801025 103.37347412 C279.51487972 103.3510924 276.13281016 103.30089098 272.75 103.25 C270.45574447 103.2299374 268.16147233 103.21168621 265.8671875 103.1953125 C260.24442997 103.1512218 254.62229079 103.08429136 249 103 C248.99635437 102.11938904 248.99270874 101.23877808 248.98895264 100.33148193 C248.95108629 92.03259664 248.89424921 83.73410487 248.81609726 75.43549728 C248.77658747 71.16905936 248.74441637 66.9028289 248.72900391 62.63623047 C248.71386008 58.51868948 248.67945588 54.40171874 248.63169098 50.28443146 C248.61685353 48.71361497 248.60895763 47.14271708 248.60811615 45.57183075 C248.60575167 43.37116196 248.57871822 41.17207581 248.54589844 38.97167969 C248.53701599 37.71925476 248.52813354 36.46682983 248.51898193 35.17645264 C247.90724983 31.43231835 247.02179375 30.22943318 244 28 C240.95746492 27.41654524 240.95746492 27.41654524 238 28 C235.96332385 29.54506466 235.13926922 30.72146156 234 33 C233.87904959 35.21536729 233.82250828 37.43434004 233.79467773 39.65283203 C233.78477814 40.33587402 233.77487854 41.01891602 233.76467896 41.72265625 C233.73304691 43.98433953 233.70829989 46.24604382 233.68359375 48.5078125 C233.66302569 50.07437695 233.64202925 51.64093583 233.62062073 53.20748901 C233.56538478 57.33383682 233.51598225 61.46023483 233.46777344 65.58666992 C233.40874516 70.53600059 233.34250882 75.48523934 233.27747345 80.43449402 C233.17944475 87.95627329 233.09060194 95.47811108 233 103 C221.45 103 209.9 103 198 103 C197.96132813 95.38164062 197.96132813 95.38164062 197.921875 87.609375 C197.8967085 84.39187655 197.87037739 81.17447229 197.83984375 77.95703125 C197.79148987 72.85009399 197.74745272 67.74337473 197.72900391 62.63623047 C197.71386008 58.51868948 197.67945588 54.40171874 197.63169098 50.28443146 C197.61685353 48.71361497 197.60895763 47.14271708 197.60811615 45.57183075 C197.60575167 43.37116196 197.57871822 41.17207581 197.54589844 38.97167969 C197.53701599 37.71925476 197.52813354 36.46682983 197.51898193 35.17645264 C196.90726891 31.43243511 196.01617079 30.23479268 193 28 C190 27.33333333 190 27.33333333 187 28 C183.98382921 30.23479268 183.09273109 31.43243511 182.48101807 35.17645264 C182.47213562 36.42887756 182.46325317 37.68130249 182.45410156 38.97167969 C182.43859505 40.01131111 182.43859505 40.01131111 182.42277527 41.07194519 C182.39335304 43.35549243 182.39184832 45.63815313 182.390625 47.921875 C182.37564283 49.5080128 182.3589156 51.09413499 182.34051514 52.68023682 C182.29683293 56.84935219 182.27684079 61.01825712 182.26177979 65.18756104 C182.23876964 70.19292335 182.18633905 75.1980535 182.13883972 80.20323181 C182.07001924 87.80221517 182.03857598 95.40053178 182 103 C170.45 103 158.9 103 147 103 C146.95101562 97.99328125 146.90203125 92.9865625 146.8515625 87.828125 C146.81617686 84.65622978 146.78021732 81.48436192 146.7421875 78.3125 C146.6818803 73.27803461 146.62369881 68.2436075 146.578125 63.20898438 C146.54124929 59.14994336 146.49488319 55.09111154 146.44193649 51.03224945 C146.42340468 49.48374857 146.40829221 47.93520287 146.39665604 46.38663483 C146.37977263 44.2174996 146.35073331 42.0488422 146.31884766 39.87988281 C146.29886215 38.02789276 146.29886215 38.02789276 146.2784729 36.13848877 C146.01417695 33.15977929 145.66157935 31.45462775 144 29 C141.15916359 27.57958179 139.14522722 27.68547728 136 28 C132.9701449 30.22038775 132.09261939 31.43311878 131.48101807 35.17645264 C131.47213562 36.42887756 131.46325317 37.68130249 131.45410156 38.97167969 C131.43859505 40.01131111 131.43859505 40.01131111 131.42277527 41.07194519 C131.39335304 43.35549243 131.39184832 45.63815313 131.390625 47.921875 C131.37564283 49.5080128 131.3589156 51.09413499 131.34051514 52.68023682 C131.29683293 56.84935219 131.27684079 61.01825712 131.26177979 65.18756104 C131.23876964 70.19292335 131.18633905 75.1980535 131.13883972 80.20323181 C131.07001924 87.80221517 131.03857598 95.40053178 131 103 C119.45 103 107.9 103 96 103 C95.96261719 98.07707031 95.92523438 93.15414062 95.88671875 88.08203125 C95.85643687 84.96025167 95.82528772 81.83852897 95.79101562 78.71679688 C95.73671949 73.76361981 95.68560852 68.81055525 95.65356445 63.85717773 C95.62752376 59.86289577 95.58711632 55.86899221 95.53681374 51.87494469 C95.52015012 50.35240072 95.50863267 48.8297913 95.50238609 47.30716896 C95.49273912 45.17158114 95.46467507 43.03696025 95.43237305 40.90161133 C95.42126999 39.6869368 95.41016693 38.47226227 95.39872742 37.22077942 C94.92845048 33.42204825 93.72730916 30.72730916 91 28 C86.44390742 27.53081466 86.44390742 27.53081466 82.30046082 29.08125305 C80.32795776 31.99155544 80.59806991 34.46118862 80.56762695 37.94995117 C80.5574353 38.65264633 80.54724365 39.35534149 80.53674316 40.07933044 C80.506563 42.40062378 80.49733994 44.72150483 80.48828125 47.04296875 C80.47143821 48.65295285 80.45328848 50.26292377 80.43388367 51.87287903 C80.38633645 56.10936362 80.35655782 60.34579479 80.33044434 64.5824585 C80.29542589 69.66620793 80.23839983 74.74975211 80.18505096 79.83333588 C80.10648163 87.5555315 80.05591854 95.27745743 80 103 C68.12 103 56.24 103 44 103 C43.94392578 95.25595703 43.94392578 95.25595703 43.88671875 87.35546875 C43.85644826 84.087857 43.82530658 80.82030035 43.79101562 77.55273438 C43.73665216 72.3645298 43.68554413 67.17643422 43.65356445 61.98803711 C43.62758445 57.80573993 43.5872203 53.62380785 43.53681374 49.44173622 C43.52010897 47.84496916 43.50861721 46.2481389 43.50238609 44.65129662 C43.49278383 42.41712402 43.46477338 40.18389309 43.43237305 37.94995117 C43.42126999 36.67754074 43.41016693 35.40513031 43.39872742 34.09416199 C43.24344867 31.04572051 43.24344867 31.04572051 41.69172668 29.08125305 C38.88944203 27.2901961 36.22603438 27.76956897 33 28 C32.01 28.33 31.02 28.66 30 29 C29.05560115 33.01018248 28.84734053 36.78639019 28.79467773 40.90161133 C28.78477814 41.57533783 28.77487854 42.24906433 28.76467896 42.94320679 C28.73325077 45.1561133 28.708381 47.36904124 28.68359375 49.58203125 C28.66300806 51.12188759 28.64201117 52.66173849 28.62062073 54.20158386 C28.56556682 58.24404475 28.51608436 62.28655522 28.46777344 66.32910156 C28.41743621 70.45837794 28.36181409 74.58758279 28.30664062 78.71679688 C28.19926324 86.81113734 28.0977734 94.90553786 28 103 C21.37985308 103.10139564 14.75990628 103.17146336 8.13916016 103.21972656 C5.88680539 103.23984556 3.63450287 103.26714408 1.38232422 103.30175781 C-1.85462331 103.35026209 -5.09088047 103.37296605 -8.328125 103.390625 C-9.83925873 103.42159271 -9.83925873 103.42159271 -11.38092041 103.45318604 C-18.25259488 103.45539307 -18.25259488 103.45539307 -21.60449219 101.41308594 C-25.09061692 95.38494443 -23.79709937 89.6256051 -22.12573242 83.29833984 C-21.91451248 82.45678848 -21.70329254 81.61523712 -21.485672 80.7481842 C-20.78809737 77.98242644 -20.07208316 75.22181753 -19.35546875 72.4609375 C-18.86454638 70.53262301 -18.37467868 68.60403973 -17.88581848 66.67520142 C-16.86036801 62.64013392 -15.82653986 58.60734544 -14.78588867 54.57617188 C-13.4530754 49.41300946 -12.13453697 44.24634548 -10.82140636 39.07814598 C-9.56668102 34.14202657 -8.30520559 29.20764052 -7.04296875 24.2734375 C-6.80317984 23.33402691 -6.56339092 22.39461632 -6.31633568 21.42673874 C-5.63539981 18.76448318 -4.94972094 16.10349762 -4.26245117 13.44287109 C-4.06235443 12.65833054 -3.86225769 11.87378998 -3.65609741 11.06547546 C-3.46679153 10.33668686 -3.27748566 9.60789825 -3.08244324 8.85702515 C-2.92075244 8.22915792 -2.75906164 7.6012907 -2.59247112 6.9543972 C-1.87474815 4.58682905 -0.91880771 2.29701929 0 0 Z " fill="#000000" transform="translate(194,392)"/>
<path d="M0 0 C1.19753906 -0.02900391 2.39507812 -0.05800781 3.62890625 -0.08789062 C4.78003906 -0.09626953 5.93117188 -0.10464844 7.1171875 -0.11328125 C8.17276855 -0.12786377 9.22834961 -0.14244629 10.31591797 -0.1574707 C13.88507615 0.43966379 14.86610984 1.53450789 17.125 4.3125 C17.62179399 6.64954638 17.62179399 6.64954638 17.61719131 9.28687668 C17.62515551 10.2945754 17.6331197 11.30227413 17.64132524 12.34050918 C17.62384819 13.99808537 17.62384819 13.99808537 17.60601807 15.68914795 C17.60943577 16.86454518 17.61285347 18.0399424 17.61637473 19.25095773 C17.62182959 22.51440815 17.60930913 25.77722506 17.58926249 29.04060054 C17.57200456 32.55930873 17.577833 36.07798686 17.58087158 39.59672546 C17.58297 45.69343838 17.5704095 51.7899802 17.54792023 57.88665009 C17.51542568 66.70140469 17.50499583 75.51607648 17.49996826 84.33088449 C17.4912116 98.63193214 17.46458599 112.93288859 17.42675781 127.23388672 C17.39004731 141.12678572 17.36173085 155.01965995 17.34472656 168.91259766 C17.34367567 169.76881449 17.34262477 170.62503133 17.34154204 171.50719413 C17.33632192 175.80253989 17.33126708 180.09788582 17.32629442 184.39323187 C17.28482084 220.03305558 17.21326225 255.67276328 17.125 291.3125 C5.575 291.3125 -5.975 291.3125 -17.875 291.3125 C-17.94279412 255.09030387 -17.99651532 218.86812615 -18.02819599 182.64587962 C-18.03194819 178.37126013 -18.03583115 174.09664078 -18.03979492 169.82202148 C-18.04058185 168.97100783 -18.04136878 168.11999417 -18.04217956 167.24319222 C-18.05523989 153.45668248 -18.07889718 139.6702102 -18.10645839 125.8837227 C-18.13449516 111.7415957 -18.1511726 97.59948835 -18.15726548 83.4573347 C-18.16138552 74.72813754 -18.17440671 65.99904626 -18.1987494 57.26988169 C-18.21458527 51.28711478 -18.21940525 45.30440275 -18.21550413 39.32161639 C-18.21357922 35.86784485 -18.21656722 32.41425855 -18.23261642 28.96051979 C-18.24747838 25.2180221 -18.2439762 21.47598238 -18.23576355 17.73347473 C-18.24450207 16.63911867 -18.2532406 15.54476262 -18.26224393 14.41724426 C-18.20707893 5.15659447 -18.20707893 5.15659447 -14.875 1.3125 C-10.53769988 -0.85615006 -4.76404235 0.03821424 0 0 Z " fill="#000000" transform="translate(332.875,16.6875)"/>
<path d="M0 0 C0.96739032 -0.00199105 1.93478065 -0.0039821 2.93148583 -0.00603348 C3.99664904 -0.00312064 5.06181224 -0.0002078 6.15925312 0.00279331 C7.85368871 0.00151167 7.85368871 0.00151167 9.58235532 0.00020415 C13.38724472 -0.0014498 17.19209053 0.00406937 20.9969759 0.00952244 C23.71659594 0.01036043 26.43621511 0.00969058 29.15583515 0.00907993 C35.0211371 0.00855509 40.88642795 0.01169781 46.7517271 0.01731777 C55.23200855 0.02543805 63.71228462 0.02804854 72.19256953 0.02930576 C85.95061689 0.03149545 99.70865832 0.03815328 113.46670246 0.04760838 C126.8329131 0.05678464 140.19912212 0.06386443 153.56533527 0.06811619 C154.38895788 0.06837891 155.21258049 0.06864164 156.06116136 0.06891232 C160.19295311 0.07021734 164.32474488 0.07148105 168.45653665 0.07272422 C202.74451628 0.08309424 237.03248821 0.10098514 271.32046223 0.12304783 C271.32046223 11.67304783 271.32046223 23.22304783 271.32046223 35.12304783 C236.11743648 35.23604048 200.91446885 35.3255746 165.7113 35.37837448 C161.55685052 35.38462814 157.4024014 35.39109974 153.24795246 35.39770603 C152.00731935 35.39967336 152.00731935 35.39967336 150.74162295 35.40168043 C137.34306782 35.42344707 123.94461976 35.46287549 110.54612819 35.50881181 C96.8017699 35.55554151 83.05746776 35.58333583 69.31303328 35.5934903 C60.82942608 35.60035673 52.34612151 35.62205654 43.86260744 35.66263016 C38.04801686 35.68902555 32.23358312 35.69705614 26.41893695 35.69055472 C23.06212509 35.68734663 19.70627026 35.6950394 16.34947872 35.7190752 C12.71180122 35.74385145 9.07543206 35.73800767 5.43772602 35.72432041 C3.84288331 35.74616672 3.84288331 35.74616672 2.21582156 35.76845437 C-4.91458243 35.69563858 -4.91458243 35.69563858 -8.83591461 32.76041031 C-10.99976037 29.66495907 -11.299976 28.05482056 -11.27328777 24.30664158 C-11.27070965 23.21287205 -11.26813152 22.11910252 -11.26547527 20.99218845 C-11.2371159 19.85974705 -11.20875652 18.72730564 -11.17953777 17.56054783 C-11.1821159 16.42423923 -11.18469402 15.28793064 -11.18735027 14.11718845 C-11.07528059 4.61928304 -11.07528059 4.61928304 -7.67953777 1.12304783 C-4.79377351 0.16112641 -2.99690726 -0.00135914 0 0 Z " fill="#000000" transform="translate(27.679537773132324,135.87695217132568)"/>
<path d="M0 0 C1.61207785 -0.01064158 1.61207785 -0.01064158 3.25672293 -0.02149814 C6.86442222 -0.03912546 10.47105095 -0.02094796 14.07873535 -0.00291443 C16.66246533 -0.00805139 19.24619181 -0.01533097 21.82991028 -0.02459717 C28.12293792 -0.04297951 34.41565514 -0.03445771 40.70867312 -0.01650894 C45.82295017 -0.00248512 50.93714294 0.00141034 56.05143738 -0.00195122 C56.77923632 -0.00242866 57.50703526 -0.0029061 58.25688872 -0.00339801 C59.73538341 -0.00442434 61.21387809 -0.0054797 62.69237274 -0.00656378 C75.76702318 -0.01513203 88.84152373 0.00154816 101.9161377 0.03126526 C114.60402727 0.06010301 127.2917009 0.0671864 139.97961426 0.05177307 C153.79481545 0.0350133 167.60991411 0.03097439 181.42511797 0.04848343 C182.89818349 0.05032783 184.37124903 0.05216255 185.84431458 0.0539875 C186.56909708 0.05489959 187.29387958 0.05581168 188.04062518 0.05675141 C193.14894247 0.06235821 198.25720972 0.0590483 203.36552429 0.05244255 C210.24054711 0.04390519 217.11525291 0.05686183 223.99022484 0.08429146 C226.51660931 0.09119061 229.04302282 0.09125699 231.56940651 0.08407593 C235.01187221 0.07541698 238.45336758 0.09127847 241.89575195 0.11352539 C243.40376885 0.10116424 243.40376885 0.10116424 244.94225073 0.08855337 C249.30591401 0.14078321 251.76420319 0.20717696 255.54488373 2.53535557 C260.43786048 7.9164525 258.44787598 8.97722919 258.44787598 18.62818909 C168.02787598 18.62818909 77.60787598 18.62818909 -15.55212402 18.62818909 C-15.55212402 5.62818909 -15.55212402 5.62818909 -13.71163177 2.3549509 C-9.11453067 -0.15749701 -5.16610488 -0.06081956 0 0 Z " fill="#000000" transform="translate(211.5521240234375,357.37181091308594)"/>
<path d="M0 0 C7.65669715 5.56145232 12.11990234 12.77010223 15.125 21.64453125 C16.33344897 23.75343512 16.33344897 23.75343512 19.1484375 24.89453125 C23.08245314 25.62322906 24.49355991 24.94285466 28 23.1171875 C35.17269435 19.88592421 41.49732391 18.97096663 49.10546875 21.34375 C55.09429408 24.00746354 59.90119203 27.88310307 63.375 33.4921875 C63.705 35.1421875 64.035 36.7921875 64.375 38.4921875 C5.965 38.4921875 -52.445 38.4921875 -112.625 38.4921875 C-111.13903001 29.57636755 -106.71502736 23.67399618 -99.74609375 17.99609375 C-91.80867446 12.36827344 -83.04113347 10.47338328 -73.40234375 12.00390625 C-69.01200281 13.03212736 -65.2326815 14.16584003 -61.25 16.3046875 C-58.64837246 17.78701176 -58.64837246 17.78701176 -55.73046875 16.92578125 C-51.88127863 15.14885952 -50.63419327 13.25751968 -48.3125 9.7421875 C-36.92427831 -6.4622728 -17.09434969 -9.81907586 0 0 Z " fill="#000000" transform="translate(164.625,81.5078125)"/>
<path d="M0 0 C6.03488563 3.69752293 11.51476287 9.75002819 13.5625 16.5625 C14.55052988 25.66277517 14.34841024 34.06328624 8.5625 41.5625 C2.92150152 47.32612888 -3.94485408 50.07239317 -11.875 50.9375 C-20.78491423 49.99961429 -27.49024422 47.4712059 -33.4375 40.5625 C-37.54643703 34.28594981 -39.04147526 28.05179325 -38.4375 20.5625 C-35.86241873 11.27619654 -32.61919863 5.59976827 -24.33984375 0.578125 C-17.82606555 -2.89945679 -6.8019798 -2.99287111 0 0 Z " fill="#000000" transform="translate(242.4375,18.4375)"/>
<path d="M0 0 C1.34923302 -0.01007584 1.34923302 -0.01007584 2.72572327 -0.02035522 C5.70473731 -0.03938185 8.6835266 -0.04326181 11.66259766 -0.04541016 C13.73141575 -0.05183497 15.80023291 -0.05856309 17.86904907 -0.06558228 C22.20845649 -0.07756681 26.54778423 -0.0812619 30.88720703 -0.08007812 C36.44813431 -0.0798749 42.00855073 -0.10717561 47.56935692 -0.14162254 C51.84331611 -0.16385887 56.11715175 -0.16791666 60.39116287 -0.16685867 C62.4412881 -0.16921961 64.49141648 -0.17807078 66.54148483 -0.19352341 C69.40953087 -0.21311658 72.27646739 -0.20737145 75.14453125 -0.1953125 C75.99146042 -0.20655151 76.83838959 -0.21779053 77.71098328 -0.22937012 C78.88856453 -0.21678665 78.88856453 -0.21678665 80.0899353 -0.20394897 C80.76724386 -0.20503851 81.44455242 -0.20612804 82.14238548 -0.2072506 C84.20166016 0.29052734 84.20166016 0.29052734 89.20166016 4.29052734 C89.20166016 8.91052734 89.20166016 13.53052734 89.20166016 18.29052734 C55.21166016 18.29052734 21.22166016 18.29052734 -13.79833984 18.29052734 C-13.79833984 6.29052734 -13.79833984 6.29052734 -11.79833984 2.29052734 C-7.87932433 -0.32214967 -4.54815932 -0.00484422 0 0 Z " fill="#000000" transform="translate(294.79833984375,323.70947265625)"/>
<path d="M0 0 C4.84848954 5.09713003 5.35314764 9.40371716 5.28125 16.20703125 C4.7410006 21.57200789 2.38869356 24.71291816 -1.5625 28.375 C-6.44554163 31.63036109 -11.32021863 31.47923155 -17 31 C-22.96923165 28.97271378 -26.35661264 25.0520051 -29.3125 19.5625 C-30.9084009 13.61414209 -30.17364476 9.15975905 -27.2734375 3.86328125 C-24.90111926 0.39212849 -22.02721354 -2.1215408 -18.125 -3.8125 C-10.90009058 -4.44999201 -6.0923763 -4.18766442 0 0 Z " fill="#000000" transform="translate(89,12)"/>
</svg>
