<?xml version="1.0" encoding="UTF-8"?>
<svg version="1.1" xmlns="http://www.w3.org/2000/svg" width="512" height="512">
<path d="M0 0 C0.65175249 -0.00581376 1.30350497 -0.01162753 1.97500753 -0.01761746 C4.16842374 -0.03226594 6.36072934 -0.01831103 8.55413818 -0.00457001 C10.13866881 -0.00917704 11.72319517 -0.01552863 13.30771255 -0.02347898 C17.66927279 -0.04022269 22.03048426 -0.0319032 26.39204597 -0.01953411 C31.09287032 -0.01050648 35.7936335 -0.02444195 40.4944458 -0.0354538 C49.70624226 -0.05326811 58.91790858 -0.04938609 68.1297102 -0.03780323 C75.61433673 -0.02878062 83.09892672 -0.02753982 90.58355713 -0.0318985 C91.64759899 -0.03251143 92.71164086 -0.03312436 93.80792642 -0.03375587 C95.96930537 -0.03503473 98.13068431 -0.03633158 100.29206324 -0.03764623 C120.57353582 -0.04906057 140.85493615 -0.03592495 161.13639688 -0.01444477 C178.55009424 0.00342698 195.96368494 0.00032311 213.37738037 -0.01811981 C233.58479952 -0.03951147 253.79215531 -0.04796185 273.9995842 -0.03567076 C276.15314483 -0.03439652 278.30670547 -0.03313904 280.46026611 -0.0318985 C282.04977943 -0.03097285 282.04977943 -0.03097285 283.67140412 -0.03002849 C291.1496242 -0.02657047 298.62780419 -0.03241366 306.10601807 -0.04181671 C315.21578288 -0.05301915 324.32540978 -0.0500337 333.43515873 -0.02869374 C338.08577124 -0.01815962 342.73615356 -0.01410154 347.38676453 -0.02729034 C351.64048136 -0.03917141 355.89375369 -0.03272305 360.14742994 -0.01138014 C361.68976255 -0.00689579 363.23213238 -0.00922121 364.77444124 -0.01888329 C366.86477557 -0.03097846 368.95357047 -0.01864547 371.04382324 0 C372.20663692 0.00064941 373.36945061 0.00129882 374.56750107 0.00196791 C378.150949 0.61011927 379.32830478 1.66061521 381.52191162 4.50336456 C382.02527618 6.73352814 382.02527618 6.73352814 382.02984619 9.20941925 C382.04676514 10.62257416 382.04676514 10.62257416 382.06402588 12.06427765 C382.05188049 13.6042038 382.05188049 13.6042038 382.03948975 15.17523956 C382.05000366 16.80507782 382.05000366 16.80507782 382.06072998 18.4678421 C382.0783503 22.06327541 382.0666722 25.6579231 382.05316162 29.25336456 C382.05585535 31.74913433 382.05973678 34.24490308 382.0647583 36.74066925 C382.07065883 41.97284732 382.06245308 47.20482064 382.043396 52.43695831 C382.02162731 58.48333468 382.02867887 64.52917152 382.05070162 70.57553482 C382.07105009 76.39549422 382.06888456 82.21524877 382.05717468 88.03522491 C382.05450317 90.51040472 382.05779198 92.98559825 382.0670929 95.46076202 C382.07723271 98.91804416 382.06179181 102.37428513 382.03948975 105.83148956 C382.04758667 106.85810699 382.05568359 107.88472443 382.06402588 108.94245148 C382.05274658 109.88455475 382.04146729 110.82665802 382.02984619 111.79730988 C382.02758404 113.02287598 382.02758404 113.02287598 382.02527618 114.27320099 C381.31523984 117.4190267 380.03061935 118.5034392 377.52191162 120.50336456 C374.56750107 121.00476122 374.56750107 121.00476122 371.04382324 121.00672913 C370.39207076 121.01254289 369.74031827 121.01835665 369.06881571 121.02434659 C366.8753995 121.03899506 364.6830939 121.02504015 362.48968506 121.01129913 C360.90515443 121.01590617 359.32062807 121.02225776 357.73611069 121.03020811 C353.37455046 121.04695182 349.01333898 121.03863232 344.65177727 121.02626324 C339.95095292 121.01723561 335.25018974 121.03117108 330.54937744 121.04218292 C321.33758098 121.05999724 312.12591467 121.05611521 302.91411304 121.04453236 C295.42948651 121.03550975 287.94489652 121.03426895 280.46026611 121.03862762 C279.39622425 121.03924056 278.33218238 121.03985349 277.23589683 121.04048499 C275.07451788 121.04176386 272.91313894 121.04306071 270.75176001 121.04437536 C250.47028743 121.05578969 230.18888709 121.04265408 209.90742636 121.02117389 C192.493729 121.00330215 175.0801383 121.00640602 157.66644287 121.02484894 C137.45902372 121.04624059 117.25166794 121.05469098 97.04423904 121.04239988 C94.89067842 121.04112565 92.73711778 121.03986816 90.58355713 121.03862762 C88.99404381 121.03770197 88.99404381 121.03770197 87.37241912 121.03675762 C79.89419904 121.0332996 72.41601905 121.03914278 64.93780518 121.04854584 C55.82804036 121.05974827 46.71841346 121.05676282 37.60866451 121.03542286 C32.958052 121.02488875 28.30766968 121.02083066 23.65705872 121.03401947 C19.40334188 121.04590054 15.15006955 121.03945218 10.8963933 121.01810926 C9.35406069 121.01362492 7.81169086 121.01595033 6.269382 121.02561241 C4.17904767 121.03770758 2.09025278 121.0253746 0 121.00672913 C-1.16281368 121.00607972 -2.32562737 121.00543031 -3.52367783 121.00476122 C-7.10763282 120.3965238 -8.28866948 119.35111426 -10.47808838 116.50336456 C-10.93218994 114.2133255 -10.93218994 114.2133255 -10.86871338 111.73773956 C-10.85582275 110.84828644 -10.84293213 109.95883331 -10.82965088 109.04242706 C-10.77937744 107.66184113 -10.77937744 107.66184113 -10.72808838 106.25336456 C-10.7100415 105.31750519 -10.69199463 104.38164581 -10.67340088 103.41742706 C-10.62634511 101.11169441 -10.56062551 98.80805511 -10.47808838 96.50336456 C-11.12066589 96.51224701 -11.76324341 96.52112946 -12.42529297 96.53028107 C-19.10849113 96.61872105 -25.79152328 96.6790851 -32.47515869 96.72309113 C-34.97001903 96.7432162 -37.46483216 96.77051908 -39.95953369 96.80512238 C-43.54396206 96.85359913 -47.12776722 96.87632477 -50.71246338 96.89398956 C-51.82925476 96.9146347 -52.94604614 96.93527985 -54.09667969 96.9565506 C-55.65784515 96.95700378 -55.65784515 96.95700378 -57.25054932 96.95746613 C-58.16544128 96.96634857 -59.08033325 96.97523102 -60.02294922 96.98438263 C-63.36282003 96.33002534 -64.49643031 95.24903709 -66.47808838 92.50336456 C-66.98602295 89.6195755 -66.98602295 89.6195755 -66.9956665 86.23773956 C-67.00827515 84.96962433 -67.02088379 83.70150909 -67.03387451 82.39496613 C-67.02671468 81.01442661 -67.01851069 79.63389217 -67.00933838 78.25336456 C-67.012034 76.83376551 -67.01591701 75.41416825 -67.02093506 73.9945755 C-67.02682696 71.02206562 -67.01827792 68.05003715 -66.99957275 65.07758331 C-66.97678238 61.27077669 -66.98990726 57.46509807 -67.01386261 53.65833282 C-67.02832952 50.727725 -67.02371073 47.79738382 -67.01335144 44.86676788 C-67.01068657 43.46336483 -67.01394555 42.05993742 -67.02326965 40.65656281 C-67.03344779 38.69404322 -67.01517878 36.73143854 -66.9956665 34.76898956 C-66.99248413 33.6529837 -66.98930176 32.53697784 -66.98602295 31.38715363 C-66.3526684 27.79129498 -65.43354173 26.61175201 -62.47808838 24.50336456 C-60.02294922 24.0223465 -60.02294922 24.0223465 -57.25054932 24.049263 C-55.68938385 24.04971619 -55.68938385 24.04971619 -54.09667969 24.05017853 C-52.42149261 24.08114624 -52.42149261 24.08114624 -50.71246338 24.11273956 C-48.98966156 24.12122925 -48.98966156 24.12122925 -47.23205566 24.12989044 C-43.56364264 24.15228125 -39.89620621 24.20248515 -36.22808838 24.25336456 C-33.74112332 24.27342595 -31.25414295 24.29167735 -28.76715088 24.30805206 C-22.67046349 24.35215501 -16.5743457 24.41909507 -10.47808838 24.50336456 C-10.49903564 23.91845245 -10.51998291 23.33354034 -10.54156494 22.73090363 C-10.62488953 20.07189991 -10.67679735 17.41317101 -10.72808838 14.75336456 C-10.761604 13.83297394 -10.79511963 12.91258331 -10.82965088 11.96430206 C-10.8425415 11.07484894 -10.85543213 10.18539581 -10.86871338 9.26898956 C-10.88966064 8.4520462 -10.91060791 7.63510284 -10.93218994 6.79340363 C-9.74677661 0.81535143 -5.41329343 0.00302322 0 0 Z M349.52191162 16.50336456 C349.52191162 17.82336456 349.52191162 19.14336456 349.52191162 20.50336456 C354.80191162 20.50336456 360.08191162 20.50336456 365.52191162 20.50336456 C365.52191162 19.18336456 365.52191162 17.86336456 365.52191162 16.50336456 C360.24191162 16.50336456 354.96191162 16.50336456 349.52191162 16.50336456 Z M349.52191162 37.50336456 C349.52191162 38.82336456 349.52191162 40.14336456 349.52191162 41.50336456 C354.80191162 41.50336456 360.08191162 41.50336456 365.52191162 41.50336456 C365.52191162 40.18336456 365.52191162 38.86336456 365.52191162 37.50336456 C360.24191162 37.50336456 354.96191162 37.50336456 349.52191162 37.50336456 Z M349.52191162 58.50336456 C349.52191162 59.82336456 349.52191162 61.14336456 349.52191162 62.50336456 C354.80191162 62.50336456 360.08191162 62.50336456 365.52191162 62.50336456 C365.52191162 61.18336456 365.52191162 59.86336456 365.52191162 58.50336456 C360.24191162 58.50336456 354.96191162 58.50336456 349.52191162 58.50336456 Z M349.52191162 79.50336456 C349.52191162 80.82336456 349.52191162 82.14336456 349.52191162 83.50336456 C354.80191162 83.50336456 360.08191162 83.50336456 365.52191162 83.50336456 C365.52191162 82.18336456 365.52191162 80.86336456 365.52191162 79.50336456 C360.24191162 79.50336456 354.96191162 79.50336456 349.52191162 79.50336456 Z M349.52191162 100.50336456 C349.52191162 101.82336456 349.52191162 103.14336456 349.52191162 104.50336456 C354.80191162 104.50336456 360.08191162 104.50336456 365.52191162 104.50336456 C365.52191162 103.18336456 365.52191162 101.86336456 365.52191162 100.50336456 C360.24191162 100.50336456 354.96191162 100.50336456 349.52191162 100.50336456 Z " fill="#000000" transform="translate(98.47808837890625,357.4966354370117)"/>
<path d="M0 0 C1.9566263 -0.00270397 3.91325128 -0.00659384 5.86987305 -0.01159668 C9.94430502 -0.01744924 14.01838306 -0.00906722 18.09277344 0.00976562 C23.27005706 0.03255243 28.44651073 0.01940632 33.62376404 -0.00452423 C37.65627093 -0.01909796 41.68858665 -0.01432369 45.72109985 -0.00401306 C47.62814436 -0.00137761 49.53520722 -0.004501 51.44223022 -0.01393127 C66.1476803 -0.07072264 80.33349983 1.098823 93.5625 8.21875 C94.54379883 8.72921875 94.54379883 8.72921875 95.54492188 9.25 C112.0438061 18.10305983 123.86784785 30.68107902 132.5 47.15625 C132.98146484 48.04086914 132.98146484 48.04086914 133.47265625 48.94335938 C141.51264261 64.90705131 140.86291169 81.89619509 140.71762085 99.29187012 C140.69452961 102.5106429 140.69375173 105.72939668 140.69091797 108.94824219 C140.67008053 118.30931947 140.6142357 127.67029249 140.5625 137.03125 C140.48 157.98625 140.3975 178.94125 140.3125 200.53125 C63.7525 200.53125 -12.8075 200.53125 -91.6875 200.53125 C-91.77 179.57625 -91.8525 158.62125 -91.9375 137.03125 C-91.99212402 127.14768555 -91.99212402 127.14768555 -92.04785156 117.06445312 C-92.06591797 108.94824219 -92.06591797 108.94824219 -92.0692749 105.13513184 C-92.07537259 102.50135002 -92.08780588 99.86836671 -92.10980225 97.23474121 C-92.38428959 62.85946708 -92.38428959 62.85946708 -84 47.28125 C-83.6596875 46.62705078 -83.319375 45.97285156 -82.96875 45.29882812 C-74.11569017 28.7999439 -61.53767098 16.97590215 -45.0625 8.34375 C-44.17788086 7.86228516 -44.17788086 7.86228516 -43.27539062 7.37109375 C-29.51436533 0.4404629 -15.04459417 -0.0743959 0 0 Z " fill="#000000" transform="translate(259.6875,141.46875)"/>
<path d="M0 0 C1.61669586 -0.01577087 1.61669586 -0.01577087 3.26605225 -0.03186035 C6.80036779 -0.05809546 10.33285621 -0.04084609 13.8671875 -0.02050781 C16.34001 -0.0245541 18.81283016 -0.03038099 21.28564453 -0.03790283 C26.45693789 -0.04672709 31.62760753 -0.03396036 36.79882812 -0.00585938 C43.40973564 0.02832445 50.01918144 0.00862995 56.6300354 -0.02729416 C61.73293973 -0.04903083 66.83550055 -0.04204952 71.93841553 -0.0265274 C74.3751442 -0.02254017 76.8119046 -0.0273828 79.24859619 -0.04140472 C82.66135631 -0.05673611 86.07178728 -0.03328981 89.484375 0 C90.97780426 -0.01821808 90.97780426 -0.01821808 92.50140381 -0.0368042 C99.82701504 0.09481331 104.9777623 2.23140983 110.7421875 6.77636719 C112.45248106 8.73178277 113.52835277 10.45904633 114.7421875 12.77636719 C113.27887745 16.03555776 111.42049105 18.49303252 109.1171875 21.21386719 C100.8064752 31.51192373 95.1069376 42.3799296 90.7421875 54.77636719 C90.42378906 55.67613281 90.10539062 56.57589844 89.77734375 57.50292969 C84.3911548 74.81376581 85.41145133 94.10852089 85.328125 112.00683594 C85.30937189 114.5804351 85.28979555 117.15402838 85.2694397 119.72761536 C85.22372055 125.75475655 85.18615899 131.78189254 85.15276682 137.80910999 C85.1142017 144.68492832 85.06488498 151.56065739 85.01478267 158.43639982 C84.91217666 172.54965455 84.8226905 186.66296989 84.7421875 200.77636719 C84.06060074 200.78445404 83.37901398 200.79254089 82.67677307 200.8008728 C75.55459583 200.88722379 68.43268717 200.98673955 61.31079102 201.09375 C58.65617981 201.13297274 56.00165663 201.16680004 53.34692383 201.19824219 C49.5214667 201.24413333 45.69634901 201.30208861 41.87109375 201.36230469 C40.10337364 201.3796315 40.10337364 201.3796315 38.29994202 201.39730835 C28.88116857 201.56433295 21.43515285 202.14736815 13.7421875 207.77636719 C13.0821875 207.77636719 12.4221875 207.77636719 11.7421875 207.77636719 C8.80512564 213.42456306 6.79754524 218.44422076 5.7421875 224.77636719 C-5.1478125 224.77636719 -16.0378125 224.77636719 -27.2578125 224.77636719 C-27.39677713 197.82930869 -27.50381634 170.88233668 -27.56868553 143.93499184 C-27.59960764 131.42252012 -27.64175714 118.91027529 -27.71044922 106.39794922 C-27.77030107 95.49066685 -27.8089736 84.58354883 -27.82234347 73.67610681 C-27.83015732 67.90200412 -27.8484881 62.12837155 -27.89219284 56.35441971 C-27.93302481 50.91575339 -27.94545994 45.47774929 -27.93645859 40.03894424 C-27.93810447 38.04676206 -27.94997597 36.05455692 -27.97304535 34.06250763 C-28.17918996 15.33783071 -28.17918996 15.33783071 -23.18988991 8.68715858 C-16.20820016 1.78238725 -9.63222075 -0.11750175 0 0 Z " fill="#000000" transform="translate(67.2578125,141.2236328125)"/>
<path d="M0 0 C3.8043403 2.3787671 7.06213324 5.5880574 9.375 9.4375 C9.73699981 11.09817607 10.07350267 12.76478118 10.375 14.4375 C11.47489258 14.41655273 12.57478516 14.39560547 13.70800781 14.37402344 C17.79299881 14.30156365 21.87793314 14.25567885 25.96337891 14.21777344 C27.73072872 14.1976715 29.49801213 14.17038528 31.26513672 14.13574219 C33.80713285 14.08715991 36.34824896 14.06451774 38.890625 14.046875 C40.07365204 14.01590729 40.07365204 14.01590729 41.28057861 13.98431396 C44.79167295 13.98288137 46.95403862 14.14745335 49.88085938 16.1640625 C51.60429375 18.78638617 51.84537 20.09307002 51.765625 23.203125 C51.75273437 24.09257813 51.73984375 24.98203125 51.7265625 25.8984375 C51.69304687 26.81882812 51.65953125 27.73921875 51.625 28.6875 C51.60695313 29.62335938 51.58890625 30.55921875 51.5703125 31.5234375 C51.52325673 33.82917015 51.45753713 36.13280945 51.375 38.4375 C50.32372925 38.467229 50.32372925 38.467229 49.2512207 38.49755859 C46.06294838 38.59306166 42.87530853 38.70263871 39.6875 38.8125 C38.03331055 38.85890625 38.03331055 38.85890625 36.34570312 38.90625 C34.7456543 38.96425781 34.7456543 38.96425781 33.11328125 39.0234375 C32.13399658 39.0548584 31.15471191 39.0862793 30.14575195 39.11865234 C27.21660218 39.45572782 25.00954501 40.12358379 22.375 41.4375 C20.97564987 44.23620027 21.12234595 46.34248792 21.375 49.4375 C23.22842775 51.99699546 24.31256393 52.41668798 27.375 53.4375 C29.21966442 53.58639747 31.06857275 53.6854101 32.91796875 53.75390625 C34.52768555 53.81674805 34.52768555 53.81674805 36.16992188 53.88085938 C37.28947266 53.92017578 38.40902344 53.95949219 39.5625 54 C40.69365234 54.04318359 41.82480469 54.08636719 42.99023438 54.13085938 C45.78503354 54.23699099 48.57992162 54.33904385 51.375 54.4375 C51.375 57.0775 51.375 59.7175 51.375 62.4375 C50.32372925 62.467229 50.32372925 62.467229 49.2512207 62.49755859 C46.06294838 62.59306166 42.87530853 62.70263871 39.6875 62.8125 C38.58470703 62.8434375 37.48191406 62.874375 36.34570312 62.90625 C35.27900391 62.94492188 34.21230469 62.98359375 33.11328125 63.0234375 C32.13399658 63.0548584 31.15471191 63.0862793 30.14575195 63.11865234 C27.21660218 63.45572782 25.00954501 64.12358379 22.375 65.4375 C20.97564987 68.23620027 21.12234595 70.34248792 21.375 73.4375 C23.22842775 75.99699546 24.31256393 76.41668798 27.375 77.4375 C29.21966442 77.58639747 31.06857275 77.6854101 32.91796875 77.75390625 C33.99111328 77.79580078 35.06425781 77.83769531 36.16992188 77.88085938 C37.28947266 77.92017578 38.40902344 77.95949219 39.5625 78 C40.69365234 78.04318359 41.82480469 78.08636719 42.99023438 78.13085938 C45.78503354 78.23699099 48.57992162 78.33904385 51.375 78.4375 C51.375 81.0775 51.375 83.7175 51.375 86.4375 C50.32372925 86.467229 50.32372925 86.467229 49.2512207 86.49755859 C46.06294838 86.59306166 42.87530853 86.70263871 39.6875 86.8125 C38.58470703 86.8434375 37.48191406 86.874375 36.34570312 86.90625 C35.27900391 86.94492188 34.21230469 86.98359375 33.11328125 87.0234375 C32.13399658 87.0548584 31.15471191 87.0862793 30.14575195 87.11865234 C27.21660218 87.45572782 25.00954501 88.12358379 22.375 89.4375 C20.97564987 92.23620027 21.12234595 94.34248792 21.375 97.4375 C23.22842775 99.99699546 24.31256393 100.41668798 27.375 101.4375 C29.21966442 101.58639747 31.06857275 101.6854101 32.91796875 101.75390625 C33.99111328 101.79580078 35.06425781 101.83769531 36.16992188 101.88085938 C37.28947266 101.92017578 38.40902344 101.95949219 39.5625 102 C40.69365234 102.04318359 41.82480469 102.08636719 42.99023438 102.13085938 C45.78503354 102.23699099 48.57992162 102.33904385 51.375 102.4375 C51.49138036 105.68719769 51.56230581 108.9363583 51.625 112.1875 C51.65851563 113.10789062 51.69203125 114.02828125 51.7265625 114.9765625 C51.74589844 116.31074219 51.74589844 116.31074219 51.765625 117.671875 C51.7970459 118.89729004 51.7970459 118.89729004 51.82910156 120.14746094 C51.375 122.4375 51.375 122.4375 47.375 126.4375 C35.495 126.4375 23.615 126.4375 11.375 126.4375 C11.375 176.5975 11.375 226.7575 11.375 278.4375 C6.095 278.4375 0.815 278.4375 -4.625 278.4375 C-4.63308685 277.02643478 -4.64117371 275.61536957 -4.64950562 274.1615448 C-4.72736897 260.79041202 -4.81509495 247.41936976 -4.91252708 234.04836559 C-4.962358 227.1760645 -5.00880045 220.3037736 -5.046875 213.43139648 C-5.08370598 206.78528496 -5.13049672 200.13928912 -5.18306351 193.49328041 C-5.20143605 190.97190808 -5.21660543 188.45051007 -5.22834396 185.92909813 C-5.38577248 153.24916671 -7.95880918 124.42265143 -29.625 98.4375 C-30.48263191 97.73560547 -30.48263191 97.73560547 -31.35758972 97.01953125 C-35.41325698 93.36926121 -37.02385784 90.2509937 -37.42511463 84.75325012 C-37.55787534 80.86366407 -37.53698086 76.98467026 -37.484375 73.09375 C-37.48401074 71.3979888 -37.48602407 69.70222559 -37.49029541 68.00646973 C-37.49158618 64.46231307 -37.46873477 60.91940206 -37.42773438 57.37548828 C-37.37666005 52.84930562 -37.37886208 48.32508087 -37.39834213 43.79871368 C-37.40867501 40.29997968 -37.39416939 36.80168994 -37.37195587 33.30302429 C-37.36363429 31.63500446 -37.36207548 29.96693583 -37.36760712 28.29890442 C-37.38130769 18.6187352 -37.27066876 11.16175897 -30.1473999 3.93933105 C-22.62800184 -2.86107714 -9.2818229 -4.199349 0 0 Z " fill="#000000" transform="translate(420.625,63.5625)"/>
<path d="M0 0 C1.38221741 -0.01051392 1.38221741 -0.01051392 2.7923584 -0.02124023 C5.80874618 -0.03870824 8.82418051 -0.02724228 11.84057617 -0.01367188 C13.94805582 -0.01636885 16.05553424 -0.02025298 18.16300964 -0.02526855 C22.56501188 -0.03114742 26.96668815 -0.02264822 31.36865234 -0.00390625 C37.01251111 0.01895247 42.65561186 0.00570607 48.29944324 -0.01819611 C52.6445845 -0.03263771 56.98954537 -0.02805679 61.334692 -0.01768494 C63.41632871 -0.01501676 65.49798179 -0.01829057 67.57959938 -0.02760315 C70.4831971 -0.03774934 73.38555714 -0.02229769 76.2890625 0 C77.14886215 -0.00809692 78.0086618 -0.01619385 78.89451599 -0.02453613 C84.69666701 0.05811244 84.69666701 0.05811244 87.85716248 2.3838501 C89.75106735 5.14437088 89.78251664 6.82840728 89.71166992 10.15820312 C89.6987793 11.228125 89.68588867 12.29804687 89.67260742 13.40039062 C89.6390918 14.5115625 89.60557617 15.62273438 89.57104492 16.76757812 C89.55299805 17.89421875 89.53495117 19.02085938 89.51635742 20.18164062 C89.46924714 22.96114708 89.40347853 25.73893152 89.32104492 28.51757812 C90.55081055 28.44796875 90.55081055 28.44796875 91.80541992 28.37695312 C92.88307617 28.34085938 93.96073242 28.30476563 95.07104492 28.26757812 C96.13838867 28.22117187 97.20573242 28.17476562 98.30541992 28.12695312 C101.32104492 28.51757812 101.32104492 28.51757812 103.68725586 30.01660156 C105.9825058 33.5301312 105.82079715 36.72995165 105.71166992 40.78320312 C105.70601013 41.57660095 105.70035034 42.36999878 105.69451904 43.18743896 C105.67217639 45.71477286 105.62198668 48.24067478 105.57104492 50.76757812 C105.55097707 52.48370344 105.53272679 54.19985104 105.51635742 55.91601562 C105.47231887 60.11708593 105.40330818 64.31708947 105.32104492 68.51757812 C106.14088867 68.47117187 106.96073242 68.42476563 107.80541992 68.37695312 C108.88307617 68.34085937 109.96073242 68.30476563 111.07104492 68.26757812 C112.13838867 68.22117187 113.20573242 68.17476563 114.30541992 68.12695312 C117.32104492 68.51757812 117.32104492 68.51757812 121.32104492 72.51757812 C121.32104492 79.44757813 121.32104492 86.37757812 121.32104492 93.51757812 C94.92104492 93.51757812 68.52104492 93.51757812 41.32104492 93.51757812 C41.32104492 72.51757812 41.32104492 72.51757812 45.32104492 68.51757812 C48.33666992 68.12695312 48.33666992 68.12695312 51.57104492 68.26757812 C52.64870117 68.30367188 53.72635742 68.33976562 54.83666992 68.37695312 C55.65651367 68.42335938 56.47635742 68.46976562 57.32104492 68.51757812 C57.28962402 66.91317871 57.28962402 66.91317871 57.25756836 65.27636719 C57.18509866 61.3031964 57.13922029 57.33008387 57.10131836 53.35644531 C57.08121864 51.63759534 57.05393404 49.9188136 57.01928711 48.20019531 C56.97069458 45.72769323 56.94806057 43.25609602 56.93041992 40.78320312 C56.90977478 40.01639221 56.88912964 39.2495813 56.86785889 38.45953369 C56.8663752 34.92153659 57.03011568 32.91249909 59.15698242 30.02539062 C63.36940651 27.09038034 68.38309464 28.30288463 73.32104492 28.51757812 C73.32104492 24.55757812 73.32104492 20.59757812 73.32104492 16.51757812 C63.6630181 16.60209961 54.00516516 16.69702856 44.34737301 16.80510521 C39.86247262 16.85496995 35.37759466 16.90130062 30.89257812 16.93945312 C26.56121162 16.97643031 22.23003741 17.0228235 17.89883614 17.07564163 C16.24954171 17.09411968 14.60020617 17.10925176 12.95084953 17.12092209 C10.63386377 17.13789793 8.3173121 17.16695891 6.00048828 17.19873047 C4.68366562 17.21205414 3.36684296 17.22537781 2.01011658 17.23910522 C-3.22033209 17.63393036 -8.22058125 18.34067168 -11.91723633 22.30273438 C-12.42706055 22.83318359 -12.93688477 23.36363281 -13.4621582 23.91015625 C-13.96682617 24.46123047 -14.47149414 25.01230469 -14.99145508 25.58007812 C-21.44849702 32.41834764 -21.44849702 32.41834764 -26.55395508 32.83007812 C-29.5086416 32.77098439 -30.56953901 32.58322776 -33.17895508 31.01757812 C-34.86794185 28.20260017 -35.4322824 25.95246989 -35.24926758 22.65820312 C-34.08731771 18.29691183 -30.86720609 15.54729732 -27.67895508 12.51757812 C-26.96868164 11.81117187 -26.2584082 11.10476562 -25.52661133 10.37695312 C-17.82576795 3.06859562 -10.61982034 -0.10120049 0 0 Z " fill="#000000" transform="translate(202.678955078125,33.482421875)"/>
<path d="M0 0 C1.10794922 -0.01260864 2.21589844 -0.02521729 3.35742188 -0.03820801 C4.54916016 -0.03011108 5.74089844 -0.02201416 6.96875 -0.01367188 C8.19658203 -0.01749878 9.42441406 -0.02132568 10.68945312 -0.02526855 C13.28516459 -0.02799029 15.88090336 -0.02061099 18.4765625 -0.00390625 C22.45374599 0.01749738 26.42912282 -0.0037015 30.40625 -0.02929688 C32.92708733 -0.02665365 35.44792353 -0.02152878 37.96875 -0.01367188 C39.16048828 -0.0217688 40.35222656 -0.02986572 41.58007812 -0.03820801 C43.24200195 -0.01929504 43.24200195 -0.01929504 44.9375 0 C46.39833008 0.00477356 46.39833008 0.00477356 47.88867188 0.00964355 C51.23027382 0.66749772 52.4210399 1.83718659 54.46875 4.51757812 C54.8178505 7.40722933 54.9369062 9.90350523 54.859375 12.78320312 C54.85371521 13.57660095 54.84805542 14.36999878 54.84222412 15.18743896 C54.81988147 17.71477286 54.76969176 20.24067478 54.71875 22.76757812 C54.69868214 24.48370344 54.68043187 26.19985104 54.6640625 27.91601562 C54.62002395 32.11708593 54.55101326 36.31708947 54.46875 40.51757812 C55.28859375 40.47117188 56.1084375 40.42476562 56.953125 40.37695312 C58.03078125 40.34085938 59.1084375 40.30476563 60.21875 40.26757812 C61.28609375 40.22117188 62.3534375 40.17476562 63.453125 40.12695312 C66.46875 40.51757812 66.46875 40.51757812 70.46875 44.51757812 C70.46875 51.11757812 70.46875 57.71757813 70.46875 64.51757812 C38.78875 64.51757812 7.10875 64.51757812 -25.53125 64.51757812 C-25.53125 44.51757812 -25.53125 44.51757812 -21.53125 40.51757812 C-18.515625 40.12695312 -18.515625 40.12695312 -15.28125 40.26757812 C-14.20359375 40.30367187 -13.1259375 40.33976562 -12.015625 40.37695312 C-11.19578125 40.42335937 -10.3759375 40.46976563 -9.53125 40.51757812 C-9.55219727 39.44797852 -9.57314453 38.37837891 -9.59472656 37.27636719 C-9.66719626 33.3031964 -9.71307463 29.33008387 -9.75097656 25.35644531 C-9.77107628 23.63759534 -9.79836089 21.9188136 -9.83300781 20.20019531 C-9.88160034 17.72769323 -9.90423435 15.25609602 -9.921875 12.78320312 C-9.94252014 12.01639221 -9.96316528 11.2495813 -9.98443604 10.45953369 C-9.98584042 7.11063595 -9.91514021 5.02007898 -7.84857178 2.31500244 C-5.00307142 0.10789785 -3.56996179 0.01166558 0 0 Z M12.46875 19.51757812 C9.97323824 23.48771047 9.89638606 27.94760976 10.46875 32.51757812 C11.70533502 36.03208292 12.48537579 37.89945719 15.65625 39.89257812 C20.85146932 41.04707131 24.87482273 41.07840439 29.84375 39.33007812 C32.96411995 37.17553697 33.65151235 36.19514756 34.46875 32.51757812 C34.91051839 26.95129635 34.74645095 23.2645933 31.46875 18.51757812 C25.4983919 14.7647816 18.07346251 15.64765758 12.46875 19.51757812 Z " fill="#000000" transform="translate(89.53125,61.482421875)"/>
<path d="M0 0 C8.91 0 17.82 0 27 0 C27.33 2.64 27.66 5.28 28 8 C9.96721311 8.73770492 9.96721311 8.73770492 3 4 C2.01 3.34 1.02 2.68 0 2 C0 1.34 0 0.68 0 0 Z " fill="#000000" transform="translate(46,470)"/>
</svg>
