<?xml version="1.0" encoding="UTF-8"?>
<svg version="1.1" xmlns="http://www.w3.org/2000/svg" width="512" height="512">
<path d="M0 0 C73.26 0 146.52 0 222 0 C221.34 9.9 220.68 19.8 220 30 C217.339375 30.99 214.67875 31.98 211.9375 33 C197.27863174 38.64898183 184.90423365 45.71690364 173 56 C171.87851562 56.96679688 171.87851562 56.96679688 170.734375 57.953125 C150.05819487 77.28451293 140.07698513 104.70211916 137.71484375 132.3359375 C137.47432988 139.80232473 138.80733212 147.31279232 144 153 C143.71382812 153.56074219 143.42765625 154.12148438 143.1328125 154.69921875 C139.08251299 162.92551673 136.53958571 169.43176107 139.1875 178.5625 C140.28768992 181.68767716 141.52814831 183.86165524 143.75 186.3125 C146 189 146 189 146.0625 191 C145 193 145 193 143.125 195.625 C138.30124591 203.2862565 136.74528808 211.67780813 138.50390625 220.5390625 C139.65249783 224.88402034 141.00592388 228.29776427 143.75 231.875 C146 235 146 235 145.79296875 236.98828125 C144.71861645 239.71385483 143.08624773 241.66680504 141.25390625 243.92578125 C137.93451262 249.4167408 137.64103664 255.33371687 137.6875 261.5625 C137.69241455 262.34898926 137.6973291 263.13547852 137.70239258 263.94580078 C138.08918908 283.52365469 145.67202871 299.25713905 158.71484375 313.50390625 C160 315 160 315 160 316 C143.80568718 316.09349076 127.61146207 316.1640023 111.4169445 316.20724869 C103.89733731 316.22786354 96.37789792 316.25596332 88.85839844 316.30175781 C82.30348126 316.34165883 75.74868562 316.36744065 69.19365036 316.37635398 C65.72357073 316.38156329 62.25383877 316.39378394 58.7838707 316.42292023 C54.90776868 316.45520193 51.03200507 316.4559573 47.15576172 316.45410156 C46.00849106 316.46848267 44.8612204 316.48286377 43.67918396 316.49768066 C37.45849079 316.46541189 33.71490107 316.1983693 29 312 C22.68464974 305.33379695 22.52746217 297.72117848 21.88632202 288.98542786 C21.79069147 287.7655194 21.69506091 286.54561095 21.59653246 285.28873557 C21.33327933 281.9107915 21.07688075 278.532454 20.82337999 275.15377247 C20.54809593 271.50714237 20.26397465 267.86119955 19.98094177 264.21516418 C19.42817773 257.07662269 18.88349367 249.93748651 18.3414378 242.79812483 C17.71006112 234.48701262 17.07023699 226.17655731 16.42994244 217.86612817 C15.28804415 203.04215505 14.15313649 188.21765526 13.02246094 173.39282227 C11.92474136 159.00024794 10.82316994 144.60797624 9.71679688 130.21606445 C9.64862142 129.32921232 9.58044597 128.44236019 9.5102046 127.52863375 C9.23617573 123.96411332 8.96213068 120.39959413 8.68806156 116.8350768 C7.50701468 101.47355107 6.32865226 86.11181918 5.15108401 70.75002643 C5.02397399 69.09185348 4.89685291 67.43368138 4.76972097 65.7755101 C3.98162176 55.49620363 3.19488449 45.21679472 2.41064644 34.93719292 C2.19184379 32.06966948 1.97251766 29.20218686 1.75271797 26.33473969 C1.4537765 22.43446352 1.15663513 18.53405148 0.85971069 14.63362122 C0.77158312 13.48694987 0.68345555 12.34027852 0.59265745 11.15885955 C0.51377275 10.11853472 0.43488805 9.07820988 0.3536129 8.00636005 C0.2848285 7.10549838 0.21604411 6.20463671 0.14517534 5.2764762 C0.03319663 3.52055214 0 1.75949099 0 0 Z " fill="#000000" transform="translate(34,179)"/>
<path d="M0 0 C3.49448945 0.00513897 6.9889695 0.000347 10.48345947 -0.00277233 C16.34676021 -0.00638935 22.21001022 -0.0016729 28.07330322 0.00790882 C34.80800951 0.01878898 41.54259461 0.01526178 48.27729797 0.00425601 C54.10713217 -0.00488199 59.93693035 -0.00607062 65.76676941 -0.00086665 C69.2278542 0.00221758 72.68888244 0.0027621 76.14996338 -0.00393963 C107.05834437 -0.04501731 136.34195849 2.24177798 160.05767822 24.26865101 C161.4266626 25.50035023 161.4266626 25.50035023 162.82330322 26.75693226 C179.910039 42.86523764 190.74942926 65.05938813 191.52105713 88.67587757 C191.53314209 89.46961781 191.54522705 90.26335804 191.55767822 91.08115101 C191.5762085 91.84008656 191.59473877 92.5990221 191.61383057 93.3809557 C191.57295718 96.92171333 191.35411567 98.88777749 189.15142822 101.71786976 C185.93607231 104.0993927 184.17277498 104.39455704 180.2184248 104.40007877 C178.67567435 104.40584049 178.67567435 104.40584049 177.10175723 104.41171861 C175.96316376 104.41085212 174.8245703 104.40998564 173.651474 104.4090929 C172.44864503 104.41206403 171.24581607 104.41503515 170.00653774 104.4180963 C166.65722951 104.4252922 163.30797255 104.42795683 159.95866024 104.42869377 C156.35051656 104.43054135 152.74238407 104.43808719 149.13424683 104.44482899 C141.23965475 104.45842516 133.34506775 104.46443905 125.45046592 104.46883965 C120.52328429 104.47159996 115.59610463 104.47583693 110.66892433 104.48034382 C97.03355247 104.49253828 83.39818218 104.50283717 69.76280499 104.50621891 C68.45312908 104.50654826 68.45312908 104.50654826 67.11699509 104.50688426 C65.80414084 104.50721168 65.80414084 104.50721168 64.4647643 104.50754571 C62.69112948 104.50798918 60.91749467 104.50843574 59.14385986 104.50888538 C58.26407106 104.50910681 57.38428226 104.50932824 56.47783319 104.50955638 C42.21939046 104.5135051 27.96099882 104.53096057 13.70257583 104.55424491 C-0.92778423 104.57794424 -15.55811863 104.59042012 -30.1884982 104.59158683 C-38.40636201 104.5925044 -46.62415927 104.59827731 -54.84200478 104.61640644 C-61.83933756 104.63178834 -68.83658323 104.63693924 -75.8339297 104.62866834 C-79.40517358 104.62475498 -82.97624195 104.62572456 -86.54746437 104.63972569 C-90.41677477 104.65475696 -94.2858366 104.64661832 -98.15516663 104.63614368 C-99.28706793 104.64420009 -100.41896923 104.65225649 -101.58517057 104.66055703 C-103.13965588 104.65067227 -103.13965588 104.65067227 -104.72554493 104.64058781 C-105.61870216 104.6411849 -106.51185939 104.64178198 -107.432082 104.64239717 C-110.52033165 104.18259191 -112.40969042 103.06376623 -114.94232178 101.26865101 C-119.73001914 94.08710497 -116.4858038 82.13960121 -114.94232178 74.26865101 C-111.46964633 59.41971365 -104.9760052 45.82453854 -94.94232178 34.26865101 C-94.27716553 33.46040882 -93.61200928 32.65216663 -92.92669678 31.81943226 C-76.82171712 12.9047709 -54.0554401 2.77644323 -29.65928459 0.46135044 C-19.80320869 -0.23768755 -9.87460286 -0.01912029 0 0 Z M-12.94232178 23.26865101 C-13.38037268 27.21110918 -13.5870766 29.3936266 -11.19232178 32.64365101 C-6.81814023 35.80278212 -2.22569015 35.6791119 3.05767822 35.26865101 C6.09516009 34.45865585 7.61816927 33.69300448 9.87017822 31.51865101 C11.46007478 28.50621542 11.54799952 26.63085417 11.05767822 23.26865101 C8.82561391 20.42084482 7.50774824 19.41867435 4.05767822 18.26865101 C-3.07391674 17.64010366 -7.7149051 18.04123433 -12.94232178 23.26865101 Z M39.05767822 47.26865101 C37.61336968 50.1572681 37.68079317 52.06512802 38.05767822 55.26865101 C39.54397875 58.42905756 39.54397875 58.42905756 43.05767822 60.26865101 C49.32015712 61.19531853 54.97435297 61.58037432 60.43267822 58.14365101 C62.37107347 54.7141825 62.86341341 53.13617989 62.05767822 49.26865101 C60.50580502 46.12798004 60.50580502 46.12798004 57.05767822 44.26865101 C50.40516689 43.36574934 44.61671324 43.15979904 39.05767822 47.26865101 Z M-36.92279053 55.56552601 C-39.30392589 58.19028421 -39.30392589 58.19028421 -38.94232178 61.89365101 C-37.80936515 65.75085563 -37.80936515 65.75085563 -34.94232178 68.26865101 C-29.46265313 70.09520723 -23.30727008 70.13740753 -17.87982178 68.14365101 C-15.26583352 65.61398495 -14.50641012 63.86471422 -13.94232178 60.26865101 C-15.47144257 55.94248821 -15.47144257 55.94248821 -18.94232178 53.26865101 C-21.39926086 53.06511759 -23.79474831 52.94524454 -26.25482178 52.89365101 C-27.57095459 52.84466663 -28.8870874 52.79568226 -30.24310303 52.74521351 C-34.07006026 52.9764246 -34.07006026 52.9764246 -36.92279053 55.56552601 Z " fill="#000000" transform="translate(303.94232177734375,220.73134899139404)"/>
<path d="M0 0 C1.03248239 -0.00583219 2.06496479 -0.01166439 3.12873453 -0.01767331 C4.8278862 -0.01200433 4.8278862 -0.01200433 6.56136417 -0.00622082 C7.76590199 -0.01004636 8.97043981 -0.01387191 10.21147877 -0.01781338 C13.55632774 -0.02635766 16.90095733 -0.02590558 20.24580014 -0.02163279 C23.8525513 -0.01916988 27.45927642 -0.02817429 31.0660181 -0.03567028 C38.13245871 -0.04843134 45.19886134 -0.05020923 52.26531153 -0.04787002 C58.00793176 -0.04608831 63.75054045 -0.04783333 69.49315929 -0.05209446 C70.30990529 -0.05268965 71.12665128 -0.05328484 71.96814715 -0.05389806 C73.62726736 -0.05510979 75.28638757 -0.05632392 76.94550777 -0.05754044 C92.51099452 -0.06842135 108.07645961 -0.06625085 123.64194757 -0.06015559 C137.88733379 -0.05498564 152.13265164 -0.06624296 166.37802433 -0.08525381 C180.99941204 -0.10461714 195.62076739 -0.11289088 210.24216801 -0.10913056 C218.4532897 -0.10721626 226.66435319 -0.10972829 234.87546444 -0.1238451 C241.86543563 -0.1357407 248.85531279 -0.13718431 255.84528523 -0.12505493 C259.41248798 -0.11915345 262.97951859 -0.11810163 266.54671001 -0.13005733 C270.41154398 -0.14286023 274.2761152 -0.13248186 278.14095402 -0.11974621 C279.83675961 -0.13080764 279.83675961 -0.13080764 281.5668239 -0.14209253 C282.60191404 -0.13488598 283.63700418 -0.12767944 284.70346069 -0.12025452 C285.59553378 -0.12030953 286.48760687 -0.12036455 287.40671247 -0.12042123 C290.49459472 0.34116795 292.39021184 1.44694321 294.91465092 3.25447559 C298.80618685 11.03754747 296.8501433 26.95538902 294.35215092 35.00447559 C288.45086108 49.25039632 278.92042586 59.74590959 264.91465092 66.25447559 C258.27885383 68.67812148 252.29130251 69.69263904 245.25098515 69.64215565 C243.87267004 69.65023395 243.87267004 69.65023395 242.46651018 69.65847546 C239.41604343 69.67267672 236.36601545 69.66567072 233.31552982 69.65852833 C231.11680092 69.664236 228.91807498 69.6712018 226.71935368 69.67932606 C220.76680768 69.69722901 214.81440934 69.69609436 208.86184454 69.69038367 C203.88435065 69.68728754 198.90688495 69.69338904 193.92939508 69.69942242 C181.51180199 69.71425821 169.09427434 69.71066214 156.67668442 69.69855911 C145.91536096 69.68863019 135.15420952 69.70156534 124.39291258 69.7254933 C113.31839724 69.74993042 102.24396577 69.7590819 91.16942441 69.75284058 C84.9618428 69.74947609 78.75440326 69.75185242 72.54684162 69.76909161 C66.70755904 69.78460109 60.8686039 69.78056054 55.02933407 69.76178646 C52.8928906 69.75811163 50.75642265 69.76117659 48.62000179 69.77167225 C30.47768807 69.85395923 15.63564399 67.20403479 1.91465092 54.25447559 C-7.73812162 42.61804268 -12.22196726 30.37096725 -12.33534908 15.19197559 C-12.35597408 14.49781544 -12.37659908 13.80365528 -12.39784908 13.08845997 C-12.43182946 8.61579249 -11.93185013 5.74849151 -9.08534908 2.25447559 C-5.99023449 0.32340083 -3.61738246 0.00351545 0 0 Z " fill="#000000" transform="translate(199.08534908294678,425.7455244064331)"/>
<path d="M0 0 C1.02042469 -0.00445668 1.02042469 -0.00445668 2.06146401 -0.0090034 C4.34601668 -0.01769026 6.63051695 -0.01919863 8.91508484 -0.02069092 C10.55109265 -0.0253191 12.18709939 -0.03034376 13.82310486 -0.03573608 C18.2715349 -0.04886207 22.71994985 -0.05530543 27.16839623 -0.05974674 C29.94727993 -0.06267715 32.7261595 -0.0667819 35.50504112 -0.07125092 C44.1985886 -0.08492638 52.89212664 -0.09459279 61.58568412 -0.09845281 C71.62285332 -0.10293381 81.65988636 -0.12048345 91.69701415 -0.1494534 C99.45421958 -0.17106607 107.21138669 -0.18115687 114.96862191 -0.18249393 C119.60221507 -0.18354225 124.23568024 -0.18945594 128.86924171 -0.20731354 C133.22850869 -0.22378704 137.58755137 -0.22595326 141.94683838 -0.21717453 C143.54559619 -0.21640377 145.14436603 -0.22075206 146.74309349 -0.23063278 C148.92844243 -0.24334546 151.11299615 -0.23747987 153.29833984 -0.22705078 C155.13147216 -0.22925062 155.13147216 -0.22925062 157.00163746 -0.2314949 C162.22751702 0.35079758 166.10822558 2.69180102 170.07402039 6.03106689 C170.72556091 6.57271484 171.37710144 7.11436279 172.04838562 7.67242432 C172.72200134 8.23937012 173.39561707 8.80631592 174.08964539 9.39044189 C187.83816451 21.65784259 187.83816451 21.65784259 205.21464539 24.76544189 C212.591157 22.43677843 218.54435792 16.62486104 224.42558289 11.79278564 C225.13456726 11.21117676 225.84355164 10.62956787 226.57402039 10.03033447 C227.9786377 8.8722621 229.37731743 7.70694228 230.76933289 6.53375244 C231.41902039 5.99403809 232.06870789 5.45432373 232.73808289 4.89825439 C233.3121991 4.41501709 233.88631531 3.93177979 234.47782898 3.43389893 C239.10299248 0.22066575 243.47964667 -0.17781223 248.98417664 -0.19549561 C249.71279404 -0.2021524 250.44141144 -0.2088092 251.19210815 -0.21566772 C252.72929881 -0.22575993 254.26653297 -0.23048581 255.80375671 -0.23016357 C258.13482851 -0.2345257 260.46398755 -0.27084667 262.79472351 -0.30877686 C270.47177934 -0.36716006 276.81504004 -0.38869405 283.33964539 4.14044189 C288.23523012 9.28708226 288.63584929 13.56154646 288.55448914 20.41387939 C288.16643706 25.33861306 286.4753642 28.09208607 282.90214539 31.39044189 C278.93610706 34.09895588 276.29462467 35.39000007 271.44449806 35.39491749 C270.45443311 35.40074968 269.46436816 35.40658188 268.44430125 35.4125908 C267.35890696 35.40881148 266.27351268 35.40503215 265.15522766 35.40113831 C264.00039804 35.40496385 262.84556842 35.4087894 261.65574396 35.41273087 C258.44967235 35.42127354 255.24374667 35.42082362 252.03767109 35.41655028 C248.58018595 35.41408692 245.12272794 35.42309238 241.66525269 35.43058777 C234.89124829 35.44334799 228.11728351 35.44512679 221.34326912 35.44278751 C215.83759479 35.44100555 210.3319325 35.44275135 204.82625961 35.44701195 C203.65153021 35.44790473 203.65153021 35.44790473 202.4530689 35.44881555 C200.86215843 35.45002729 199.27124795 35.45124142 197.68033747 35.45245793 C182.75481055 35.4633387 167.8293062 35.46116852 152.903778 35.45507308 C139.24752007 35.44990423 125.59133348 35.46115755 111.93508966 35.4801713 C97.91599345 35.49954075 83.89693101 35.50780722 69.87782133 35.50404805 C62.00592729 35.50213454 54.13409397 35.50463802 46.26221085 35.51876259 C39.56029163 35.53066604 32.85847049 35.53209302 26.15654995 35.51997242 C22.73706512 35.51407621 19.31775978 35.51300457 15.89828682 35.52497482 C12.19136703 35.53538535 8.48493241 35.52738682 4.7780304 35.5146637 C3.69709756 35.52203798 2.61616472 35.52941227 1.50247633 35.53701001 C-3.9618391 35.49744446 -7.98105952 35.29485215 -12.66035461 32.14044189 C-16.99118902 27.61275138 -19.33125133 24.04752092 -20.03535461 17.82794189 C-19.42386828 11.81499293 -17.19805861 7.18366705 -12.59785461 3.20294189 C-8.23421454 0.1391095 -5.22189913 0.0127223 0 0 Z " fill="#000000" transform="translate(206.6603546142578,374.85955810546875)"/>
<path d="M0 0 C1.28448235 -0.00761181 1.28448235 -0.00761181 2.59491384 -0.0153774 C3.53604705 -0.01587516 4.47718026 -0.01637292 5.44683266 -0.01688576 C6.44633843 -0.02126801 7.4458442 -0.02565027 8.47563803 -0.03016531 C11.84043793 -0.04356976 15.20521164 -0.04973582 18.57003212 -0.0558567 C20.97612566 -0.0637562 23.382218 -0.07202506 25.7883091 -0.08063698 C33.01887576 -0.1046043 40.2494442 -0.11978468 47.48003668 -0.13269705 C49.52185624 -0.13640921 51.56367513 -0.1403824 53.60549402 -0.14444971 C66.2829893 -0.16968188 78.96048565 -0.19173642 91.63800049 -0.20417786 C94.5738405 -0.20710757 97.50968047 -0.21006924 100.4455204 -0.21308327 C101.17521296 -0.21382932 101.90490553 -0.21457537 102.65670998 -0.21534403 C114.48372502 -0.22800432 126.31058996 -0.26123748 138.13753478 -0.3028851 C150.27737814 -0.34528464 162.41714458 -0.36887041 174.55706179 -0.37409842 C181.37434762 -0.37751435 188.19139867 -0.38929098 195.00861168 -0.42220116 C201.4190032 -0.45309678 207.82909722 -0.45862968 214.23955536 -0.4468174 C216.59503199 -0.44659583 218.9505271 -0.45496906 221.30593872 -0.47247124 C224.51656985 -0.49503388 227.7256977 -0.48692702 230.93633461 -0.47098732 C231.87300638 -0.48486941 232.80967814 -0.49875149 233.7747339 -0.51305425 C238.27791394 -0.45779563 240.2037596 -0.33599363 243.87370682 2.4875145 C247.64526398 7.62553879 247.3013648 12.99231859 246.81856728 19.13701439 C245.65312442 22.63334297 245.03634411 24.44652981 241.8149662 26.27306461 C237.54474351 27.50429518 233.48700553 27.41581012 229.06368446 27.3977108 C227.58023851 27.40344912 227.58023851 27.40344912 226.06682396 27.40930337 C222.74964282 27.41963049 219.43263486 27.41564174 216.11544228 27.41167259 C213.73860959 27.41601918 211.36177831 27.42120214 208.98494911 27.42716026 C203.19734664 27.43917349 197.40979818 27.44170114 191.62218475 27.43936 C186.91839392 27.4375768 182.21461717 27.43932651 177.51082802 27.44358444 C176.50655348 27.44447723 176.50655348 27.44447723 175.48199058 27.44538805 C174.1218729 27.44659979 172.76175523 27.44781393 171.40163755 27.44903042 C158.64838293 27.45990529 145.89515475 27.45774354 133.14189863 27.45164558 C121.47348076 27.44647475 109.80514634 27.45773629 98.13674498 27.47674379 C86.15503315 27.49611207 74.17336081 27.50438008 62.19163322 27.50062054 C55.46499574 27.49870718 48.7384293 27.50120932 42.01180458 27.51533508 C35.68840903 27.52787816 29.36518098 27.52600267 23.0417881 27.51292419 C20.71857586 27.51055131 18.39535197 27.51331841 16.07215309 27.52154732 C12.90572241 27.531956 9.73985993 27.52396122 6.57345009 27.51123619 C5.64981541 27.51861048 4.72618073 27.52598476 3.77455711 27.53358251 C-2.29439893 27.48211929 -5.77385084 26.54459628 -10.18143272 22.13701439 C-10.40741421 19.30197398 -10.50570376 16.59647922 -10.49393272 13.76201439 C-10.51004601 12.99373314 -10.52615929 12.22545189 -10.54276085 11.43388939 C-10.54573708 7.9933681 -10.49976739 5.72887415 -8.84940147 2.66045189 C-6.12355548 0.17080332 -3.52747511 0.01110381 0 0 Z " fill="#000000" transform="translate(27.181432723999023,135.8629856109619)"/>
<path d="M0 0 C1.21355935 -0.00694553 2.42711869 -0.01389106 3.67745256 -0.02104706 C7.04307764 -0.03618193 10.40781977 -0.03336492 13.77340531 -0.02289402 C17.4040246 -0.01590623 21.0345532 -0.03189666 24.66514587 -0.04489136 C31.77627067 -0.06654327 38.88723552 -0.06640153 45.99838245 -0.05826581 C51.77722207 -0.05196853 57.55601501 -0.05310034 63.33485413 -0.05953789 C64.15701535 -0.06043954 64.97917657 -0.0613412 65.82625178 -0.06227018 C67.49640446 -0.06412135 69.16655714 -0.06598392 70.8367098 -0.06785773 C86.50141971 -0.08444016 102.16603958 -0.07571304 117.83074409 -0.05887216 C132.16664964 -0.04417276 146.50234566 -0.05880613 160.83822423 -0.08764232 C175.55458106 -0.11702367 190.27084113 -0.12801243 204.98722601 -0.11846012 C206.65126894 -0.11743755 208.31531189 -0.11644294 209.97935486 -0.11547661 C211.20749823 -0.11476202 211.20749823 -0.11476202 212.46045259 -0.114033 C218.23303612 -0.11186731 224.00552819 -0.1216811 229.77809143 -0.13624763 C236.81201743 -0.15374936 243.84567619 -0.15368481 250.87959158 -0.13089598 C254.46918182 -0.1197342 258.05830084 -0.11663427 261.64787102 -0.13519669 C265.53689821 -0.15504912 269.42518475 -0.13626037 273.31420898 -0.11352539 C274.45184582 -0.12536112 275.58948266 -0.13719685 276.76159334 -0.14939123 C285.25613729 -0.04807045 285.25613729 -0.04807045 288.35797882 2.922822 C291.14433579 6.93688077 290.8431693 8.71221001 290.15710449 13.5146637 C288.28695355 15.94585992 286.87572104 17.15535542 284.15710449 18.5146637 C282.82125514 18.61180221 281.48084073 18.65011925 280.14147949 18.6565094 C279.31301514 18.66354385 278.48455078 18.67057831 277.63098145 18.67782593 C276.73210205 18.6819902 275.83322266 18.68615448 274.90710449 18.69044495 C272.99954163 18.71366423 271.09198954 18.73778238 269.18444824 18.76271057 C266.18063374 18.79766138 263.17720977 18.82707322 260.17321777 18.84059143 C257.27152953 18.85620223 254.37098518 18.89651634 251.46960449 18.94044495 C250.58691895 18.93853653 249.7042334 18.93662811 248.7947998 18.93466187 C239.49124824 19.11438258 232.00374494 22.31752829 224.84460449 28.1396637 C224.039021 28.77738708 224.039021 28.77738708 223.21716309 29.42799377 C220.33349184 31.71407588 217.50457612 34.06111063 214.68444824 36.42481995 C214.11444092 36.89001038 213.54443359 37.35520081 212.95715332 37.83448792 C211.36741862 39.13250479 209.79680725 40.45384002 208.22741699 41.77638245 C205.15710449 43.5146637 205.15710449 43.5146637 201.66491699 43.6006012 C197.55949637 42.32965806 194.98186695 40.32630471 191.90710449 37.4521637 C190.77274864 36.4468869 189.63599373 35.4443112 188.49694824 34.4443512 C187.93604492 33.94773987 187.3751416 33.45112854 186.79724121 32.93946838 C184.4285963 30.88180067 181.97715477 28.96227241 179.46960449 27.0771637 C178.6819873 26.48032776 177.89437012 25.88349182 177.08288574 25.26856995 C167.22087351 19.35662937 158.23392346 18.94553094 147.03674316 19.01637268 C145.31925995 19.0125441 143.60177995 19.00692047 141.88430786 18.99964905 C138.20389289 18.98774812 134.52376346 18.98814885 130.84334373 18.99824333 C125.02321051 19.01386211 119.20336821 19.00008778 113.383255 18.98220825 C102.08669707 18.95146037 90.79022914 18.94988536 79.49363708 18.95185852 C65.09625518 18.95325378 50.69894181 18.94293209 36.30161077 18.90328079 C30.51579071 18.88834527 24.73022994 18.88861771 18.94440591 18.90075862 C15.34955258 18.90546508 11.75479885 18.89795742 8.1599617 18.88721466 C6.49305589 18.88480638 4.82613348 18.88755142 3.15924644 18.89582253 C0.88415495 18.90643726 -1.39017069 18.89869809 -3.66523743 18.88647461 C-4.93815045 18.88706092 -6.21106348 18.88764723 -7.52254963 18.8882513 C-11.10328193 18.48536641 -12.9724502 17.64484984 -15.84289551 15.5146637 C-17.92896477 12.85966646 -17.84169006 11.44715866 -17.78039551 8.0146637 C-16.84289551 4.5146637 -16.84289551 4.5146637 -15.02448273 2.32808018 C-10.14594903 -0.45254873 -5.5239001 -0.0400138 0 0 Z " fill="#000000" transform="translate(204.8428955078125,340.48533630371094)"/>
<path d="M0 0 C0.77576482 -0.00538554 1.55152964 -0.01077108 2.35080248 -0.01631981 C4.9525809 -0.03063754 7.55385328 -0.02348639 10.15565491 -0.01637268 C12.02003387 -0.02207426 13.88440935 -0.0290377 15.7487793 -0.03717041 C20.81488246 -0.05514043 25.88081279 -0.0539262 30.94693828 -0.04822803 C35.17422379 -0.0451417 39.40147583 -0.05122242 43.62875658 -0.05726677 C53.60031601 -0.07132304 63.57178978 -0.06974156 73.54335022 -0.05836487 C83.83513106 -0.0468824 94.12665135 -0.06095904 104.41839784 -0.08776134 C113.25077399 -0.10990302 122.08306825 -0.11655918 130.91547018 -0.11068493 C136.19233631 -0.1073105 141.4690354 -0.10976266 146.74587822 -0.12693596 C151.7076707 -0.14237857 156.66907659 -0.13847937 161.63085365 -0.11963081 C163.45255839 -0.11593748 165.2742916 -0.119075 167.09597015 -0.1295166 C169.58176237 -0.14267767 172.06626556 -0.13122334 174.55200195 -0.11352539 C175.27398944 -0.1231304 175.99597693 -0.1327354 176.73984283 -0.14263147 C181.54675447 -0.07214879 183.97129733 0.97682259 187.3394928 4.38768005 C189.14027405 7.33299255 189.14027405 7.33299255 190.6519928 10.51268005 C191.16375061 11.56713318 191.67550842 12.6215863 192.20277405 13.70799255 C193.3394928 16.38768005 193.3394928 16.38768005 193.3394928 18.38768005 C123.3794928 18.38768005 53.4194928 18.38768005 -18.6605072 18.38768005 C-17.32919568 14.39374549 -16.24884576 11.28296029 -14.2855072 7.70018005 C-13.88589783 6.95381287 -13.48628845 6.20744568 -13.0745697 5.4384613 C-9.56011237 0.34152733 -5.89590206 -0.04892812 0 0 Z " fill="#000000" transform="translate(57.66050720214844,101.61231994628906)"/>
<path d="M0 0 C6.88333389 0.10790933 13.41187051 1.69132726 19.98828125 3.58203125 C20.89450729 3.83748215 21.80073334 4.09293304 22.73442078 4.35612488 C24.63220039 4.89398719 26.52874626 5.43622053 28.42407227 5.98266602 C31.31835432 6.81418192 34.21823928 7.62356214 37.11914062 8.43164062 C38.97173214 8.95961305 40.82395943 9.48886551 42.67578125 10.01953125 C43.96806389 10.37758598 43.96806389 10.37758598 45.28645325 10.74287415 C49.97381558 12.11575876 53.42605997 13.50010386 57 17 C58.23080509 19.46161017 58.12043977 21.06496993 58.11352539 23.81689453 C58.11344986 24.81778107 58.11337433 25.8186676 58.11329651 26.84988403 C58.10813522 27.93325043 58.10297394 29.01661682 58.09765625 30.1328125 C58.0962413 31.23978485 58.09482635 32.3467572 58.09336853 33.48727417 C58.08775772 37.03320993 58.07520337 40.57908323 58.0625 44.125 C58.05748639 46.52473867 58.05292325 48.92447833 58.04882812 51.32421875 C58.03778478 57.21617001 58.02051286 63.1080744 58 69 C52.06 69 46.12 69 40 69 C39.93941406 66.44765625 39.87882812 63.8953125 39.81640625 61.265625 C39.7545741 58.79001021 39.69120413 56.31443922 39.62768555 53.83886719 C39.58440984 52.12015695 39.54272959 50.40140576 39.50268555 48.68261719 C39.44480435 46.210161 39.38116164 43.73790953 39.31640625 41.265625 C39.29969376 40.49881409 39.28298126 39.73200317 39.26576233 38.94195557 C39.16987135 35.47826016 38.92084138 32.33633749 38 29 C37.37416016 28.83056885 36.74832031 28.6611377 36.10351562 28.48657227 C28.22358739 26.34612471 20.35792143 24.15732162 12.5 21.9375 C10.60894531 21.4105957 10.60894531 21.4105957 8.6796875 20.87304688 C7.47570312 20.53208984 6.27171875 20.19113281 5.03125 19.83984375 C3.40026367 19.38146118 3.40026367 19.38146118 1.73632812 18.91381836 C-1 18 -1 18 -4 16 C-4.68981164 10.25156965 -3.23485798 6.18487051 -1 1 C-0.67 0.67 -0.34 0.34 0 0 Z " fill="#000000" transform="translate(96,17)"/>
</svg>
