<?xml version="1.0" encoding="UTF-8"?>
<svg version="1.1" xmlns="http://www.w3.org/2000/svg" width="512" height="512">
<path d="M0 0 C1.87522956 -0.00299604 3.7504585 -0.00639959 5.62568665 -0.01017761 C10.69592261 -0.01897474 15.76614168 -0.02135386 20.83638453 -0.0219934 C24.008825 -0.02270613 27.18126123 -0.02484462 30.35370064 -0.02749062 C41.43437089 -0.03672856 52.51502915 -0.04082729 63.59570312 -0.04003906 C73.90445444 -0.0394381 84.21315345 -0.04999757 94.52189153 -0.06578273 C103.39183323 -0.07887805 112.26175787 -0.08422215 121.13170916 -0.08358365 C126.42092867 -0.08332933 131.71010162 -0.08614436 136.99931145 -0.0967617 C141.97422973 -0.10647673 146.94905724 -0.10649859 151.92397881 -0.09924507 C153.74317051 -0.09820359 155.56236796 -0.10053605 157.38154984 -0.10660553 C174.47959495 -0.15992968 189.04641563 0.8164678 202.12353516 13.20874023 C202.67417161 13.72410465 203.22480806 14.23946907 203.79213047 14.77045059 C212.08952361 22.59530668 220.12616333 30.69260872 228.19165039 38.75463867 C229.97466603 40.53443342 231.7577535 42.31415622 233.54090881 44.09381104 C237.25316074 47.8001159 240.96338189 51.50843996 244.67236328 55.21801758 C248.94128006 59.48753769 253.2157776 63.7514144 257.4928512 68.01276183 C261.64114608 72.14635588 265.78384944 76.28551676 269.92450142 80.42676544 C271.67350292 82.17459147 273.42411561 83.92080683 275.17640495 85.66533661 C277.62370158 88.10279562 280.0645339 90.54655728 282.50390625 92.99194336 C283.21932083 93.70173843 283.93473541 94.41153351 284.67182922 95.14283752 C296.82910977 107.37611362 302.58131028 118.7494576 302.68179345 136.20953029 C302.67733201 137.16538637 302.67287056 138.12124244 302.66827393 139.10606384 C302.67139391 140.15238513 302.67451389 141.19870642 302.67772841 142.27673441 C302.68565036 145.7524195 302.67940747 149.22792716 302.6730957 152.70361328 C302.67580816 155.20790203 302.67937052 157.71218999 302.68371582 160.21647644 C302.69186913 166.29437652 302.69070284 172.37220801 302.68489054 178.45010536 C302.68036029 183.3934893 302.67976702 188.33685941 302.68193817 193.28024483 C302.68224464 193.98578224 302.6825511 194.69131965 302.68286686 195.41823699 C302.68350636 196.85186334 302.68415478 198.28548969 302.68481204 199.71911604 C302.69050556 213.14026179 302.68397305 226.56138016 302.67321131 239.98252142 C302.66427863 251.47810742 302.6658274 262.97365301 302.67504883 274.46923828 C302.68577214 287.84321191 302.68995428 301.21716157 302.6838243 314.5911389 C302.68318726 316.01958151 302.68255851 317.44802413 302.68193817 318.87646675 C302.68162962 319.57914557 302.68132107 320.28182439 302.68100317 321.0057965 C302.67928226 325.93805844 302.68217829 330.87030506 302.68689728 335.80256462 C302.69311966 342.45187526 302.68863629 349.10112176 302.67710876 355.75042915 C302.67447304 358.18519591 302.6752086 360.61996911 302.67963409 363.05473328 C302.68513407 366.38906736 302.67820159 369.72316091 302.66827393 373.05747986 C302.67273537 374.01110521 302.67719681 374.96473056 302.68179345 375.94725364 C302.57982939 393.71563036 297.8579873 408.34676426 285.60180664 421.39526367 C277.01759604 429.59905646 264.5655735 436.25439149 252.48906708 436.27948475 C250.99384466 436.28617151 250.99384466 436.28617151 249.46841574 436.29299337 C247.82895412 436.29271682 247.82895412 436.29271682 246.15637207 436.29243469 C244.99352519 436.29611138 243.8306783 436.29978807 242.63259363 436.30357617 C239.4039419 436.31269423 236.17532005 436.31731079 232.94665766 436.31996548 C229.46452198 436.32387265 225.98240096 436.33345082 222.50027466 436.34217834 C214.089504 436.36193291 205.67873216 436.37200848 197.2679441 436.38090613 C193.3046306 436.38529139 189.34131843 436.39065765 185.37800598 436.395895 C172.19807971 436.4129076 159.01815426 436.42740038 145.83821869 436.43464375 C142.41859435 436.43655357 138.99897002 436.43847391 135.5793457 436.44042969 C134.72943961 436.44091343 133.87953352 436.44139717 133.00387269 436.44189557 C119.24495726 436.45019066 105.4861289 436.47551862 91.72725147 436.50801037 C77.59287004 436.54111593 63.45853281 436.55909573 49.32411242 436.56228799 C41.39163342 436.56445004 33.45928135 436.57315369 25.52684021 436.59874916 C18.76908793 436.62050415 12.01149342 436.62848315 5.25371009 436.61878238 C1.80911905 436.61425125 -1.63514683 436.61605374 -5.07969284 436.63554382 C-8.82403043 436.65328006 -12.56755085 436.6461467 -16.31188965 436.63301086 C-17.9245826 436.64946473 -17.9245826 436.64946473 -19.56985521 436.666251 C-33.84659016 436.54587181 -47.11961444 430.63686864 -57.46069336 420.83276367 C-66.14191422 411.57070163 -72.69792093 399.13069309 -72.71991444 386.2673645 C-72.7266012 384.45341139 -72.7266012 384.45341139 -72.73342305 382.60281277 C-72.73333376 381.2590529 -72.73314391 379.91529304 -72.73286438 378.5715332 C-72.73616409 377.14532655 -72.73988988 375.71912083 -72.74400586 374.2929163 C-72.75402206 370.36877353 -72.75774205 366.44464606 -72.76039517 362.52049232 C-72.76429941 358.28988479 -72.77387775 354.05928937 -72.78260803 349.82868958 C-72.80237029 339.60848413 -72.8124389 329.3882777 -72.82133582 319.16805792 C-72.8257196 314.35399149 -72.83108623 309.53992616 -72.83632469 304.7258606 C-72.85333766 288.72022225 -72.8678311 272.71458459 -72.87507343 256.7089386 C-72.8769833 252.5553894 -72.87890364 248.4018402 -72.88085938 244.24829102 C-72.88134312 243.21595742 -72.88182686 242.18362383 -72.88232525 241.1200074 C-72.8906228 224.40266351 -72.91595476 207.68539124 -72.94844005 190.96807861 C-72.98152752 173.80074421 -72.99952377 156.63344617 -73.00271767 139.46607971 C-73.00488134 129.82892415 -73.01360883 120.19187299 -73.03917885 110.55474854 C-73.06090899 102.34590089 -73.06892493 94.137183 -73.05921207 85.92830986 C-73.0546739 81.74249319 -73.05652519 77.55694412 -73.07597351 73.37116432 C-73.09365313 69.53276664 -73.09256903 65.69483082 -73.07707622 61.85642791 C-73.07359242 59.82348491 -73.08969059 57.7905368 -73.10668069 55.75766182 C-72.98871638 38.84619805 -66.47627879 25.89548806 -54.58569336 14.14526367 C-39.02754279 0.03509939 -19.75427896 -0.00631339 0 0 Z M-7.10913086 74.13354492 C-12.55542834 81.55376504 -12.57763335 89.12333332 -11.58569336 98.14526367 C-9.29076506 105.84602307 -4.34792332 112.41924024 2.65258789 116.42651367 C9.65414552 119.72136432 16.26719331 120.29408419 23.95639038 120.26551819 C25.22589788 120.26679983 25.22589788 120.26679983 26.521052 120.26810735 C29.34926147 120.2697509 32.17741126 120.26425922 35.00561523 120.25878906 C37.03603107 120.25850692 39.06644701 120.25866545 41.09686279 120.25923157 C46.60460524 120.25951849 52.11232592 120.25363864 57.6200633 120.24665761 C63.37761798 120.24040668 69.13517316 120.23981889 74.89273071 120.2386322 C85.79357045 120.23552402 96.69440015 120.22731753 107.59523547 120.21728271 C120.00626168 120.20610566 132.41728837 120.20060711 144.82831836 120.19558728 C170.35698668 120.18513451 195.8856461 120.16754498 221.41430664 120.14526367 C221.03034471 119.70392865 220.64638279 119.26259362 220.25078565 118.80788481 C217.1021021 115.16568259 214.08192183 111.47237578 211.17668152 107.63070679 C185.26683179 73.86442298 185.26683179 73.86442298 147.7427237 57.12705469 C130.01815439 55.01098524 112.01511078 56.04552637 94.26123989 57.28678966 C85.78138362 57.86794948 77.2996592 58.12028974 68.80438673 58.35798383 C55.59032848 58.7365005 42.39133781 59.2797453 29.19677734 60.09301758 C27.29199112 60.20477325 27.29199112 60.20477325 25.34872437 60.31878662 C11.81799533 61.2101147 1.71809829 63.23050618 -7.10913086 74.13354492 Z M22.98071289 189.91088867 C20.63405996 194.03580109 20.0221591 197.41493941 20.66430664 202.09057617 C22.69138119 207.64391583 26.25214736 211.05855353 30.94506836 214.4387207 C41.26167926 222.44498209 49.73750636 230.55933394 51.7980957 243.93334961 C52.95831422 253.29431256 52.89847418 262.71101665 52.65307617 272.12524414 C52.52740733 277.04058622 52.6291512 281.92143494 52.79004288 286.83462143 C53.25681347 303.57802057 53.65923351 319.37879914 41.79732323 332.31603432 C36.95624935 337.2407243 31.65795834 341.58729225 26.0920105 345.66409302 C22.52520692 348.96910688 20.67771105 352.42022534 20.19946289 357.36791992 C20.91771841 362.13268541 22.19303719 365.4016262 25.41430664 369.14526367 C29.79135604 372.06329661 33.19894435 372.78574676 38.41430664 372.14526367 C43.6862007 369.58483685 46.53075005 367.20281398 50.02197266 362.39794922 C59.127332 350.76270987 67.79675918 342.26011138 82.93213844 340.34318352 C91.43103733 339.53927822 99.94475536 339.58922417 108.46972656 339.83105469 C113.37739113 339.9681289 118.24951766 339.87331381 123.15546227 339.71771431 C139.90623368 339.26742611 155.66745452 338.93130225 168.62283039 350.76682186 C173.56784663 355.61008294 177.93905112 360.90463361 182.04566956 366.46855164 C185.49270435 370.36392234 188.72523459 371.93029087 193.85180664 372.58276367 C198.84423497 371.96965844 202.45657007 370.47151536 205.74243164 366.56713867 C208.37525793 362.45102996 209.11735302 359.06658834 208.41430664 354.14526367 C205.84679467 348.87712995 203.47264922 346.02939593 198.66699219 342.53759766 C187.03175284 333.43223831 178.52915435 324.76281114 176.61222649 309.62743187 C175.80832119 301.12853298 175.85826713 292.61481495 176.10009766 284.08984375 C176.23717187 279.18217919 176.14235677 274.31005266 175.98675728 269.40410805 C175.53646908 252.65333663 175.20034522 236.8921158 187.03586483 223.93673992 C191.87912591 218.99172368 197.17367658 214.62051919 202.7375946 210.51390076 C206.60335038 207.09307238 208.16335303 203.83920055 208.91430664 198.77026367 C208.25414788 193.98411266 206.54253203 190.80034808 203.41430664 187.14526367 C199.09644207 184.1415318 195.6173616 183.42760092 190.41430664 184.14526367 C184.87284486 186.40024286 181.50087834 190.08149107 177.92553711 194.77368164 C169.92241902 205.05682624 161.99962681 213.46361458 148.6340332 215.52514648 C139.26997196 216.68774093 129.85188133 216.62946647 120.43432617 216.3840332 C115.51898917 216.2583645 110.63814553 216.36010756 105.72496414 216.52099991 C88.96597049 216.9882028 73.1695079 217.37322262 60.20120811 205.52828026 C55.25614494 200.68473976 50.88632142 195.38878689 46.7819519 189.82296753 C43.54311996 186.15998941 40.36155888 184.44158466 35.53930664 183.70776367 C30.5365352 184.40815167 26.24541555 185.89005597 22.98071289 189.91088867 Z " fill="#000000" transform="translate(72.585693359375,75.854736328125)"/>
<path d="M0 0 C1.83231422 -0.01902626 1.83231422 -0.01902626 3.7016449 -0.03843689 C5.01319046 -0.03550125 6.32473602 -0.03256561 7.67602539 -0.02954102 C9.04456338 -0.034106 10.41309908 -0.03941252 11.78163147 -0.04542542 C14.64553152 -0.05434441 17.50915254 -0.05194768 20.37304688 -0.04199219 C24.03275055 -0.03050638 27.69148875 -0.0507126 31.35106564 -0.07990932 C34.17621419 -0.09830713 37.00113291 -0.09797182 39.82632637 -0.0922718 C41.82817324 -0.09204502 43.82999862 -0.10891078 45.83177185 -0.12608337 C57.33042759 -0.03800567 57.33042759 -0.03800567 61.83618164 4.40405273 C66.37132404 10.13754165 65.31130127 16.86824069 65.27368164 23.84155273 C65.29366211 25.15188477 65.31364258 26.4622168 65.33422852 27.81225586 C65.33326172 29.71201172 65.33326172 29.71201172 65.33227539 31.65014648 C65.33412842 32.80184326 65.33598145 33.95354004 65.33789062 35.14013672 C64.58184027 40.05869499 62.36555032 43.26682987 58.39868164 46.21655273 C54.35859275 48.08878905 51.15940334 48.50417811 46.77270508 47.96240234 C38.24413135 47.17561768 31.97700859 47.99507573 25.17407227 53.51391602 C19.65902073 58.52492849 14.56391391 63.91729185 9.52972412 69.40588379 C7.10442224 72.02797034 4.62222208 74.59502738 2.14477539 77.16772461 C-2.68070504 82.19506297 -7.44204069 87.27923755 -12.16381836 92.40405273 C-17.7182176 87.77913895 -22.84907505 82.85044309 -27.94116211 77.72436523 C-28.75251114 76.91160126 -29.56386017 76.09883728 -30.39979553 75.26144409 C-32.96934426 72.68633535 -35.53537804 70.10775653 -38.10131836 67.52905273 C-39.85173765 65.77361328 -41.60238636 64.01840256 -43.35327148 62.26342773 C-47.62611138 57.97961191 -51.89607735 53.69294801 -56.16381836 49.40405273 C-51.45110184 43.74634205 -46.42396809 38.50341159 -41.22241211 33.29467773 C-40.37711441 32.44605164 -39.53181671 31.59742554 -38.66090393 30.7230835 C-36.88299609 28.94013694 -35.10375184 27.15852213 -33.32324219 25.37817383 C-30.60119791 22.65393219 -27.88726371 19.92177971 -25.17358398 17.18920898 C-23.44035 15.45304262 -21.70664226 13.71734905 -19.97241211 11.98217773 C-19.16396347 11.16654358 -18.35551483 10.35090942 -17.52256775 9.51055908 C-16.76150223 8.75257019 -16.00043671 7.9945813 -15.21630859 7.21362305 C-14.55267807 6.5485675 -13.88904755 5.88351196 -13.20530701 5.19830322 C-8.87983322 1.39667373 -5.78184356 0.02913499 0 0 Z " fill="#000000" transform="translate(415.163818359375,-0.404052734375)"/>
<path d="M0 0 C0.93328125 -0.04898438 1.8665625 -0.09796875 2.828125 -0.1484375 C9.94881127 1.12719346 14.06452915 8.02402135 18 13.5625 C18.55993652 14.3455249 19.11987305 15.1285498 19.69677734 15.93530273 C23.55784035 21.43816833 27.08944136 27.0737077 30.375 32.9375 C30.7762207 33.64994873 31.17744141 34.36239746 31.59082031 35.09643555 C37.64614698 46.26598803 39.52620555 56.90190376 37.1640625 69.5 C34.06583333 79.50529053 26.65129957 86.57414358 18.0859375 92.21875 C8.63518485 96.89671452 -4.1752324 97.06544095 -14.1875 93.9375 C-23.25707555 90.02297195 -30.88291859 82.19768474 -35.25 73.375 C-38.95852856 62.54455672 -38.5767472 51.2273538 -33.9921875 40.7890625 C-13.4208895 0.47669826 -13.4208895 0.47669826 0 0 Z " fill="#000000" transform="translate(474.25,155.625)"/>
<path d="M0 0 C23.1 0 46.2 0 70 0 C70 23.1 70 46.2 70 70 C46.9 70 23.8 70 0 70 C0 46.9 0 23.8 0 0 Z " fill="#000000" transform="translate(152,319)"/>
<path d="M0 0 C2.15239897 1.87778892 4.1556262 3.74477915 6.15722656 5.76904297 C6.74010437 6.34666382 7.32298218 6.92428467 7.92352295 7.51940918 C9.83680958 9.41955528 11.73898675 11.33038921 13.640625 13.2421875 C14.97203504 14.57157539 16.30389005 15.90051777 17.63616943 17.22903442 C20.42153074 20.00998065 23.20141326 22.79626092 25.97753906 25.58642578 C29.53391924 29.15991373 33.10362046 32.71974222 36.67752457 36.27569389 C39.42816805 39.01549188 42.17162007 41.76240121 44.91295624 44.51150894 C46.22645711 45.82700882 47.54218401 47.14028999 48.86017609 48.45129013 C50.70093056 50.28441598 52.53177803 52.12690186 54.36035156 53.97216797 C54.90477905 54.51052277 55.44920654 55.04887756 56.01013184 55.60354614 C60.78394445 60.45830023 62.18237407 64.06278249 62.36328125 70.83984375 C61.29762953 77.17646099 57.25436545 81.13717784 52.8125 85.375 C51.97428711 86.19291016 51.97428711 86.19291016 51.11914062 87.02734375 C49.75288448 88.35856769 48.37737443 89.6802831 47 91 C41.95972788 86.77769687 37.23088402 82.37012184 32.59594727 77.70947266 C31.892668 77.00633942 31.18938873 76.30320618 30.46479797 75.57876587 C28.16295302 73.27622958 25.86466098 70.97018187 23.56640625 68.6640625 C21.96237208 67.05816139 20.3581156 65.4524823 18.75364685 63.84701538 C14.5478393 59.63740446 10.34504457 55.42479819 6.1428833 51.21154785 C1.84773228 46.90613569 -2.45027946 42.6035814 -6.74804688 38.30078125 C-15.16815701 29.86997228 -23.58508507 21.43599416 -32 13 C-31.04081942 11.87769179 -30.08117635 10.75577882 -29.12133789 9.6340332 C-28.31981041 8.69682182 -28.31981041 8.69682182 -27.50209045 7.74067688 C-19.48093639 -1.55452728 -11.81700953 -6.68284125 0 0 Z " fill="#000000" transform="translate(331,61)"/>
</svg>
