<?xml version="1.0" encoding="UTF-8"?>
<svg version="1.1" xmlns="http://www.w3.org/2000/svg" width="512" height="512">
<path d="M0 0 C2.93509699 0.93680351 4.96165452 2.20201407 7.46875 3.98925781 C8.37302734 4.61767578 9.27730469 5.24609375 10.20898438 5.89355469 C12.09234104 7.22505011 13.97256238 8.56099151 15.84960938 9.90136719 C16.75517578 10.52849609 17.66074219 11.155625 18.59375 11.80175781 C19.81856079 12.67199585 19.81856079 12.67199585 21.06811523 13.55981445 C24.17327401 15.11793823 26.1614618 15.19880055 29.59765625 14.82910156 C31.65989722 14.05474082 31.65989722 14.05474082 33.4375 12.81738281 C34.10845703 12.38876953 34.77941406 11.96015625 35.47070312 11.51855469 C36.15197266 11.06416016 36.83324219 10.60976562 37.53515625 10.14160156 C38.55125977 9.48901367 38.55125977 9.48901367 39.58789062 8.82324219 C42.28934399 7.07493823 44.95328254 5.33543092 47.48486328 3.34619141 C52.03154363 -0.21117068 52.03154363 -0.21117068 55 0 C57.93509699 0.93680351 59.96165452 2.20201407 62.46875 3.98925781 C63.37302734 4.61767578 64.27730469 5.24609375 65.20898438 5.89355469 C67.09234104 7.22505011 68.97256238 8.56099151 70.84960938 9.90136719 C71.75517578 10.52849609 72.66074219 11.155625 73.59375 11.80175781 C74.81856079 12.67199585 74.81856079 12.67199585 76.06811523 13.55981445 C79.17327401 15.11793823 81.1614618 15.19880055 84.59765625 14.82910156 C86.65989722 14.05474082 86.65989722 14.05474082 88.4375 12.81738281 C89.10845703 12.38876953 89.77941406 11.96015625 90.47070312 11.51855469 C91.49260742 10.83696289 91.49260742 10.83696289 92.53515625 10.14160156 C93.55125977 9.48901367 93.55125977 9.48901367 94.58789062 8.82324219 C97.28934399 7.07493823 99.95328254 5.33543092 102.48486328 3.34619141 C106.94223141 -0.14129202 106.94223141 -0.14129202 110.10546875 -0.28417969 C113.55663849 1.25748704 116.47736264 3.37076617 119.47265625 5.64160156 C128.54955174 12.96870219 128.54955174 12.96870219 139.59765625 14.82910156 C142.40624136 13.47503 142.40624136 13.47503 145.07421875 11.51269531 C146.5746875 10.49079102 146.5746875 10.49079102 148.10546875 9.44824219 C149.13414062 8.72830078 150.1628125 8.00835937 151.22265625 7.26660156 C153.26939995 5.83719038 155.32378282 4.41863679 157.38671875 3.01269531 C158.29115723 2.37904053 159.1955957 1.74538574 160.12744141 1.0925293 C162.59765625 -0.17089844 162.59765625 -0.17089844 164.69604492 -0.01049805 C166.69551255 0.87230709 168.42457775 1.85267952 170.234375 3.07910156 C171.2234082 3.74425781 171.2234082 3.74425781 172.23242188 4.42285156 C172.90982422 4.88691406 173.58722656 5.35097656 174.28515625 5.82910156 C174.97416016 6.29316406 175.66316406 6.75722656 176.37304688 7.23535156 C181.41433558 10.64578089 181.41433558 10.64578089 182.59765625 11.82910156 C182.69443991 13.3199579 182.72137373 14.8154014 182.72070408 16.30939579 C182.72269513 17.2832542 182.72468618 18.25711262 182.72673756 19.26048189 C182.72382472 20.34314363 182.72091188 21.42580536 182.71791077 22.54127502 C182.7191924 24.25152332 182.7191924 24.25152332 182.72049993 25.9963221 C182.72186806 29.17511684 182.7187208 32.35387134 182.71372187 35.53266132 C182.70942051 38.95530695 182.71086357 42.37795057 182.71162415 45.80059814 C182.71214958 51.7352347 182.70900074 57.6698603 182.70338631 63.60449409 C182.69527395 72.1850748 182.69265636 80.76565019 182.69139832 89.34623431 C182.68920738 103.26622627 182.68254617 117.18621239 182.6730957 131.10620117 C182.66392266 144.6315915 182.65685276 158.15698024 182.65258789 171.68237305 C182.65231989 172.52398839 182.6520519 173.36560374 182.65177578 174.23272258 C182.64969647 180.81429018 182.6477395 187.39585781 182.64582121 193.97742546 C182.63638026 226.26132286 182.61626368 258.54520563 182.59765625 290.82910156 C111.64765625 290.82910156 40.69765625 290.82910156 -32.40234375 290.82910156 C-29.43234375 284.55910156 -26.46234375 278.28910156 -23.40234375 271.82910156 C-21.82985021 267.72990789 -20.34980559 263.74581678 -19.02734375 259.57910156 C-18.69919678 258.56968506 -18.3710498 257.56026855 -18.03295898 256.52026367 C-11.24750062 235.16356693 -6.29170597 208.67273411 -16.91015625 187.87597656 C-24.02192131 175.76943697 -33.6795611 169.91821462 -46.40234375 164.82910156 C-46.40234375 112.35910156 -46.40234375 59.88910156 -46.40234375 5.82910156 C-37.40234375 10.82910156 -37.40234375 10.82910156 -34.21484375 13.14160156 C-30.76839738 15.20946939 -29.38243765 15.30671283 -25.40234375 14.82910156 C-22.58020197 13.52682948 -20.04693542 11.86381029 -17.46484375 10.14160156 C-16.44874023 9.48901367 -16.44874023 9.48901367 -15.41210938 8.82324219 C-12.71065601 7.07493823 -10.04671746 5.33543092 -7.51513672 3.34619141 C-2.96845637 -0.21117068 -2.96845637 -0.21117068 0 0 Z " fill="#000000" transform="translate(174.40234375,221.1708984375)"/>
<path d="M0 0 C1.61644092 0.99565531 3.19311803 2.05712344 4.73828125 3.16015625 C5.64126953 3.78857422 6.54425781 4.41699219 7.47460938 5.06445312 C9.36055778 6.39227502 11.24083777 7.72818611 13.11523438 9.07226562 C17.0179172 11.77113584 20.01033634 13.80915864 24.70703125 14.71484375 C28.96396326 13.79074107 31.85697039 11.99787604 35.375 9.5 C41.95608108 5 41.95608108 5 43 5 C43.11450619 38.58918169 43.20257969 72.17831472 43.25532665 105.76764833 C43.26158 109.73539869 43.26805162 113.70314866 43.2746582 117.67089844 C43.27596976 118.46078825 43.27728131 119.25067806 43.2786326 120.06450392 C43.3003745 132.84536419 43.33978928 145.62611172 43.38576398 158.40690516 C43.43256254 171.52639038 43.46030257 184.64581667 43.47044247 197.76538193 C43.47729462 205.85743594 43.49891679 213.94917127 43.53958233 222.04112716 C43.56919837 228.25165857 43.57226556 234.46194829 43.56553841 240.67254066 C43.56691257 243.21620073 43.57683982 245.759873 43.59602737 248.30346107 C43.62097618 251.78175766 43.61489691 255.25870085 43.60127258 258.73703003 C43.61583679 259.73900291 43.630401 260.7409758 43.64540654 261.7733115 C43.56203194 269.67097111 41.44827959 276.26850383 36.01016122 282.15326965 C28.74291412 289.03143089 22.1895653 290.45164481 12.47265625 290.29296875 C11.48373886 290.28872391 10.49482147 290.28447906 9.47593689 290.28010559 C6.33783991 290.26340129 3.20040072 290.22576415 0.0625 290.1875 C-2.07355839 290.17244251 -4.20962691 290.15875597 -6.34570312 290.14648438 C-11.56402402 290.11352493 -16.781965 290.06340838 -22 290 C-22.41231816 254.66178102 -22.72933105 219.32405006 -22.91917593 183.98393054 C-22.9416877 179.80845627 -22.96498559 175.63298674 -22.98876953 171.45751953 C-22.99349112 170.62628574 -22.99821271 169.79505194 -23.00307737 168.93862924 C-23.0813282 155.49238976 -23.22320518 142.04754044 -23.38875033 128.60212472 C-23.55729093 114.79792211 -23.65710115 100.99444565 -23.69359291 87.18925643 C-23.71825135 78.6749144 -23.79600331 70.16450131 -23.9424964 61.6513696 C-24.03791488 55.80736202 -24.06634631 49.9653741 -24.04302479 44.12064478 C-24.03152285 40.74895754 -24.05855342 37.38959748 -24.14569855 34.01820564 C-24.62825958 14.38220166 -24.62825958 14.38220166 -20.19981146 8.68340969 C-15.14556173 3.99557721 -7.20046194 -2.63355509 0 0 Z " fill="#000000" transform="translate(396,222)"/>
<path d="M0 0 C0.886875 0.680625 1.77375 1.36125 2.6875 2.0625 C3.6775 2.784375 4.6675 3.50625 5.6875 4.25 C13.87197089 11.32035443 17.92013419 21.43404708 19.140625 31.9765625 C19.57170158 39.22160628 18.82149432 45.79674884 16.3828125 52.66015625 C15.99425079 53.78818916 15.99425079 53.78818916 15.59783936 54.93901062 C11.23325831 67.43328468 6.46996531 79.79014199 1.77621078 92.16366577 C-0.53006742 98.24436967 -2.8318659 104.32677267 -5.13385963 110.40909958 C-5.73113972 111.98701105 -6.32860241 113.56485341 -6.92624474 115.14262772 C-11.23562104 126.52094006 -15.49725054 137.91613344 -19.7251091 149.32497215 C-21.49659515 154.10111314 -23.27533433 158.87455854 -25.0540905 163.64799595 C-26.47889457 167.47376813 -27.89848909 171.3013184 -29.3067627 175.13320923 C-30.62811496 178.72847884 -31.96208523 182.31880963 -33.30561638 185.90584755 C-33.79539337 187.22065871 -34.28041228 188.53725393 -34.7602253 189.85573387 C-35.41766365 191.66046673 -36.09380174 193.45835436 -36.77075195 195.25585938 C-37.32929619 196.76569397 -37.32929619 196.76569397 -37.89912415 198.30603027 C-40.3930968 203.16995949 -44.42479648 206.38814315 -48.875 209.4375 C-49.61878906 209.96085938 -50.36257813 210.48421875 -51.12890625 211.0234375 C-53.84036996 212.31368678 -54.52553082 212.04641417 -57.3125 211.0625 C-58.92894092 210.06684469 -60.50561803 209.00537656 -62.05078125 207.90234375 C-62.95376953 207.27392578 -63.85675781 206.64550781 -64.78710938 205.99804688 C-66.67305778 204.67022498 -68.55333777 203.33431389 -70.42773438 201.99023438 C-74.16218558 199.40770344 -77.33922572 197.31909049 -81.75 196.15625 C-87.60541965 197.64578658 -92.10793906 201.17305302 -97 204.625 C-99.03767278 206.05429827 -101.08294075 207.47284798 -103.13671875 208.87890625 C-104.03479248 209.51256104 -104.93286621 210.14621582 -105.8581543 210.79907227 C-108.3125 212.0625 -108.3125 212.0625 -110.40869141 211.89550781 C-113.85563971 210.38730217 -116.87450729 208.32870543 -120 206.25 C-120.68900391 205.81107422 -121.37800781 205.37214844 -122.08789062 204.91992188 C-122.74337891 204.48615234 -123.39886719 204.05238281 -124.07421875 203.60546875 C-124.970802 203.0180188 -124.970802 203.0180188 -125.88549805 202.41870117 C-127.76005284 200.63715252 -128.09724329 199.63984036 -128.3125 197.0625 C-127.64526367 194.49047852 -127.64526367 194.49047852 -126.48046875 191.44140625 C-126.02591309 190.23395752 -125.57135742 189.02650879 -125.10302734 187.7824707 C-124.56871047 186.39663727 -124.0343667 185.01081422 -123.5 183.625 C-122.92550199 182.11003319 -122.35214933 180.59463169 -121.77978516 179.07885742 C-120.43107875 175.51206178 -119.0758605 171.94781355 -117.71728516 168.38476562 C-114.99490052 161.23741884 -112.29959865 154.07990515 -109.60546875 146.921875 C-108.55796502 144.138989 -107.5104384 141.35611161 -106.46289062 138.57324219 C-106.06249227 137.5094805 -106.06249227 137.5094805 -105.65400505 136.42422867 C-103.72063517 131.28862274 -101.78385421 126.15431101 -99.84570312 121.02050781 C-94.11662264 105.84235893 -88.40676905 90.65738813 -82.73983765 75.45591164 C-81.80711879 72.95449636 -80.87367263 70.45335383 -79.93994141 67.95231628 C-79.63541424 67.13660565 -79.33088707 66.32089502 -79.01713181 65.48046589 C-78.40791074 63.84865397 -77.79866056 62.21685293 -77.18938065 60.58506298 C-75.41582859 55.83363509 -73.64723342 51.08039863 -71.88218021 46.32580757 C-70.78197101 43.36564576 -69.67716796 40.40721344 -68.57118797 37.44920349 C-68.06215196 36.08479421 -67.55503445 34.71966724 -67.05007362 33.35374451 C-61.07238483 17.18979802 -55.57478079 5.13986737 -39.81640625 -3.26953125 C-26.72441766 -8.90885053 -12.06913131 -7.05930322 0 0 Z M-46.9375 58.5625 C-47.64390625 58.80097656 -48.3503125 59.03945312 -49.078125 59.28515625 C-50.82382577 59.87492002 -52.56828285 60.46836277 -54.3125 61.0625 C-49.03545528 79.18703333 -43.16583975 97.11809164 -37.3125 115.0625 C-28.74716296 112.78095678 -28.74716296 112.78095678 -20.3125 110.0625 C-25.58954472 91.93796667 -31.45916025 74.00690836 -37.3125 56.0625 C-40.6808404 56.0625 -43.77632246 57.48350029 -46.9375 58.5625 Z M-73.9375 122.5625 C-74.64390625 122.80097656 -75.3503125 123.03945312 -76.078125 123.28515625 C-77.82382577 123.87492002 -79.56828285 124.46836277 -81.3125 125.0625 C-79.53552098 130.68217696 -77.7573128 136.30146303 -75.97802734 141.92041016 C-75.37450974 143.82688203 -74.77131211 145.73345524 -74.16845703 147.64013672 C-72.47165586 153.00630561 -70.76822812 158.37027501 -69.05493164 163.73120117 C-68.3865469 165.8299864 -67.72647969 167.93118368 -67.06835938 170.03320312 C-66.72095703 171.12052734 -66.37355469 172.20785156 -66.015625 173.328125 C-65.72848633 174.23852539 -65.44134766 175.14892578 -65.14550781 176.08691406 C-64.4873175 178.24609353 -64.4873175 178.24609353 -62.3125 179.0625 C-59.7230196 178.32057022 -57.22280005 177.52077483 -54.6875 176.625 C-53.62789062 176.26051758 -53.62789062 176.26051758 -52.546875 175.88867188 C-50.79976713 175.28662795 -49.05582214 174.67541983 -47.3125 174.0625 C-49.22368999 166.8272614 -51.32958697 159.69007848 -53.66796875 152.58203125 C-53.97446854 151.64316574 -54.28096832 150.70430023 -54.59675598 149.73698425 C-55.56200569 146.78216556 -56.53093207 143.82856837 -57.5 140.875 C-58.16105249 138.8535958 -58.82186192 136.83211208 -59.48242188 134.81054688 C-61.08964422 129.89360921 -62.70016165 124.9777623 -64.3125 120.0625 C-67.6808404 120.0625 -70.77632246 121.48350029 -73.9375 122.5625 Z " fill="#000000" transform="translate(475.3125,5.9375)"/>
<path d="M0 0 C4.06409668 2.66204509 7.49217774 6.02192534 10.84204102 9.53027344 C13.65702722 12.37934581 15.26051744 13.59394245 19.21484375 14.73828125 C23.01853721 14.67628857 23.95448696 14.27638217 26.5703125 11.62109375 C27.24320312 10.97398437 27.91609375 10.326875 28.609375 9.66015625 C29.25648437 9.00789063 29.90359375 8.355625 30.5703125 7.68359375 C37.70202293 0.74727265 44.55934291 -2.49075529 54.6328125 -2.81640625 C63.77987239 -2.50919189 70.08645881 0.43379483 76.77734375 6.6171875 C84.70508097 15.75394783 85.23977653 26.1712919 84.5703125 37.68359375 C83.01071897 55.68672771 78.20663511 72.59558084 70.6953125 88.99609375 C70.11608032 90.2943811 70.11608032 90.2943811 69.52514648 91.61889648 C66.19090151 98.55600295 61.77574297 103.45974721 54.92578125 107.08203125 C44.72426313 109.68739409 36.87846337 107.08905476 27.83911133 102.44189453 C24.49380095 100.76200804 22.26788471 99.67654757 18.4765625 99.71484375 C15.62502121 100.66535751 13.02355163 101.85449435 10.36938477 103.26245117 C2.06093247 107.65258288 -5.39587734 109.59763558 -14.76953125 107.046875 C-23.58948411 103.30558981 -28.46114635 94.65715895 -32.0546875 86.24609375 C-32.43512207 85.37283447 -32.81555664 84.4995752 -33.20751953 83.59985352 C-41.53995291 64.00992211 -48.98017322 37.9635384 -43.4921875 16.68359375 C-40.59434329 9.75337197 -34.71576322 3.51935049 -28.0546875 0.12109375 C-19.1294939 -3.41820716 -8.93358782 -4.02453709 0 0 Z " fill="#000000" transform="translate(62.4296875,404.31640625)"/>
<path d="M0 0 C0.639375 -0.01289063 1.27875 -0.02578125 1.9375 -0.0390625 C5.34941184 1.05946972 6.78970294 2.8241553 9 5.625 C9.70995295 8.79409763 9.65079572 11.88846366 9.6015625 15.125 C9.60956879 16.03830078 9.61757507 16.95160156 9.62582397 17.89257812 C9.64886358 20.80383926 9.63944096 23.71370165 9.625 26.625 C9.62114942 29.536036 9.62461399 32.44645507 9.64559937 35.35742188 C9.65766465 37.16597827 9.65505854 38.97470801 9.63589478 40.78320312 C9.65913241 46.02325747 10.10416058 49.72916058 14 53.625 C17.4081885 54.18143894 19.90528652 54.32615946 22.890625 52.4140625 C25.94093105 49.77294385 28.70050684 46.9545394 31.4140625 43.96875 C38.75438142 36.06029494 38.75438142 36.06029494 43.8125 35.3125 C47.60121749 35.30580615 50.06241001 36.1324994 53 38.625 C55.3588152 42.1632228 55.61515144 44.08608684 55.48828125 48.24609375 C54.54611886 52.83630893 51.2343009 55.42913731 48 58.625 C46.6386333 60.11707399 45.27771136 61.60957815 43.92431641 63.10888672 C38.32788589 69.28609623 32.49769053 75.21034619 26.54467773 81.04345703 C25.98079346 81.59888184 25.41690918 82.15430664 24.8359375 82.7265625 C24.33626465 83.21463379 23.8365918 83.70270508 23.32177734 84.20556641 C19.60306251 88.19902928 19.73352499 91.52687144 19.79223633 96.6730957 C19.79343475 97.49294952 19.79463318 98.31280334 19.79586792 99.15750122 C19.79901909 100.93849637 19.80633431 102.71948787 19.8173008 104.50045204 C19.83213815 107.32110416 19.83056018 110.14128184 19.82365417 112.96195984 C19.80480884 120.98187128 19.79838218 129.00141569 19.84545898 137.02124023 C19.87306703 141.92687166 19.86671391 146.83146749 19.83844566 151.73708153 C19.83418745 153.60495652 19.84265582 155.47290612 19.8641758 157.340662 C19.89308451 159.95784584 19.87872587 162.57156122 19.85473633 165.1887207 C19.87369461 165.95724869 19.89265289 166.72577667 19.91218567 167.51759338 C19.84062764 170.91498197 19.66606859 172.86032152 17.38455772 175.47960472 C15.64794367 176.97847029 13.89885365 178.33998305 12 179.625 C10.91348578 177.48073222 9.83052916 175.33478535 8.75 173.1875 C8.22623779 172.14928101 8.22623779 172.14928101 7.69189453 171.09008789 C5.39465916 166.50498759 3.17611664 161.88973806 1.0078125 157.2421875 C0.48993164 156.13931396 -0.02794922 155.03644043 -0.56152344 153.90014648 C-1.58690933 151.71119419 -2.60350957 149.51810017 -3.61035156 147.32055664 C-6.47095766 141.2353108 -9.46899029 136.57953139 -14 131.625 C-14 130.965 -14 130.305 -14 129.625 C-14.57621094 129.35429687 -15.15242188 129.08359375 -15.74609375 128.8046875 C-18.01962393 127.6147289 -19.98317563 126.25022282 -22.0625 124.75 C-28.41990213 120.46997557 -35.18884306 118.00660172 -42.75 116.875 C-48.19617905 115.81710911 -50.93723747 112.00037504 -54 107.625 C-55.72869779 104.16760443 -55.48966895 100.40524432 -55 96.625 C-53.20606332 93.75470131 -52.01736724 92.13368362 -49 90.625 C-41.68690373 90.2711405 -41.68690373 90.2711405 -38.9375 91.6875 C-35.79513385 93.20799975 -33.30307292 92.40572633 -30 91.625 C-27.93597315 90.64451062 -27.93597315 90.64451062 -27 88.625 C-26.25670704 85.58988708 -26.09923616 84.51403523 -27 81.625 C-29.56173402 77.89258107 -32.78665091 74.79208611 -36 71.625 C-38.07084454 69.57076374 -40.14092676 67.51578259 -42.20898438 65.45874023 C-43.63309587 64.04763066 -45.06392633 62.64326406 -46.50195312 61.24633789 C-55.4102036 52.50054464 -55.4102036 52.50054464 -55.5 46.125 C-55.38830542 42.40184743 -55.07363538 41.71801312 -52.625 38.625 C-48.60450515 35.56176583 -46.40813909 35.21603283 -41.46923828 35.83154297 C-36.62179905 37.38920339 -33.69656453 41.44783609 -30.4375 45.1875 C-25.91047703 50.85877244 -25.91047703 50.85877244 -19.76000977 54.19799805 C-16.76857359 54.24823179 -14.56564257 54.00817723 -12.0625 52.3125 C-10.22191677 49.38922075 -9.8761737 46.87060364 -9.87402344 43.50830078 C-9.87021667 42.68379425 -9.86640991 41.85928772 -9.86248779 41.00979614 C-9.86146057 40.12226654 -9.86043335 39.23473694 -9.859375 38.3203125 C-9.84104976 36.43878995 -9.82147971 34.55727919 -9.80078125 32.67578125 C-9.77179564 29.7108975 -9.74999947 26.74677303 -9.74951172 23.78173828 C-9.74617676 20.91891185 -9.7116292 18.05783504 -9.671875 15.1953125 C-9.6789447 14.31183136 -9.6860144 13.42835022 -9.69329834 12.51809692 C-9.60474836 8.03643575 -9.4510276 6.19631379 -6.58691406 2.56835938 C-4.08550818 0.68923605 -3.06287552 -0.06175152 0 0 Z " fill="#000000" transform="translate(183,-0.625)"/>
<path d="M0 0 C27.39 0 54.78 0 83 0 C83 36.96 83 73.92 83 112 C82.67 112 82.34 112 82 112 C81.84144531 111.12859375 81.68289063 110.2571875 81.51953125 109.359375 C78.19553868 92.39048477 71.50881091 77.28885692 57 67 C43.21880891 58.79730303 28.62979803 54.53357479 12.51953125 57.6796875 C10.49904622 58.19649853 8.48654416 58.74675859 6.48828125 59.34375 C4 60 4 60 0 60 C0 40.2 0 20.4 0 0 Z " fill="#000000" transform="translate(219,100)"/>
<path d="M0 0 C1.12515761 0.96232135 2.25001962 1.92498832 3.37475586 2.88780212 C4.00119492 3.42385039 4.62763397 3.95989866 5.27305603 4.51219082 C8.27747613 7.10058042 11.1498812 9.80651952 14 12.5625 C14.59683594 13.11357422 15.19367188 13.66464844 15.80859375 14.23242188 C17.5 15.87890625 17.5 15.87890625 20 19 C19.64859768 22.95967856 18.15007164 26.57193724 16.76953125 30.27929688 C16.54277647 30.8913435 16.31602169 31.50339012 16.08239555 32.13398361 C15.32937877 34.16360325 14.57098325 36.19116753 13.8125 38.21875 C13.27664371 39.65937208 12.74109729 41.10010945 12.20584106 42.54095459 C10.77170583 46.39832064 9.33274957 50.25387117 7.89267731 54.10902405 C6.70317951 57.29501366 5.51636433 60.48199967 4.32952309 63.66897964 C-2.70003045 82.54377999 -9.75942448 101.40744636 -16.875 120.25 C-17.21853516 121.15999756 -17.56207031 122.06999512 -17.91601562 123.00756836 C-19.6952487 127.71692191 -21.48429162 132.42229142 -23.28659058 137.12286377 C-23.93549478 138.83027265 -24.56652839 140.54444639 -25.19555664 142.25927734 C-25.53192139 143.15598145 -25.86828613 144.05268555 -26.21484375 144.9765625 C-26.61110962 146.0605835 -26.61110962 146.0605835 -27.01538086 147.16650391 C-28.86178562 150.6047632 -31.66199154 152.11056125 -35 154 C-35.33 154 -35.66 154 -36 154 C-36.85176357 139.24233427 -37.48076708 124.48658672 -37.86523819 109.70936966 C-38.04879035 102.84134706 -38.29811012 95.98894322 -38.71582031 89.13085938 C-41.61996681 40.51906358 -41.61996681 40.51906358 -27.82617188 24.13867188 C-19.56021719 14.98155269 -10.06170601 7.10609425 0 0 Z " fill="#000000" transform="translate(356,58)"/>
<path d="M0 0 C5.09771191 4.43279296 8.94531934 9.45901782 11.84765625 15.55078125 C12.36577881 16.63069336 12.88390137 17.71060547 13.41772461 18.82324219 C14.23188843 20.5504248 14.23188843 20.5504248 15.0625 22.3125 C15.90663452 24.09575684 15.90663452 24.09575684 16.76782227 25.91503906 C17.64175189 27.76291835 18.51427341 29.61141324 19.38322449 31.4616394 C21.33693287 35.61883231 23.34087815 39.7486229 25.3671875 43.87109375 C26.39150242 45.99697329 27.41497934 48.12325686 28.4375 50.25 C28.92806885 51.23009033 29.4186377 52.21018066 29.92407227 53.2199707 C33.5104649 60.80404864 33.5104649 60.80404864 32.28515625 65.171875 C31.86105469 66.10515625 31.43695313 67.0384375 31 68 C26.25 66.125 26.25 66.125 24 65 C18.67734456 64.02643018 16.10102302 65.29467221 11.64453125 68.31640625 C9.68902472 69.71584457 7.74526551 71.13181804 5.8125 72.5625 C3.86897667 73.99182331 1.91747362 75.41037858 -0.04296875 76.81640625 C-0.89914795 77.45006104 -1.75532715 78.08371582 -2.63745117 78.73657227 C-5 80 -5 80 -7.04370117 79.86035156 C-11.02471891 78.10955829 -14.52066452 75.5989314 -18.125 73.1875 C-18.94871094 72.65318359 -19.77242187 72.11886719 -20.62109375 71.56835938 C-21.80251953 70.78235352 -21.80251953 70.78235352 -23.0078125 69.98046875 C-23.72598145 69.50504639 -24.44415039 69.02962402 -25.18408203 68.53979492 C-27.17364012 66.85276307 -28.01068114 65.39090755 -29 63 C-23.64868914 58.11753511 -18.05047552 53.66528485 -12.21801758 49.37744141 C-10.77667779 48.29723365 -9.38337179 47.15351276 -8 46 C-8 42.76820783 -10.10866185 40.91648565 -12 38.375 C-12.7425 37.37210938 -13.485 36.36921875 -14.25 35.3359375 C-14.8275 34.56507813 -15.405 33.79421875 -16 33 C-22.1062264 36.0531132 -27.0734139 40.25257541 -32.23046875 44.66015625 C-34.43981415 46.52672592 -36.66309202 48.29890947 -39 50 C-42.29142237 48.62740684 -43.79419953 47.29739691 -45.625 44.25 C-46.02976562 43.59515625 -46.43453125 42.9403125 -46.8515625 42.265625 C-50.9826099 34.11593966 -51.28270415 24.99136494 -49.3828125 16.1171875 C-46.65163206 8.40704095 -41.31831133 1.48730014 -34.0625 -2.4375 C-22.20855395 -7.4650491 -10.95603024 -7.06584559 0 0 Z " fill="#000000" transform="translate(153,138)"/>
<path d="M0 0 C6.97657687 5.48868133 10.89542535 11.90066421 14.47265625 19.9453125 C9.71590984 23.92908762 4.62206045 27.37245056 -0.52734375 30.8203125 C-1.86152344 31.7484375 -1.86152344 31.7484375 -3.22265625 32.6953125 C-4.08632813 33.27023438 -4.95 33.84515625 -5.83984375 34.4375 C-6.61972656 34.96714355 -7.39960938 35.49678711 -8.203125 36.04248047 C-10.52734375 36.9453125 -10.52734375 36.9453125 -13.03173828 36.29199219 C-15.51901485 34.94980694 -17.82519652 33.52116171 -20.14453125 31.90625 C-20.99917969 31.32617188 -21.85382813 30.74609375 -22.734375 30.1484375 C-24.51136989 28.93081875 -26.28225966 27.70424139 -28.046875 26.46875 C-31.66194765 24.03333264 -34.70782971 22.15276075 -38.953125 21.078125 C-44.75014919 22.48461612 -49.06836393 25.96774021 -53.83984375 29.4453125 C-55.81247789 30.85524418 -57.78761053 32.26168897 -59.765625 33.6640625 C-60.63227783 34.29248047 -61.49893066 34.92089844 -62.3918457 35.56835938 C-64.52734375 36.9453125 -64.52734375 36.9453125 -66.52734375 36.9453125 C-67.28761647 26.21701973 -65.29698767 16.24116344 -58.2734375 7.81640625 C-42.36891196 -9.2266983 -19.79883618 -13.61704128 0 0 Z " fill="#000000" transform="translate(267.52734375,181.0546875)"/>
<path d="M0 0 C4.41613177 0.26024536 8.83609363 0.37083459 13.25775146 0.49591064 C21.86622044 0.76058362 30.45660583 1.18437718 39.05267334 1.71661377 C34.08507391 12.81332886 22.80525238 24.96170957 12.05267334 30.71661377 C0.51725792 34.8228614 -12.91244689 33.21660892 -24.89465332 32.43322754 C-29.3107851 32.17298218 -33.73074695 32.06239294 -38.15240479 31.93731689 C-46.76087376 31.67264392 -55.35125915 31.24885036 -63.94732666 30.71661377 C-51.24095749 2.33289231 -27.84932111 -1.82075312 0 0 Z " fill="#000000" transform="translate(295.94732666015625,52.28338623046875)"/>
<path d="M0 0 C27.39 0 54.78 0 83 0 C83 6.27 83 12.54 83 19 C55.61 19 28.22 19 0 19 C0 12.73 0 6.46 0 0 Z " fill="#000000" transform="translate(265,18)"/>
</svg>
