<?xml version="1.0" encoding="UTF-8"?>
<svg version="1.1" xmlns="http://www.w3.org/2000/svg" width="512" height="512">
<path d="M0 0 C1.37787722 -0.00417441 2.755751 -0.00965252 4.13361841 -0.01631981 C7.91474229 -0.03077916 11.69564828 -0.02652823 15.47678411 -0.019153 C19.5566261 -0.01442484 23.63642072 -0.02692804 27.71624756 -0.03717041 C35.70686713 -0.05437053 43.6974081 -0.05519593 51.68804138 -0.04995751 C58.18241211 -0.04591691 64.67675961 -0.04735805 71.17112923 -0.05270576 C72.09526588 -0.05345419 73.01940254 -0.05420261 73.97154333 -0.05497371 C75.84889201 -0.05650518 77.72624069 -0.05804353 79.60358936 -0.05958868 C97.21073283 -0.07331805 114.81783187 -0.0678729 132.42497433 -0.05640347 C148.53449204 -0.0464701 164.6438949 -0.05941277 180.75339489 -0.08333766 C197.29362212 -0.10771723 213.83379583 -0.11733937 230.37404066 -0.11068493 C239.66055711 -0.10719024 248.94698521 -0.1094413 258.23348808 -0.12693596 C266.13868489 -0.14164364 274.04373115 -0.14231217 281.94892495 -0.12486505 C285.98223387 -0.1163409 290.0152737 -0.11423982 294.04856873 -0.1295166 C297.74169947 -0.1433318 301.43432978 -0.13864191 305.12743134 -0.11927737 C307.0943712 -0.11372288 309.06133633 -0.1278153 311.02822822 -0.14263147 C317.72973328 -0.08659415 322.31437108 0.13656835 327.64564514 4.38768005 C330.36574445 7.77972631 329.9198827 11.8382603 329.88615417 16.00590515 C329.88871745 17.16259347 329.88871745 17.16259347 329.89133251 18.34264922 C329.89462863 20.92839184 329.88362173 23.51387537 329.87269592 26.09959412 C329.87213184 27.95237726 329.87244832 29.80516085 329.87358093 31.65794373 C329.87415554 36.69064326 329.86238369 41.72324776 329.84843302 46.75592518 C329.83594371 52.01433647 329.83475658 57.27274987 329.8323822 62.53117371 C329.82616214 72.49003155 329.80974419 82.44884556 329.78968322 92.40768409 C329.7673406 103.74491898 329.75633491 115.08215595 329.74629235 126.41940737 C329.72537844 149.74218924 329.69019222 173.06493219 329.64564514 196.38768005 C330.30564514 196.05768005 330.96564514 195.72768005 331.64564514 195.38768005 C358.80771169 193.0087844 383.53549647 199.68138542 405.64564514 215.38768005 C405.97564514 215.71768005 406.30564514 216.04768005 406.64564514 216.38768005 C406.81580139 215.7843988 406.98595764 215.18111755 407.16127014 214.55955505 C409.63729441 206.3939431 409.63729441 206.3939431 413.64564514 203.38768005 C418.16516841 201.8811723 422.00523892 201.64204086 426.39564514 203.63768005 C429.33414738 205.92318179 431.37036376 207.54618206 431.94621277 211.39833069 C432.09391916 213.98867615 432.14013462 216.56262723 432.14955139 219.1572113 C432.15953659 220.11157578 432.16952179 221.06594025 432.17980957 222.04922485 C432.19498595 224.06735402 432.20203551 226.08555833 432.20155334 228.10374451 C432.20810108 231.1794825 432.26254859 234.25196829 432.31947327 237.32713318 C432.32827865 239.29131489 432.33423065 241.25551188 432.33705139 243.2197113 C432.35860794 244.13348038 432.38016449 245.04724945 432.40237427 245.9887085 C432.34116202 251.74175839 431.24351177 254.86993006 427.32446289 259.11624146 C424.33121126 261.38315558 421.25591503 261.51244794 417.59901428 261.54881287 C416.81462479 261.55842041 416.03023529 261.56802795 415.22207642 261.57792664 C414.38345566 261.58217651 413.5448349 261.58642639 412.68080139 261.59080505 C411.81047775 261.59650513 410.94015411 261.6022052 410.04345703 261.608078 C408.20521759 261.61751021 406.36696137 261.6240549 404.52870178 261.62791443 C401.72167987 261.63763319 398.91538639 261.66867835 396.10853577 261.70018005 C394.32012864 261.70670939 392.5317163 261.71196013 390.74330139 261.71580505 C389.4884066 261.73432526 389.4884066 261.73432526 388.2081604 261.7532196 C382.50260767 261.73147736 379.38272826 260.58951136 374.88783264 256.97361755 C372.49686955 253.9210043 372.52637247 250.15139539 372.64564514 246.38768005 C373.89564514 243.51268005 373.89564514 243.51268005 375.64564514 241.38768005 C376.0388092 240.87334412 376.43197327 240.35900818 376.83705139 239.8290863 C379.49222226 237.7129782 381.99970086 237.62923724 385.33314514 237.20018005 C386.51263733 237.04162537 387.69212952 236.88307068 388.90736389 236.7197113 C389.8109967 236.61014099 390.71462952 236.50057068 391.64564514 236.38768005 C372.5247832 222.9476539 351.31638255 217.37486064 328.05189514 221.0009613 C307.30834691 224.99620801 288.74233523 237.12146429 276.64564514 254.38768005 C265.08069871 272.39801098 260.64091939 293.59694193 264.83314514 314.70018005 C270.18602907 336.1860614 282.03739859 353.25284775 300.64564514 365.38768005 C319.41169975 376.57216019 341.32193149 380.17359246 362.63685608 374.89451599 C382.53564459 369.3796807 400.36655074 357.2159492 411.05189514 339.2978363 C416.94377871 328.53937244 420.87166466 318.22101137 422.12611389 305.96580505 C422.20442444 305.20686951 422.28273499 304.44793396 422.36341858 303.66600037 C422.50647544 302.18265963 422.63176073 300.6974625 422.73646545 299.21092224 C423.16725746 294.42259012 424.25502943 291.79745178 427.64564514 288.38768005 C431.36699122 286.11352412 434.52940115 286.18064177 438.71205139 286.8368988 C441.65849255 287.6761881 443.50672685 289.24876176 445.64564514 291.38768005 C450.87585755 301.84810487 445.69997492 320.99258628 442.42689514 331.3447113 C433.54125822 357.71128348 414.72965869 377.99301097 390.45814514 391.1103363 C374.96919679 398.68055981 359.85157455 401.56704664 342.70814514 401.45018005 C341.45195374 401.44566833 340.19576233 401.44115662 338.90150452 401.43650818 C335.81616852 401.42477686 332.73093198 401.40836105 329.64564514 401.38768005 C329.65452759 401.95651413 329.66341003 402.52534821 329.67256165 403.11141968 C329.76148725 409.06546415 329.82156575 415.01931803 329.8653717 420.97386169 C329.88540914 423.19203869 329.91264688 425.41016337 329.94740295 427.62815857 C329.99626767 430.82807877 330.01869326 434.0272968 330.03627014 437.2275238 C330.05691528 438.20913986 330.07756042 439.19075592 330.09883118 440.20211792 C330.10188613 449.70998271 327.02981037 456.67744349 320.56361389 463.59861755 C314.72020013 469.04929679 308.30254224 472.22951023 300.27064514 472.4540863 C291.81145733 472.01790943 284.62329384 468.86480362 278.77064514 462.70018005 C272.82226659 455.02594106 271.05649363 447.29665086 271.14173889 437.7431488 C271.13231766 436.77033463 271.12289642 435.79752045 271.1131897 434.79522705 C271.08477317 431.72165805 271.08145431 428.64886915 271.08314514 425.57518005 C271.07953226 422.48375368 271.06999059 419.3928845 271.04238892 416.30157471 C271.02565066 414.38732966 271.02268534 412.47290027 271.03540039 410.55862427 C270.99715666 405.73451438 270.94243128 402.20837226 267.64564514 398.38768005 C264.57277353 396.49076719 262.2395168 396.13531624 258.65565109 396.12596703 C257.64446897 396.11850153 256.63328685 396.11103604 255.59146285 396.10334432 C253.92805024 396.10624642 253.92805024 396.10624642 252.23103333 396.10920715 C251.05155255 396.10341475 249.87207177 396.09762235 248.65684915 396.09165442 C245.38220027 396.07757575 242.10767605 396.07242293 238.83300161 396.07100582 C235.30199835 396.06731437 231.77104227 396.05216018 228.24006653 396.03839111 C222.12214908 396.01610642 216.0042484 396.00110042 209.88629913 395.99102402 C201.04075437 395.9764447 192.19526799 395.95090999 183.34975746 395.92269273 C168.99885787 395.87721114 154.64794988 395.84060199 140.29701233 395.80955505 C126.35559107 395.77937511 112.41419037 395.7450274 98.47279358 395.70506287 C97.61358975 395.70260132 96.75438591 395.70013977 95.8691456 395.69760363 C91.55881542 395.68522913 87.24848548 395.67277258 82.93815565 395.66027522 C47.17401368 395.55668695 11.40984777 395.46749046 -24.35435486 395.38768005 C-24.31838084 346.3156513 -24.2614824 297.2436853 -24.17643391 248.1717157 C-24.16641618 242.38123662 -24.1565721 236.59075726 -24.14683533 230.80027771 C-24.14489395 229.64747427 -24.14295258 228.49467083 -24.14095238 227.30693395 C-24.10991252 208.6291953 -24.09294619 189.95146894 -24.08116063 171.27370934 C-24.06875936 152.11541499 -24.04128113 132.95718527 -23.99974179 113.79893172 C-23.97457708 101.97270737 -23.96123975 90.14659018 -23.96292529 78.32033868 C-23.96295499 70.21589145 -23.94836925 62.11155355 -23.92219058 54.00714891 C-23.90751072 49.32797157 -23.89937063 44.64901845 -23.90855217 39.96982193 C-23.91681307 35.68745655 -23.90675629 31.40554252 -23.88201824 27.12324424 C-23.87631435 25.57268665 -23.87738128 24.02208656 -23.88584241 22.47154157 C-23.89635295 20.36524242 -23.8823218 18.26046893 -23.86216354 16.15427208 C-23.86064466 14.98397402 -23.85912578 13.81367596 -23.85756087 12.60791433 C-23.09266775 7.71303038 -20.83906105 4.5253398 -16.93900204 1.53691006 C-11.33536271 -0.25960439 -5.84867304 -0.02751907 0 0 Z M73.27064514 50.70018005 C70.1606592 53.88581431 67.04069338 57.00258762 63.64564514 59.88768005 C60.26696909 62.76581151 57.13603276 65.85545409 54.02064514 69.01268005 C50.37085592 72.7030789 46.72925056 76.18701635 42.64564514 79.38768005 C39.5142639 78.01310459 37.54978708 76.46792636 35.25502014 73.9462738 C34.6272467 73.28047302 33.99947327 72.61467224 33.35267639 71.92869568 C32.05325491 70.53201211 30.7640374 69.12576166 29.48548889 67.70994568 C26.3151473 64.38140985 24.00030194 62.02482879 19.33705139 61.34861755 C14.37415633 61.40113496 12.36318846 62.788588 8.83314514 66.07518005 C7.03835401 69.57029962 6.69914706 72.62684672 7.64564514 76.38768005 C8.86387203 78.25914642 8.86387203 78.25914642 10.54408264 80.00486755 C11.17846252 80.69773865 11.81284241 81.39060974 12.46644592 82.10447693 C16.55083771 86.38379935 20.70354991 90.5889712 24.89564514 94.76268005 C25.79283264 95.66373474 26.69002014 96.56478943 27.61439514 97.4931488 C28.47548889 98.35295349 29.33658264 99.21275818 30.22377014 100.09861755 C31.00139709 100.87511658 31.77902405 101.6516156 32.58021545 102.4516449 C35.47062556 105.1609773 37.26302865 106.32055435 41.20814514 107.01268005 C51.24982327 106.64819083 59.77635973 94.36942436 66.39173889 87.64549255 C69.35295767 84.6513056 72.44263381 81.87630849 75.65736389 79.1572113 C78.26105017 76.83998167 80.69908233 74.36788829 83.14564514 71.88768005 C86.98339466 68.00189194 90.88840522 64.3167777 95.08705139 60.82518005 C98.0686296 58.07525329 98.63712473 56.5218765 98.89564514 52.45018005 C98.79685384 49.27723575 98.64987066 46.96454143 96.64564514 44.38768005 C93.76480075 42.08300454 91.88606603 41.41827908 88.20814514 40.95018005 C81.69654559 41.74985017 77.67991179 46.1292834 73.27064514 50.70018005 Z M125.64564514 66.38768005 C123.18398806 70.08016567 122.83717609 73.10279408 123.64564514 77.38768005 C125.61231843 80.91256372 127.74928945 83.08889482 131.64564514 84.38768005 C133.58543147 84.48717181 135.52847438 84.52701099 137.47079468 84.53485107 C138.68630005 84.54200638 139.90180542 84.54916168 141.15414429 84.55653381 C142.50328038 84.55937402 143.85241676 84.56208575 145.20155334 84.56468201 C146.6208157 84.57094773 148.04007641 84.57759463 149.45933533 84.58459473 C154.12168742 84.60562283 158.7840398 84.61599523 163.44642639 84.6259613 C165.05196335 84.63000918 166.65750013 84.63412611 168.26303673 84.63831139 C175.80541521 84.6573595 183.34778393 84.6715919 190.89018184 84.67992336 C199.59507444 84.6896979 208.2997129 84.7160245 217.00451595 84.75642425 C223.73412839 84.78658479 230.46366796 84.80139212 237.19334668 84.80470437 C241.21219643 84.80705474 245.23077455 84.81601341 249.24955177 84.84116554 C253.0310569 84.86445074 256.81211164 84.86867798 260.59366989 84.85840416 C261.97957927 84.85790881 263.36551086 84.86422926 264.75135231 84.87796021 C274.56817766 85.18140703 274.56817766 85.18140703 282.64564514 80.38768005 C284.55867977 77.31018956 284.64817912 75.52958298 284.58314514 71.88768005 C283.46344454 67.70746448 281.97777678 66.08511995 278.64564514 63.38768005 C275.46688697 62.328094 273.19867283 62.25408622 269.85845947 62.24050903 C268.65136826 62.23335373 267.44427704 62.22619843 266.2006073 62.21882629 C264.8609164 62.2159861 263.52122521 62.21327436 262.18153381 62.2106781 C260.77212354 62.20441234 259.36271492 62.19776544 257.95330811 62.19076538 C253.32342171 62.16973775 248.69353503 62.15936491 244.06361389 62.1493988 C242.46922094 62.14535091 240.87482816 62.14123397 239.28043556 62.13704872 C231.79038282 62.1180007 224.30033993 62.10376828 216.81026763 62.09543675 C208.16593477 62.08566229 199.52185783 62.05933586 190.87761515 62.01893586 C184.19471144 61.98877469 177.5118811 61.97396792 170.82891065 61.97065574 C166.83800577 61.96830543 162.84737442 61.95934767 158.85654259 61.93419456 C155.10130136 61.91090827 151.34651367 61.90668256 147.59121895 61.91695595 C146.2149848 61.91745128 144.83872829 61.91113159 143.46256256 61.8973999 C133.68183961 61.59863803 133.68183961 61.59863803 125.64564514 66.38768005 Z M72.77064514 156.20018005 C68.86492862 160.19250316 64.90361282 163.98715753 60.64564514 167.60643005 C57.27536432 170.60808641 54.15994537 173.86548723 50.98939514 177.07518005 C48.32715395 179.70192469 45.57884137 182.07199882 42.64564514 184.38768005 C39.5142639 183.01310459 37.54978708 181.46792636 35.25502014 178.9462738 C34.6272467 178.28047302 33.99947327 177.61467224 33.35267639 176.92869568 C32.05325491 175.53201211 30.7640374 174.12576166 29.48548889 172.70994568 C26.3151473 169.38140985 24.00030194 167.02482879 19.33705139 166.34861755 C14.37415633 166.40113496 12.36318846 167.788588 8.83314514 171.07518005 C7.03835401 174.57029962 6.69914706 177.62684672 7.64564514 181.38768005 C8.86387203 183.25914642 8.86387203 183.25914642 10.54408264 185.00486755 C11.17846252 185.69773865 11.81284241 186.39060974 12.46644592 187.10447693 C16.55083771 191.38379935 20.70354991 195.5889712 24.89564514 199.76268005 C25.79283264 200.66373474 26.69002014 201.56478943 27.61439514 202.4931488 C28.47548889 203.35295349 29.33658264 204.21275818 30.22377014 205.09861755 C31.00139709 205.87511658 31.77902405 206.6516156 32.58021545 207.4516449 C35.47062556 210.1609773 37.26302865 211.32055435 41.20814514 212.01268005 C51.2487366 211.64823027 59.77319584 199.37268006 66.38783264 192.6493988 C69.37185996 189.63213988 72.48470358 186.83155369 75.72377014 184.09080505 C79.03177864 181.15931784 82.07815342 177.96304146 85.18080139 174.81736755 C87.9902993 172.04794173 90.92117267 169.47816032 93.95423889 166.95799255 C97.26715826 163.88225679 98.55590035 162.08320218 99.14564514 157.51268005 C98.98524678 152.74528422 96.98844053 150.65088508 93.64564514 147.38768005 C84.93582831 143.03277164 78.34888415 150.3876074 72.77064514 156.20018005 Z M125.64564514 165.38768005 C122.95484058 169.4238869 122.97922091 172.64773769 123.64564514 177.38768005 C125.53990773 180.81192397 126.7948879 182.04646576 130.41974735 183.50029278 C133.65534422 184.3903481 136.28896505 184.64162751 139.63500977 184.64837646 C140.8111232 184.65546127 141.98723663 184.66254608 143.19898987 184.66984558 C144.47552429 184.66736816 145.75205872 184.66489075 147.067276 184.66233826 C148.43609901 184.66668928 149.80491959 184.67187373 151.17373657 184.67782593 C154.88037223 184.69118483 158.58690572 184.69179811 162.29356074 184.68926263 C165.39241462 184.68819087 168.49124801 184.69308149 171.59009749 184.69786805 C178.90281851 184.70895234 186.21548815 184.70940663 193.5282135 184.70335388 C201.06271811 184.69731332 208.59703601 184.7096296 216.13150877 184.73092395 C222.60982924 184.74855754 229.08809038 184.75453857 235.56643397 184.75128621 C239.43150669 184.74947611 243.2964462 184.75208217 247.16149712 184.76600075 C250.79691286 184.7786033 254.43203813 184.77661231 258.06744957 184.76358986 C260.03056474 184.76010811 261.99368889 184.77138397 263.95677185 184.78315735 C271.29991576 184.73946776 276.26578528 184.1615913 282.52064514 180.20018005 C284.42743767 177.12812542 284.87995368 173.92908618 284.64564514 170.38768005 C282.6775544 166.59207647 281.20233684 164.75880785 277.64564514 162.38768005 C274.89823689 162.08218338 274.89823689 162.08218338 271.73783875 162.12698364 C270.50405991 162.11989883 269.27028107 162.11281403 267.99911499 162.10551453 C266.62950098 162.10780843 265.25988731 162.11031814 263.89027405 162.11302185 C262.44968399 162.10867523 261.00909625 162.10349224 259.56851196 162.09753418 C255.65316352 162.08412628 251.73791151 162.08356758 247.82254457 162.08609748 C244.55465076 162.08716617 241.28677654 162.08228635 238.01888692 162.07749206 C230.30884616 162.06639028 222.5988541 162.06596296 214.8888092 162.07200623 C206.9345517 162.07804507 198.98047112 162.06573886 191.02624381 162.04443616 C184.19812473 162.02682164 177.37006198 162.02081863 170.54192102 162.0240739 C166.46336521 162.02588744 162.38493555 162.02324376 158.3064003 162.00935936 C154.46994541 161.99678832 150.63376623 161.99871809 146.7973156 162.01177025 C145.39003723 162.01413733 143.9827395 162.01139658 142.57548332 162.00314713 C140.65282052 161.99269002 138.73007927 162.00257723 136.80741882 162.01345825 C135.73189569 162.01329051 134.65637257 162.01312277 133.54825783 162.01294994 C130.19428078 162.44595163 128.34758814 163.380289 125.64564514 165.38768005 Z M72.27064514 256.13768005 C71.2766571 257.07366028 71.2766571 257.07366028 70.2625885 258.02854919 C66.23761083 261.83208636 62.29327888 265.70378312 58.41127014 269.65330505 C55.86751375 272.15203921 53.17636868 274.46377646 50.46205139 276.7743988 C48.81706593 278.2354289 47.36610546 279.7553342 45.89564514 281.38768005 C45.15314514 282.04768005 44.41064514 282.70768005 43.64564514 283.38768005 C40.25265933 283.06851662 38.63007662 281.71571301 36.33314514 279.2978363 C35.73244202 278.67844177 35.13173889 278.05904724 34.51283264 277.42088318 C33.89666077 276.77055115 33.28048889 276.12021912 32.64564514 275.45018005 C31.42128856 274.1656302 30.19226692 272.8855072 28.95814514 271.6103363 C28.41802795 271.04065125 27.87791077 270.47096619 27.32142639 269.88401794 C23.73666546 266.68311472 20.44667574 265.89908806 15.61439514 265.98924255 C12.29067448 266.66190031 10.69745857 268.8384573 8.64564514 271.38768005 C8.31564514 271.71768005 7.98564514 272.04768005 7.64564514 272.38768005 C6.90699408 276.22362932 6.68403669 279.928753 8.88954163 283.27488708 C9.44714172 283.87156189 10.00474182 284.46823669 10.57923889 285.08299255 C11.2152301 285.76982117 11.85122131 286.45664978 12.50648499 287.16429138 C13.21240784 287.89800964 13.91833069 288.63172791 14.64564514 289.38768005 C15.39152893 290.17102722 16.13741272 290.95437439 16.90589905 291.76145935 C19.31744639 294.26422891 21.75829138 296.73493051 24.20814514 299.20018005 C25.03250061 300.04516052 25.85685608 300.89014099 26.70619202 301.76072693 C33.65615039 308.96679939 33.65615039 308.96679939 43.02064514 311.51268005 C46.54749507 310.41814042 47.73387249 309.67404425 50.36830139 307.28611755 C51.0676178 306.65560486 51.7669342 306.02509216 52.48744202 305.37547302 C53.19964905 304.71950134 53.91185608 304.06352966 54.64564514 303.38768005 C55.31660217 302.77166931 55.9875592 302.15565857 56.67884827 301.52098083 C58.69801233 299.65300783 60.70474796 297.77254452 62.70814514 295.88768005 C63.37652405 295.26248474 64.04490295 294.63728943 64.73353577 293.9931488 C68.57437373 290.38746419 72.34188746 286.72521892 76.03334045 282.96653748 C77.73863088 281.29662331 79.51387886 279.74449362 81.33314514 278.20018005 C85.0724643 274.97612141 88.58748152 271.55840912 92.08314514 268.07518005 C92.61576965 267.54706726 93.14839417 267.01895447 93.69715881 266.47483826 C97.18334475 262.97509838 98.54816633 261.57692151 98.95814514 256.57518005 C98.91717972 253.35061609 98.64998737 252.39481371 96.89564514 249.51268005 C94.03453851 246.81052379 92.15069108 245.62531889 88.27064514 245.01268005 C81.83263649 245.93239558 76.79751463 251.83183001 72.27064514 256.13768005 Z M123.77064514 266.70018005 C122.40731003 269.95703614 122.14517395 271.88438174 122.64564514 275.38768005 C124.78989537 279.36985905 126.43269175 281.73401675 130.64564514 283.38768005 C132.8736737 283.67965836 132.8736737 283.67965836 135.26472473 283.62818909 C136.18736618 283.63093842 137.11000763 283.63368774 138.06060791 283.63652039 C139.06545731 283.62932983 140.0703067 283.62213928 141.10560608 283.61473083 C142.16932938 283.61502289 143.23305267 283.61531494 144.32901001 283.61561584 C147.84609627 283.61422216 151.36297087 283.59865887 154.88002014 283.58299255 C157.31810897 283.57926257 159.7561993 283.57641553 162.19429016 283.57441711 C168.61242305 283.56677954 175.03046548 283.54712987 181.44856262 283.52500916 C187.99731726 283.50455347 194.54608651 283.49541598 201.09486389 283.4853363 C213.94517046 283.46388418 226.79538612 283.42870092 239.64564514 283.38768005 C242.61564514 272.49768005 242.61564514 272.49768005 245.64564514 261.38768005 C230.88552318 261.31991569 216.12549802 261.26467075 201.36525536 261.23224354 C194.51155903 261.2167857 187.65796635 261.19571704 180.80433655 261.16136169 C174.1907792 261.12822561 167.57730124 261.11082867 160.96365738 261.10304832 C158.43987457 261.09750335 155.91609768 261.08667548 153.39236069 261.07048988 C149.85865777 261.04872743 146.32540034 261.04571271 142.79164124 261.04710388 C141.7472287 261.03631805 140.70281616 261.02553223 139.62675476 261.01441956 C133.20019517 261.04181402 128.08481472 261.3793709 123.77064514 266.70018005 Z " fill="#000000" transform="translate(65.35435485839844,19.612319946289063)"/>
<path d="M0 0 C103.95 0 207.9 0 315 0 C315.33 10.56 315.66 21.12 316 32 C319.02493843 43.47022544 319.02493843 43.47022544 324 53 C324 53.66 324 54.32 324 55 C286.20679238 55.06869045 248.41359418 55.12154115 210.62033675 55.15319599 C206.15688455 55.15694804 201.69343248 55.16083101 197.22998047 55.16479492 C196.34140037 55.16558185 195.45282027 55.16636878 194.53731351 55.16717956 C180.15602866 55.18022781 165.77477985 55.20387846 151.39351638 55.23145839 C136.63324836 55.25952874 121.8729992 55.27617971 107.11270559 55.28226548 C98.00733375 55.28637854 88.90206377 55.29936192 79.79672329 55.3237494 C73.54994291 55.33962671 67.30321507 55.34439584 61.05641599 55.34050413 C57.45418332 55.33858569 53.85212845 55.34149359 50.24992752 55.35761642 C46.33847908 55.3749949 42.42726035 55.36894525 38.51577759 55.36076355 C36.82021632 55.37387134 36.82021632 55.37387134 35.09040129 55.38724393 C24.58155516 55.32791208 15.76701489 53.4169992 8 46 C-4.30234492 32.30338932 0 20.55366491 0 0 Z " fill="#000000" transform="translate(0,437)"/>
<path d="M0 0 C2.70552388 2.19823815 4.44778333 3.89556667 6 7 C5.89628127 8.94750445 5.78432502 10.89497304 5.62757874 12.83892822 C3.46814937 34.61166925 3.46814937 34.61166925 10.9559021 54.28382874 C16.41070685 60.60348547 22.80658223 65.93435523 29.49389648 70.90161133 C32.51289398 73.4294519 33.70854389 75.31262253 34.37109375 79.1484375 C34.4973398 83.38139331 34.37350209 86.14342222 31.625 89.5 C28.54172381 92.43645352 27.01123532 93.1997025 22.875 93.4375 C12.99607626 93.14300357 5.45169245 82.79320467 -1.11987305 76.19580078 C-2.81761919 74.49487122 -4.52834932 72.80777884 -6.24023438 71.12109375 C-7.33414298 70.02945656 -8.42726993 68.93703542 -9.51953125 67.84375 C-10.02579544 67.34669556 -10.53205963 66.84964111 -11.05366516 66.33752441 C-17.66961394 59.6347223 -18.46011507 54.16062781 -18.43359375 45.125 C-18.4388356 44.08230957 -18.44407745 43.03961914 -18.44947815 41.96533203 C-18.45588533 39.7666106 -18.4545783 37.56785483 -18.44604492 35.36914062 C-18.43752814 32.01109692 -18.46632704 28.65475116 -18.49804688 25.296875 C-18.49965891 23.15625051 -18.49908131 21.01562301 -18.49609375 18.875 C-18.50732773 17.87484863 -18.51856171 16.87469727 -18.53013611 15.84423828 C-18.4709018 9.9013487 -17.92029155 6.54526556 -14 2 C-9.71775717 -1.79284365 -5.2678932 -1.59372856 0 0 Z " fill="#000000" transform="translate(414,265)"/>
</svg>
