<?xml version="1.0" encoding="UTF-8"?>
<svg version="1.1" xmlns="http://www.w3.org/2000/svg" width="512" height="512">
<path d="M0 0 C2.83886719 1.34423828 2.83886719 1.34423828 5.796875 3.0703125 C7.46194092 4.03239624 7.46194092 4.03239624 9.16064453 5.01391602 C10.35717703 5.71747349 11.55362667 6.42117189 12.75 7.125 C14.00192667 7.85236779 15.25437693 8.57883507 16.50732422 9.30444336 C19.08475987 10.79875454 21.6592665 12.29792831 24.23144531 13.80126953 C28.78787343 16.46284601 33.36137622 19.09452884 37.93505859 21.72631836 C41.14612376 23.57465918 44.35466013 25.42731798 47.5625 27.28125 C51.89408507 29.7842949 56.22744603 32.28421773 60.5625 34.78125 C72.04077344 41.39401181 83.50191908 48.03455156 94.93945312 54.7175293 C102.48855038 59.1255294 110.05282313 63.50677311 117.625 67.875 C118.65496094 68.46925781 119.68492187 69.06351562 120.74609375 69.67578125 C128.48624204 74.13704772 136.24315588 78.56751764 144 83 C144 151.64 144 220.28 144 291 C136.41 295.29 128.82 299.58 121 304 C117.01309787 306.3013064 113.03156569 308.60637268 109.0625 310.9375 C108.0936084 311.5039624 107.1247168 312.0704248 106.12646484 312.65405273 C100.91439759 315.70175857 95.70826835 318.75947224 90.50390625 321.8203125 C89.4358374 322.44687744 88.36776855 323.07344238 87.26733398 323.71899414 C85.24046368 324.90809348 83.21511749 326.09979641 81.19165039 327.29467773 C80.26473389 327.83809814 79.33781738 328.38151855 78.3828125 328.94140625 C77.58246582 329.41263916 76.78211914 329.88387207 75.95751953 330.36938477 C71.70533748 332.71380642 67.35365069 334.85129962 63 337 C62.85813601 327.80760145 62.72580576 318.61508212 62.59674835 309.4224968 C62.56256687 307.00472995 62.52764238 304.58697469 62.49261475 302.16921997 C62.16673909 279.49103195 61.95957326 256.8133896 61.84905046 234.13319695 C61.82409958 229.02413884 61.79674816 223.91509831 61.76789856 218.80606079 C61.76383462 218.08210597 61.75977068 217.35815116 61.75558358 216.61225832 C61.73913478 213.68259111 61.72267358 210.75292399 61.70598042 207.82325816 C61.65603539 199.02124639 61.61589567 190.21930249 61.59035581 181.41718525 C61.5733275 175.80451843 61.54562194 170.19196604 61.5099259 164.57938725 C61.48942486 161.28872779 61.47582701 157.998275 61.47194099 154.70754814 C61.46706386 151.09964946 61.44402236 147.49230795 61.41650391 143.88452148 C61.41950784 142.81766113 61.42251177 141.75080078 61.42560673 140.65161133 C61.41451594 139.68045883 61.40342516 138.70930634 61.39199829 137.70872498 C61.38703307 136.44506434 61.38703307 136.44506434 61.38196754 135.15587521 C60.91038148 132.49418124 60.08241926 131.66855487 58 130 C56.33953653 128.93867645 54.64596055 127.92849496 52.93359375 126.953125 C51.38961914 126.06850586 51.38961914 126.06850586 49.81445312 125.16601562 C48.70005859 124.53373047 47.58566406 123.90144531 46.4375 123.25 C45.26598539 122.58058653 44.09476624 121.91065574 42.92382812 121.24023438 C40.49056166 119.84760003 38.05603768 118.45720253 35.62060547 117.06835938 C30.06842407 113.89970234 24.53519338 110.69820559 19 107.5 C16.83342291 106.24984475 14.66675593 104.99984527 12.5 103.75 C-0.5 96.25 -13.5 88.75 -26.5 81.25 C-27.57354736 80.63068604 -28.64709473 80.01137207 -29.75317383 79.37329102 C-31.90940213 78.12923208 -34.06549049 76.88493058 -36.22143555 75.64038086 C-41.79665511 72.42243211 -47.3745856 69.20930204 -52.95703125 66.00390625 C-72.73437356 54.64135553 -72.73437356 54.64135553 -80.125 50.1875 C-81.09695312 49.60355469 -82.06890625 49.01960938 -83.0703125 48.41796875 C-83.70710937 47.95003906 -84.34390625 47.48210937 -85 47 C-85 46.34 -85 45.68 -85 45 C-84.01386719 44.46375 -83.02773437 43.9275 -82.01171875 43.375 C-71.98138165 37.88019285 -62.1099293 32.14597166 -52.28582764 26.29086304 C-42.43510735 20.42066988 -32.52859081 14.6564183 -22.57617188 8.96020508 C-21.56748047 8.38165771 -20.55878906 7.80311035 -19.51953125 7.20703125 C-18.56900879 6.6651416 -17.61848633 6.12325195 -16.63916016 5.56494141 C-13.62374814 3.77689413 -10.74984607 1.82585839 -7.9206543 -0.2434082 C-4.98981645 -1.39793553 -3.01257724 -0.78569591 0 0 Z " fill="#000000" transform="translate(229,88)"/>
<path d="M0 0 C4.10897287 1.2576107 7.65406986 2.77976192 11.359375 4.94921875 C12.37902344 5.5421875 13.39867187 6.13515625 14.44921875 6.74609375 C16.08310547 7.70708984 16.08310547 7.70708984 17.75 8.6875 C18.90720972 9.36256639 20.06476857 10.03703462 21.22265625 10.7109375 C23.62570582 12.11015805 26.0272392 13.51192935 28.42773438 14.91552734 C33.93786812 18.13449365 39.47007617 21.31519845 45 24.5 C47.16676979 25.74982124 49.33343615 26.9998218 51.5 28.25 C53.10875 29.178125 53.10875 29.178125 54.75 30.125 C90.5 50.75 90.5 50.75 93.75463867 52.62768555 C95.90583224 53.86875254 98.05703655 55.10980093 100.20825195 56.35083008 C105.25962999 59.26498344 110.3109031 62.17931818 115.36178589 65.09432983 C117.15066918 66.12673478 118.93958717 67.15907956 120.72851562 68.19140625 C122.97337636 69.48685948 125.2181719 70.7824257 127.46289062 72.078125 C128.47931641 72.66464844 129.49574219 73.25117188 130.54296875 73.85546875 C131.43008545 74.36746826 132.31720215 74.87946777 133.23120117 75.40698242 C136.48352348 77.27819334 139.74217509 79.13838577 143 81 C143 95.19 143 109.38 143 124 C139.33511432 123.08377858 136.98707669 122.02289793 133.73828125 120.19140625 C132.19732788 119.3262439 132.19732788 119.3262439 130.62524414 118.44360352 C129.53203857 117.82283936 128.43883301 117.2020752 127.3125 116.5625 C126.18126709 115.9243335 125.05003418 115.28616699 123.88452148 114.62866211 C117.07991618 110.77925501 110.30914603 106.8776713 103.58496094 102.88964844 C97.27303706 99.14691469 90.92067937 95.47602017 84.5625 91.8125 C83.45527588 91.17449463 82.34805176 90.53648926 81.20727539 89.87915039 C78.93662932 88.57110523 76.66587642 87.26324552 74.39501953 85.95556641 C68.92830022 82.80667947 63.46424408 79.65317956 58 76.5 C46.44965344 69.82968988 46.44965344 69.82968988 34.88818359 63.17871094 C32.68479727 61.9008698 30.49335967 60.6021823 28.31494141 59.28222656 C22.51892965 55.80408523 17.23321005 53.10548706 10.63598633 51.5234375 C6.25408784 49.50239386 2.91319052 46.86413256 0 43 C-1.1167742 39.5666186 -1.17918625 36.3456353 -1.16015625 32.75390625 C-1.18346512 31.7981218 -1.20677399 30.84233734 -1.23078918 29.85758972 C-1.39157763 19.88701989 -0.79395721 9.93442973 0 0 Z " fill="#000000" transform="translate(39,359)"/>
<path d="M0 0 C3.78518732 1.4160506 7.19749321 3.15421065 10.69921875 5.16796875 C11.81248535 5.80613525 12.92575195 6.44430176 14.07275391 7.10180664 C15.27771682 7.79695534 16.4826309 8.4921887 17.6875 9.1875 C18.94434799 9.90968618 20.20134912 10.6316059 21.45849609 11.35327148 C24.68637148 13.20743067 27.91189349 15.06563953 31.13653564 16.92541504 C33.99525204 18.57392183 36.85518454 20.22031688 39.71484375 21.8671875 C45.07278109 24.95479176 50.42792501 28.04720933 55.78222656 31.14111328 C61.18670645 34.26324605 66.59347412 37.38141204 72 40.5 C74.1666775 41.74998122 76.33334417 42.99998121 78.5 44.25 C79.5725 44.86875 80.645 45.4875 81.75 46.125 C85 48 88.25 49.875 91.5 51.75 C92.57411133 52.36963623 93.64822266 52.98927246 94.75488281 53.62768555 C96.90542543 54.86847033 99.05581792 56.10951535 101.20605469 57.35083008 C106.26377813 60.27019474 111.32294493 63.18696209 116.38757324 66.09432983 C118.76923502 67.46174766 121.1500302 68.83067039 123.53076172 70.19970703 C125.20326021 71.16064553 126.87700336 72.11941672 128.55078125 73.078125 C129.57042969 73.66464844 130.59007812 74.25117188 131.640625 74.85546875 C132.53297852 75.36746826 133.42533203 75.87946777 134.34472656 76.40698242 C135.2209668 76.93267822 136.09720703 77.45837402 137 78 C138.08845215 78.52279541 139.1769043 79.04559082 140.29833984 79.58422852 C143.29149777 82.26065159 143.41904969 82.6273929 143.68115234 86.40136719 C143.68020511 88.20014956 143.64645603 89.99911071 143.5859375 91.796875 C143.57744781 92.74564514 143.56895813 93.69441528 143.56021118 94.67193604 C143.526652 97.69911779 143.45136782 100.72362504 143.375 103.75 C143.34490366 105.80334692 143.31752728 107.85673563 143.29296875 109.91015625 C143.2268522 114.94113298 143.12331254 119.97011326 143 125 C128.14903188 117.69147316 128.14903188 117.69147316 121.25 113.5 C119.80669256 112.63814459 118.36262956 111.77755369 116.91796875 110.91796875 C116.1398584 110.45438965 115.36174805 109.99081055 114.56005859 109.51318359 C109.58450931 106.57226671 104.57129104 103.69630438 99.5625 100.8125 C98.45616211 100.17505859 97.34982422 99.53761719 96.20996094 98.88085938 C93.93844323 97.57220371 91.66679503 96.26377451 89.39501953 94.95556641 C83.9283002 91.80667946 78.46425113 88.65316736 73 85.5 C70.83334689 84.2499765 68.66668021 82.99997653 66.5 81.75 C62.16666667 79.25 57.83333333 76.75 53.5 74.25 C51.88907471 73.3206665 51.88907471 73.3206665 50.24560547 72.37255859 C48.0934787 71.13088473 45.94145927 69.88902478 43.78955078 68.64697266 C38.74969023 65.73833177 33.70882508 62.83148102 28.66400146 59.93145752 C26.88250422 58.90724335 25.10135678 57.88242349 23.3203125 56.85742188 C21.08923375 55.57366625 18.85750427 54.29104061 16.625 53.00976562 C15.61179687 52.42646484 14.59859375 51.84316406 13.5546875 51.2421875 C12.67280762 50.7354248 11.79092773 50.22866211 10.88232422 49.70654297 C9.93115723 49.14338379 8.97999023 48.58022461 8 48 C7.30767273 47.68104263 6.61534546 47.36208527 5.90203857 47.03346252 C0.40999651 44.24375774 0.40999651 44.24375774 -0.69338989 40.89654541 C-0.92794025 38.26354359 -0.90044709 35.74622223 -0.78125 33.10546875 C-0.76993042 32.15811356 -0.75861084 31.21075836 -0.74694824 30.23469543 C-0.70225857 27.21688221 -0.60191575 24.20386957 -0.5 21.1875 C-0.45986315 19.13874064 -0.42336273 17.08990658 -0.390625 15.04101562 C-0.30254763 10.02550177 -0.16455553 5.01356384 0 0 Z " fill="#000000" transform="translate(39,200)"/>
<path d="M0 0 C3.80560234 0.58066603 6.526577 1.66421734 9.82421875 3.6328125 C10.75669434 4.18380615 11.68916992 4.7347998 12.64990234 5.30249023 C13.65230957 5.90391846 14.6547168 6.50534668 15.6875 7.125 C17.86025981 8.41086159 20.03345157 9.69599352 22.20703125 10.98046875 C23.32932129 11.6461084 24.45161133 12.31174805 25.60791016 12.99755859 C31.00694148 16.18475126 36.4405284 19.31124675 41.875 22.4375 C44.05994368 23.69653156 46.24483925 24.95564661 48.4296875 26.21484375 C49.51475586 26.83987793 50.59982422 27.46491211 51.71777344 28.10888672 C57.14659942 31.23680148 62.57319281 34.36858448 68 37.5 C70.16665583 38.75001879 72.3333225 40.00001878 74.5 41.25 C78.83333333 43.75 83.16666667 46.25 87.5 48.75 C88.57378906 49.3694751 89.64757812 49.9889502 90.75390625 50.62719727 C92.9076172 51.86976019 95.06126367 53.11243489 97.21484375 54.35522461 C102.23684262 57.25314623 107.25942807 60.15003349 112.28442383 63.04275513 C114.05045522 64.05947198 115.81627431 65.07655658 117.58203125 66.09375 C119.78734155 67.36400873 121.99304216 68.63359018 124.19921875 69.90234375 C126.19876704 71.05445224 128.18597548 72.22830924 130.15869141 73.42578125 C132.94061103 75.07788495 132.94061103 75.07788495 135.94677734 75.99609375 C139.27422814 77.28451843 140.8415037 78.12514062 143 81 C144.69479565 88.09236051 143.93112115 95.65747194 143.625 102.875 C143.57481862 104.9191629 143.52919482 106.96344311 143.48828125 109.0078125 C143.37827716 114.00810653 143.20586882 119.00277199 143 124 C139.60997279 122.70891809 136.47839169 121.24218459 133.32421875 119.453125 C132.42662842 118.94539551 131.52903809 118.43766602 130.60424805 117.91455078 C129.64172119 117.36524902 128.67919434 116.81594727 127.6875 116.25 C126.67276611 115.67362793 125.65803223 115.09725586 124.61254883 114.50341797 C115.4219122 109.26959599 106.28811786 103.93975958 97.16015625 98.59765625 C87.56057762 92.98321325 77.91864049 87.4419968 68.28222656 81.89111328 C61.77923729 78.14430021 55.27892422 74.3928437 48.77905273 70.640625 C43.78623626 67.7588905 38.79228234 64.87921921 33.79293823 62.00881958 C32.04975268 61.0078019 30.30703628 60.00597217 28.56445312 59.00390625 C26.39870382 57.75881961 24.23211129 56.5151979 22.06445312 55.2734375 C20.05859217 54.11945156 18.06609067 52.94191045 16.08813477 51.74072266 C12.98070435 49.90170601 12.98070435 49.90170601 9.37866211 48.53662109 C5.39618323 46.72347319 2.89370141 45.30360744 0 42 C-2.12025176 35.11271341 -1.216368 27.58791263 -0.8125 20.5 C-0.74723455 18.51320948 -0.68792863 16.52621369 -0.63476562 14.5390625 C-0.49202588 9.6876162 -0.268133 4.84606765 0 0 Z " fill="#000000" transform="translate(39,254)"/>
<path d="M0 0 C4.34560306 0.94591278 7.91067647 3.01416261 11.75 5.1875 C12.53439453 5.62747314 13.31878906 6.06744629 14.12695312 6.52075195 C22.69498363 11.34983908 31.17743241 16.32668655 39.6640625 21.296875 C46.05281992 25.03634589 52.46116076 28.74125034 58.875 32.4375 C59.95458984 33.05971436 61.03417969 33.68192871 62.14648438 34.32299805 C64.3368252 35.58511517 66.52725502 36.84707785 68.71777344 38.10888672 C74.14659941 41.23680148 79.57319975 44.36857247 85 47.5 C96.55047217 54.17021332 96.55047217 54.17021332 108.11181641 60.8215332 C110.31491402 62.09904517 112.5063421 63.39691383 114.68505859 64.71557617 C120.47696271 68.18813813 125.78629235 70.90226779 132.36401367 72.53149414 C136.72189179 74.5534047 140.07488399 77.17086624 143 81 C144.1139457 84.36004898 144.1792571 87.50243505 144.16015625 91.0234375 C144.18346512 91.95730789 144.20677399 92.89117828 144.23078918 93.85334778 C144.39146561 103.58741848 143.79431111 113.3029728 143 123 C140.03529672 121.85138815 137.19766038 120.65282613 134.41796875 119.109375 C133.74636719 118.73723877 133.07476562 118.36510254 132.3828125 117.98168945 C131.65835938 117.57523193 130.93390625 117.16877441 130.1875 116.75 C129.40761719 116.31453857 128.62773437 115.87907715 127.82421875 115.43041992 C119.26646158 110.62754585 110.80382282 105.66206012 102.3359375 100.703125 C95.94718008 96.96365411 89.53883924 93.25874966 83.125 89.5625 C82.04541016 88.94028564 80.96582031 88.31807129 79.85351562 87.67700195 C77.6631748 86.41488483 75.47274498 85.15292215 73.28222656 83.89111328 C66.7764039 80.1426677 60.27355917 76.38905819 53.77026367 72.63623047 C48.24262719 69.44671205 42.71400619 66.25892179 37.18359375 63.07421875 C27.41988106 57.45024164 17.65696476 51.82522407 7.9375 46.125 C7.23488037 45.71403076 6.53226074 45.30306152 5.80834961 44.87963867 C1.12047717 42.12047717 1.12047717 42.12047717 0 41 C-0.08871273 37.97022196 -0.1151935 34.96332978 -0.09765625 31.93359375 C-0.0962413 31.02497086 -0.09482635 30.11634796 -0.09336853 29.18019104 C-0.08775193 26.26592779 -0.07519665 23.35174019 -0.0625 20.4375 C-0.05748714 18.46679798 -0.05292386 16.49609476 -0.04882812 14.52539062 C-0.03777711 9.68356441 -0.02050138 4.84179505 0 0 Z " fill="#000000" transform="translate(39,307)"/>
<path d="M0 0 C2.54174805 1.25244141 2.54174805 1.25244141 5.26171875 2.8515625 C6.79602539 3.74584961 6.79602539 3.74584961 8.36132812 4.65820312 C9.45896484 5.30724609 10.55660156 5.95628906 11.6875 6.625 C12.84916922 7.30478918 14.01128693 7.98381248 15.17382812 8.66210938 C17.58817446 10.07158303 20.00055922 11.48432987 22.41162109 12.89941406 C27.92318558 16.13055506 33.4629771 19.31275937 39 22.5 C41.1511803 23.74064506 43.30222129 24.98153172 45.453125 26.22265625 C46.52369141 26.84027832 47.59425781 27.45790039 48.69726562 28.09423828 C51.5259145 29.72644061 54.35432981 31.3590466 57.18258667 32.9919281 C74.57060073 43.03201808 74.57060073 43.03201808 92 53 C90.78416075 56.64751775 89.99712003 56.85255743 86.71484375 58.64453125 C85.8036377 59.14944092 84.89243164 59.65435059 83.95361328 60.17456055 C82.9582959 60.71508057 81.96297852 61.25560059 80.9375 61.8125 C78.82856373 62.98021295 76.72051846 64.14953624 74.61328125 65.3203125 C73.52096191 65.92520508 72.42864258 66.53009766 71.30322266 67.15332031 C66.03753246 70.09712524 60.8309018 73.13959128 55.625 76.1875 C54.62799072 76.76741699 53.63098145 77.34733398 52.60375977 77.94482422 C48.00814436 80.62335955 43.43850153 83.33067632 38.921875 86.140625 C38.14763184 86.61604736 37.37338867 87.09146973 36.57568359 87.58129883 C35.15822381 88.45482768 33.74888672 89.34174844 32.35009766 90.24487305 C29.41805385 92.04130878 27.56897984 93.04608574 24.09130859 92.7644043 C20.9846598 91.99620675 18.81066176 91.00899665 16.078125 89.3671875 C15.14887207 88.81619385 14.21961914 88.2652002 13.26220703 87.69750977 C12.26817871 87.09608154 11.27415039 86.49465332 10.25 85.875 C8.08639879 84.58906731 5.92231998 83.3039379 3.7578125 82.01953125 C2.64180664 81.3538916 1.52580078 80.68825195 0.37597656 80.00244141 C-5.01253268 76.80627762 -10.44358238 73.68499872 -15.875 70.5625 C-18.04563689 69.3113089 -20.21620936 68.06000602 -22.38671875 66.80859375 C-26.8881477 64.21540108 -31.3910716 61.6248204 -35.89453125 59.03515625 C-55.55261045 47.72548924 -55.55261045 47.72548924 -64.0625 42.6875 C-64.66989014 42.33252441 -65.27728027 41.97754883 -65.90307617 41.61181641 C-69.88301206 39.23397588 -69.88301206 39.23397588 -71 37 C-69.9790625 36.44054687 -68.958125 35.88109375 -67.90625 35.3046875 C-58.99540974 30.39944632 -50.15741414 25.38174138 -41.375 20.25 C-40.37750732 19.66903564 -39.38001465 19.08807129 -38.35229492 18.48950195 C-32.97879488 15.35299986 -27.63098788 12.17955946 -22.30859375 8.95703125 C-20.67688232 7.97911621 -20.67688232 7.97911621 -19.01220703 6.98144531 C-16.91867848 5.72590324 -14.83206225 4.4587444 -12.75341797 3.17871094 C-11.80998535 2.61571289 -10.86655273 2.05271484 -9.89453125 1.47265625 C-9.06800049 0.97000244 -8.24146973 0.46734863 -7.38989258 -0.05053711 C-4.38452784 -1.24451642 -3.05092186 -1.00703449 0 0 Z M-18 38 C-21.18729548 41.6853104 -21.52442699 45.05886157 -21.3515625 49.7890625 C-20.6343854 54.29930959 -17.99871551 57.00128449 -14.875 60.125 C-5.48471657 66.24909789 5.11253666 68.18315728 16.1875 66.375 C24.43173116 64.36093701 31.14058825 61.0539848 36 54 C37.6176453 50.76470941 37.42638835 47.50656689 37 44 C34.36863332 37.06276058 29.62104988 34.05951232 23 31 C9.05421255 26.19899121 -7.03706366 27.72060406 -18 38 Z " fill="#000000" transform="translate(329,57)"/>
<path d="M0 0 C0.91297852 0.51240234 1.82595703 1.02480469 2.76660156 1.55273438 C3.79068115 2.12628662 4.81476074 2.69983887 5.86987305 3.29077148 C6.95469971 3.90315674 8.03952637 4.51554199 9.15722656 5.14648438 C10.84730835 6.09696655 10.84730835 6.09696655 12.5715332 7.06665039 C19.35952625 10.89486705 26.11232824 14.77505805 32.8137207 18.75268555 C38.09680675 21.88674101 43.41131957 24.96348715 48.73583984 28.02661133 C53.19109454 30.58972667 57.64162177 33.16098798 62.09179688 35.73291016 C64.29535939 37.00474543 66.50043141 38.27396907 68.70703125 39.54052734 C71.79963262 41.31729756 74.88536547 43.10545806 77.96972656 44.89648438 C79.37967896 45.70146362 79.37967896 45.70146362 80.81811523 46.52270508 C81.67381104 47.0224585 82.52950684 47.52221191 83.41113281 48.03710938 C84.16209229 48.47055664 84.91305176 48.90400391 85.68676758 49.35058594 C87.40722656 50.64648438 87.40722656 50.64648438 88.40722656 53.64648438 C87.68470703 54.05785645 86.9621875 54.46922852 86.21777344 54.89306641 C71.38346396 63.34337504 56.57937065 71.83959552 41.84472656 80.46289062 C40.96300781 80.97352051 40.08128906 81.48415039 39.17285156 82.01025391 C37.18431076 83.186737 35.21781461 84.40077718 33.26660156 85.63818359 C32.21988281 86.28932129 31.17316406 86.94045898 30.09472656 87.61132812 C29.14984375 88.21452881 28.20496094 88.81772949 27.23144531 89.43920898 C23.71364576 90.94297098 22.05186853 90.70816105 18.40722656 89.64648438 C15.75195312 88.39404297 15.75195312 88.39404297 13.04785156 86.79492188 C12.02820313 86.19873047 11.00855469 85.60253906 9.95800781 84.98828125 C8.86875 84.33923828 7.77949219 83.69019531 6.65722656 83.02148438 C5.50025305 82.34146259 4.34268943 81.66244391 3.18457031 80.984375 C0.78057508 79.57581113 -1.62083117 78.16297797 -4.02050781 76.74707031 C-9.52112189 73.5063148 -15.05879005 70.32979022 -20.59277344 67.14648438 C-22.74399447 65.90590993 -24.89503528 64.66502293 -27.04589844 63.42382812 C-28.11646484 62.80620605 -29.18703125 62.18858398 -30.29003906 61.55224609 C-33.11868794 59.92004376 -35.94710325 58.28743777 -38.77536011 56.65455627 C-56.16337416 46.61446629 -56.16337416 46.61446629 -73.59277344 36.64648438 C-73.59277344 35.98648438 -73.59277344 35.32648438 -73.59277344 34.64648438 C-72.60664062 34.11023438 -71.62050781 33.57398438 -70.60449219 33.02148438 C-61.64091776 28.11078975 -52.79255649 23.03040711 -44.01071167 17.8012085 C-42.2776216 16.76990636 -40.54299714 15.74123491 -38.80786133 14.71337891 C-33.31483427 11.45821953 -27.8323577 8.18748291 -22.37011719 4.88085938 C-20.48647483 3.76027355 -18.60238655 2.6404368 -16.71777344 1.52148438 C-15.86272217 0.99441895 -15.0076709 0.46735352 -14.12670898 -0.07568359 C-13.33433838 -0.54119629 -12.54196777 -1.00670898 -11.72558594 -1.48632812 C-11.04383301 -1.8977002 -10.36208008 -2.30907227 -9.65966797 -2.73291016 C-5.95152875 -3.84631553 -3.26223547 -1.7029975 0 0 Z M-16.59277344 34.64648438 C-18.84742302 38.16373773 -19.00656607 41.39026108 -18.30371094 45.52929688 C-16.17295483 51.8747354 -11.16379213 55.74822121 -5.34277344 58.64648438 C4.15774152 62.17627268 16.48289279 62.50086501 26.09472656 59.08398438 C31.67584207 56.32763661 36.59638337 52.47139976 39.96972656 47.20898438 C40.79530698 42.37344192 40.64932402 38.67733215 38.09082031 34.49414062 C33.99273992 29.38817967 29.59153239 26.66981549 23.40722656 24.64648438 C22.53324219 24.3603125 22.53324219 24.3603125 21.64160156 24.06835938 C7.55220884 21.40812439 -6.75528954 23.60441061 -16.59277344 34.64648438 Z " fill="#000000" transform="translate(164.5927734375,156.353515625)"/>
<path d="M0 0 C2.3581543 1.04711914 2.3581543 1.04711914 4.82421875 2.53515625 C5.75669434 3.08937256 6.68916992 3.64358887 7.64990234 4.21459961 C9.15351318 5.1293103 9.15351318 5.1293103 10.6875 6.0625 C12.86018566 7.35759561 15.03338004 8.65183809 17.20703125 9.9453125 C18.32932129 10.61723633 19.45161133 11.28916016 20.60791016 11.98144531 C25.99827379 15.18912679 31.43638249 18.31257357 36.875 21.4375 C39.06001428 22.69640903 41.24490947 23.95552477 43.4296875 25.21484375 C44.51475586 25.83987793 45.59982422 26.46491211 46.71777344 27.10888672 C53.22871257 30.86028024 59.73663194 34.61690994 66.24511719 38.37255859 C71.68585336 41.51182246 77.12731477 44.64981497 82.5703125 47.78515625 C94.31753542 54.55386907 106.04698947 61.35142611 117.75244141 68.19213867 C125.14218491 72.50792378 132.5553455 76.77961488 140 81 C138.78416075 84.64751775 137.99712003 84.85255743 134.71484375 86.64453125 C133.80436279 87.14903809 132.89388184 87.65354492 131.95581055 88.17333984 C130.95976807 88.7142627 129.96372559 89.25518555 128.9375 89.8125 C126.8168463 90.98672576 124.69708093 92.16255703 122.578125 93.33984375 C121.48435547 93.94554199 120.39058594 94.55124023 119.26367188 95.17529297 C114.19834466 98.00729893 109.19218497 100.93754 104.1875 103.875 C94.52752042 109.5338046 84.83952288 115.14192504 75.12719727 120.71044922 C70.43512994 123.40768124 65.76158493 126.11811985 61.16796875 128.98046875 C60.4706665 129.41319092 59.77336426 129.84591309 59.05493164 130.29174805 C57.28196281 131.40173195 55.51934976 132.52821222 53.7578125 133.65625 C51 135 51 135 48.9765625 134.91015625 C46.33211215 133.6924548 43.79117493 132.35934788 41.25 130.9375 C40.26515625 130.38964844 39.2803125 129.84179688 38.265625 129.27734375 C37.51796875 128.85582031 36.7703125 128.43429688 36 128 C37.43578933 124.38397374 38.99442805 123.09765 42.3828125 121.2578125 C43.2905542 120.75628662 44.1982959 120.25476074 45.13354492 119.73803711 C46.1207251 119.20573486 47.10790527 118.67343262 48.125 118.125 C50.22872826 116.96380292 52.33156551 115.80099043 54.43359375 114.63671875 C55.5201123 114.03778809 56.60663086 113.43885742 57.72607422 112.82177734 C65.92305273 108.26056529 73.98981045 103.47102436 82.07226562 98.7109375 C85.01023335 96.99401974 87.96400309 95.30735107 90.921875 93.625 C92.76063801 92.5628831 94.59918985 91.50040051 96.4375 90.4375 C97.29045654 89.96111084 98.14341309 89.48472168 99.0222168 88.99389648 C99.79734619 88.54087158 100.57247559 88.08784668 101.37109375 87.62109375 C102.05099365 87.2336499 102.73089355 86.84620605 103.43139648 86.44702148 C105.54916788 84.49339797 105.67250937 82.80049855 106 80 C97.37307391 74.62067046 88.65863368 69.4505623 79.8125 64.4375 C77.34182403 63.03234523 74.87211894 61.62548727 72.40234375 60.21875 C71.47219452 59.68936073 71.47219452 59.68936073 70.52325439 59.14927673 C64.29361901 55.60215936 58.0825119 52.02317918 51.875 48.4375 C50.29247437 47.52363525 50.29247437 47.52363525 48.67797852 46.59130859 C46.5420483 45.35760651 44.40622488 44.12371949 42.27050781 42.88964844 C38.87603332 40.92837398 35.48109282 38.967908 32.0859375 37.0078125 C30.94874268 36.35111572 29.81154785 35.69441895 28.63989258 35.01782227 C26.41165844 33.73255563 24.18235893 32.44913392 21.9519043 31.16772461 C17.42227746 28.56435031 12.90022398 25.95642272 8.43359375 23.24609375 C7.4595459 22.66299438 7.4595459 22.66299438 6.46582031 22.06811523 C4.84981761 21.09749307 3.24273767 20.11205388 1.63671875 19.125 C-1.57341004 17.75534505 -2.68217863 18.06657816 -6 19 C-8.63918184 20.2619802 -8.63918184 20.2619802 -11.33203125 21.88671875 C-12.36553711 22.48822754 -13.39904297 23.08973633 -14.46386719 23.70947266 C-15.56891602 24.36222168 -16.67396484 25.0149707 -17.8125 25.6875 C-18.97650646 26.36832855 -20.14090068 27.04849455 -21.30566406 27.72802734 C-23.70223858 29.12762193 -26.09644623 30.53113987 -28.48876953 31.93798828 C-31.74590758 33.85265802 -35.01042545 35.75439997 -38.27734375 37.65234375 C-39.76790283 38.519198 -39.76790283 38.519198 -41.28857422 39.40356445 C-43.25698542 40.54777446 -45.22605764 41.6908481 -47.19580078 42.83276367 C-52.24421331 45.76961694 -57.25093576 48.75811216 -62.21484375 51.8359375 C-63.71966309 52.75802002 -63.71966309 52.75802002 -65.25488281 53.69873047 C-67.16603406 54.8725961 -69.06830172 56.06108838 -70.95996094 57.26611328 C-71.81235352 57.7867334 -72.66474609 58.30735352 -73.54296875 58.84375 C-74.6570813 59.54274414 -74.6570813 59.54274414 -75.79370117 60.25585938 C-78 61 -78 61 -80.61132812 60.22900391 C-83.24719122 58.87281678 -85.7854327 57.42493461 -88.3125 55.875 C-89.19550781 55.33617187 -90.07851562 54.79734375 -90.98828125 54.2421875 C-91.65214844 53.83226562 -92.31601563 53.42234375 -93 53 C-90.16572371 49.94814792 -87.38442939 47.86918503 -83.765625 45.8203125 C-82.72921875 45.22863281 -81.6928125 44.63695312 -80.625 44.02734375 C-79.51125 43.39957031 -78.3975 42.77179688 -77.25 42.125 C-76.07769601 41.45778443 -74.90582746 40.78980325 -73.734375 40.12109375 C-71.93016193 39.09124878 -70.12572035 38.06183489 -68.31994629 37.034729 C-62.52008286 33.73507645 -56.7577588 30.37252567 -51 27 C-44.67763909 23.30244406 -38.34807794 19.61809568 -32 15.96484375 C-31.12118164 15.45892197 -31.12118164 15.45892197 -30.22460938 14.94277954 C-27.3931652 13.31319993 -24.5606259 11.68556772 -21.7265625 10.06054688 C-20.19128906 9.17786133 -20.19128906 9.17786133 -18.625 8.27734375 C-17.65691406 7.72159668 -16.68882812 7.16584961 -15.69140625 6.59326172 C-12.65137542 4.79362083 -9.71469363 2.86917203 -6.81640625 0.84985352 C-4.35485854 -0.30184643 -2.69585041 -0.30064487 0 0 Z " fill="#000000" transform="translate(328,29)"/>
<path d="M0 0 C6.07549529 0.15578193 11.23530432 3.45001923 16 7 C16 7.66 16 8.32 16 9 C14.20947266 10.27416992 14.20947266 10.27416992 11.6640625 11.73046875 C10.71490967 12.27856201 9.76575684 12.82665527 8.7878418 13.39135742 C7.744104 13.98408447 6.70036621 14.57681152 5.625 15.1875 C4.55096924 15.80536377 3.47693848 16.42322754 2.37036133 17.05981445 C0.08307133 18.37499379 -2.20551024 19.68755036 -4.49658203 20.99609375 C-7.90848869 22.94568703 -11.31245207 24.90884135 -14.71484375 26.875 C-15.80821045 27.50664062 -16.90157715 28.13828125 -18.02807617 28.7890625 C-20.21217184 30.05149675 -22.39593023 31.3145147 -24.5793457 32.578125 C-29.64317211 35.50445491 -34.71599863 38.40876344 -39.828125 41.25 C-40.71717529 41.74927002 -41.60622559 42.24854004 -42.5222168 42.76293945 C-44.16873937 43.68628969 -45.82097104 44.59956098 -47.47973633 45.50073242 C-48.1992749 45.90654541 -48.91881348 46.3123584 -49.66015625 46.73046875 C-50.59807007 47.24710083 -50.59807007 47.24710083 -51.55493164 47.77416992 C-53.14161434 48.9447277 -53.14161434 48.9447277 -53.89624023 50.9543457 C-54.21544631 53.04246885 -54.21544631 53.04246885 -52.87915039 54.55957031 C-50.65290102 56.26606262 -48.37226035 57.6578022 -45.93359375 59.046875 C-44.90427734 59.63662109 -43.87496094 60.22636719 -42.81445312 60.83398438 C-41.70005859 61.46626953 -40.58566406 62.09855469 -39.4375 62.75 C-38.26598539 63.41941347 -37.09476624 64.08934426 -35.92382812 64.75976562 C-33.49056166 66.15239997 -31.05603768 67.54279747 -28.62060547 68.93164062 C-23.06842407 72.10029766 -17.53519338 75.30179441 -12 78.5 C-9.83342291 79.75015525 -7.66675593 81.00015473 -5.5 82.25 C7.5 89.75 7.5 89.75 10.75488281 91.62890625 C12.90401574 92.86806926 15.0543918 94.10507894 17.20605469 95.33984375 C22.29101476 98.26141814 27.36040345 101.20344899 32.38757324 104.2232666 C34.76362942 105.64877251 37.14686624 107.06201836 39.53076172 108.47436523 C41.21124983 109.47688307 42.88117355 110.49704276 44.55078125 111.51757812 C45.57042969 112.12021484 46.59007812 112.72285156 47.640625 113.34375 C48.53297852 113.88193359 49.42533203 114.42011719 50.34472656 114.97460938 C53.73680029 116.28453119 55.52103677 115.98013697 59 115 C61.74049153 113.75680231 61.74049153 113.75680231 64.4296875 112.11328125 C65.46013184 111.51169189 66.49057617 110.91010254 67.55224609 110.2902832 C68.64875488 109.63761475 69.74526367 108.98494629 70.875 108.3125 C72.03285207 107.63218141 73.19122672 106.95275149 74.35009766 106.27416992 C76.73482842 104.87616266 79.11656743 103.4732527 81.49609375 102.06640625 C84.76960367 100.13275574 88.05474981 98.2197064 91.34375 96.3125 C92.85062378 95.43803223 92.85062378 95.43803223 94.38793945 94.54589844 C96.37072072 93.39528568 98.35362978 92.24489311 100.33666992 91.09472656 C105.1895977 88.26746374 110.00415088 85.39465362 114.76953125 82.421875 C115.6836377 81.85621826 116.59774414 81.29056152 117.53955078 80.70776367 C119.25814614 79.63994013 120.96930618 78.56002009 122.67138672 77.46606445 C128.26117073 74.00214776 128.26117073 74.00214776 131.6875 73.9921875 C134.4918937 75.21437259 137.14942678 76.55449468 139.8125 78.0625 C140.78832031 78.61035156 141.76414062 79.15820312 142.76953125 79.72265625 C143.50558594 80.14417969 144.24164063 80.56570312 145 81 C143.73707574 84.78877279 142.65511028 85.03289649 139.20703125 86.8984375 C138.19584229 87.45329834 137.18465332 88.00815918 136.14282227 88.57983398 C134.49431274 89.46844116 134.49431274 89.46844116 132.8125 90.375 C130.50402112 91.64237117 128.19674976 92.91194403 125.890625 94.18359375 C125.30632217 94.50487747 124.72201935 94.82616119 124.12001038 95.15718079 C118.70251798 98.14360638 113.37394759 101.26738369 108.0625 104.4375 C98.83487157 109.93448658 89.55036419 115.32623513 80.22607422 120.65771484 C75.49721574 123.36879376 70.79376324 126.09154215 66.1953125 129.01953125 C65.5036499 129.45620117 64.8119873 129.89287109 64.09936523 130.34277344 C62.34140907 131.46430951 60.59769205 132.60808296 58.85546875 133.75390625 C56 135 56 135 53.61376953 134.23706055 C51.12244433 133.05795119 48.72143758 131.81283717 46.32421875 130.453125 C45.42662842 129.94539551 44.52903809 129.43766602 43.60424805 128.91455078 C42.64172119 128.36524902 41.67919434 127.81594727 40.6875 127.25 C39.67276611 126.67362793 38.65803223 126.09725586 37.61254883 125.50341797 C28.4219122 120.26959599 19.28811786 114.93975958 10.16015625 109.59765625 C0.56057762 103.98321325 -9.08135951 98.4419968 -18.71777344 92.89111328 C-24.14659944 89.76319851 -29.57317941 86.63139233 -35 83.5 C-37.15103629 82.25910526 -39.30207797 81.01821986 -41.453125 79.77734375 C-45.36329371 77.52152246 -49.27315265 75.26516622 -53.18258667 73.0080719 C-70.57060073 62.96798192 -70.57060073 62.96798192 -88 53 C-85.08252244 49.83548318 -82.18463869 47.76705881 -78.43359375 45.671875 C-77.32242188 45.04539063 -76.21125 44.41890625 -75.06640625 43.7734375 C-74.47617676 43.4444043 -73.88594727 43.11537109 -73.27783203 42.77636719 C-70.10299013 41.00573368 -66.94069985 39.21292302 -63.77734375 37.421875 C-63.12675995 37.05412964 -62.47617615 36.68638428 -61.80587769 36.30749512 C-55.31528977 32.63024402 -48.90466854 28.82497746 -42.5 25 C-31.63248111 18.51752136 -20.67960156 12.20008982 -9.66992188 5.96289062 C-8.54908203 5.32673828 -7.42824219 4.69058594 -6.2734375 4.03515625 C-5.27747559 3.4719165 -4.28151367 2.90867676 -3.25537109 2.32836914 C-1.10538068 1.18885619 -1.10538068 1.18885619 0 0 Z " fill="#000000" transform="translate(132,140)"/>
<path d="M0 0 C3.76625444 36.83686553 3.76625444 36.83686553 -1.93652344 46.16894531 C-7.26632788 51.0352885 -13.7855528 53.32588154 -20.51855469 55.66992188 C-26.40581365 57.91913554 -31.62384478 61.24593644 -37 64.5 C-39.17029524 65.75759072 -41.34347833 67.010211 -43.51953125 68.2578125 C-49.91725986 71.94914305 -56.30555633 75.65645079 -62.6875 79.375 C-63.6777417 79.95137207 -64.6679834 80.52774414 -65.68823242 81.12158203 C-70.05663681 83.67070738 -74.41165786 86.23616324 -78.7265625 88.875 C-79.42692627 89.30248535 -80.12729004 89.7299707 -80.84887695 90.17041016 C-82.11168509 90.94508321 -83.37096474 91.72555374 -84.62573242 92.51318359 C-87.34237505 94.18279108 -88.74005938 95 -92 95 C-92.32281905 89.16557097 -92.5578377 83.33638488 -92.71411133 77.49511719 C-92.77926353 75.51177429 -92.86782452 73.52905072 -92.98071289 71.54785156 C-93.89065852 55.16059551 -93.89065852 55.16059551 -89.48120117 50.12158203 C-86.07709365 48.01385281 -82.70881489 46.49958942 -79 45 C-76.94368652 43.84224773 -74.9049673 42.65258906 -72.88671875 41.4296875 C-70.82130725 40.24305855 -68.75487119 39.05821143 -66.6875 37.875 C-64.40206902 36.56167588 -62.116919 35.24786273 -59.83203125 33.93359375 C-58.12007568 32.94915283 -58.12007568 32.94915283 -56.37353516 31.94482422 C-48.24849975 27.26078658 -40.15704743 22.51890589 -32.06005859 17.78662109 C-28.79822906 15.88219565 -25.53411827 13.98172561 -22.26953125 12.08203125 C-21.16818848 11.44080322 -20.0668457 10.7995752 -18.93212891 10.13891602 C-16.81371357 8.90564443 -14.69491546 7.67303006 -12.57568359 6.44116211 C-11.6264502 5.88823486 -10.6772168 5.33530762 -9.69921875 4.765625 C-8.86221436 4.27868164 -8.02520996 3.79173828 -7.1628418 3.29003906 C-1.64685844 0 -1.64685844 0 0 0 Z " fill="#000000" transform="translate(283,388)"/>
<path d="M0 0 C0 14.19 0 28.38 0 43 C-8.91 47.95 -8.91 47.95 -18 53 C-21.88507193 55.23551668 -25.76151267 57.47833578 -29.625 59.75 C-31.67965681 60.95317741 -33.73434523 62.15630084 -35.7890625 63.359375 C-36.81676758 63.96201172 -37.84447266 64.56464844 -38.90332031 65.18554688 C-44.91236862 68.70645881 -50.93089028 72.21114748 -56.94799805 75.71826172 C-62.23875518 78.80297415 -67.52595919 81.89358209 -72.80859375 84.9921875 C-74.47245117 85.96671875 -74.47245117 85.96671875 -76.16992188 86.9609375 C-78.31418296 88.21699002 -80.45744702 89.47474649 -82.59960938 90.734375 C-83.55544922 91.29382813 -84.51128906 91.85328125 -85.49609375 92.4296875 C-86.34357178 92.92710449 -87.1910498 93.42452148 -88.06420898 93.93701172 C-90 95 -90 95 -91 95 C-91.22297148 88.98624962 -91.38601105 82.97491662 -91.49438477 76.95800781 C-91.53956701 74.91298509 -91.60092981 72.86825188 -91.67895508 70.82421875 C-91.78852332 67.87948281 -91.83924086 64.93859387 -91.87890625 61.9921875 C-91.92535782 61.0825827 -91.97180939 60.17297791 -92.01966858 59.23580933 C-92.02179106 56.5492547 -91.90595044 54.53310262 -91 52 C-88.31149753 49.36226012 -85.33768023 47.70350907 -82 46 C-81.0917749 45.45472656 -80.1835498 44.90945313 -79.24780273 44.34765625 C-78.10226929 43.71150391 -78.10226929 43.71150391 -76.93359375 43.0625 C-76.04889404 42.56766113 -75.16419434 42.07282227 -74.25268555 41.56298828 C-73.32367432 41.04720215 -72.39466309 40.53141602 -71.4375 40 C-63.31054265 35.44743235 -55.22568383 30.83258447 -47.1875 26.125 C-38.45420989 21.01230224 -29.70468859 15.92926266 -20.9375 10.875 C-19.84912842 10.2473877 -18.76075684 9.61977539 -17.6394043 8.97314453 C-15.63402948 7.81746214 -13.62782573 6.66321638 -11.62060547 5.51074219 C-10.00039166 4.57671172 -8.38399078 3.63598841 -6.77392578 2.68457031 C-2.20827399 0 -2.20827399 0 0 0 Z " fill="#000000" transform="translate(473,278)"/>
<path d="M0 0 C0.37280447 5.95837127 0.64375873 11.90988905 0.82397461 17.87719727 C0.89910507 19.90248838 1.00126198 21.92697363 1.1315918 23.94946289 C2.15193861 40.19898605 2.15193861 40.19898605 -1.32330322 44.72244263 C-4.80579905 47.70880858 -8.79548437 49.47561582 -13.02316284 51.1725769 C-15.91237754 52.38188388 -18.52601638 53.97984631 -21.203125 55.59765625 C-23.21823617 56.75350044 -25.23387336 57.90842799 -27.25 59.0625 C-36.4816392 64.36546536 -45.66346427 69.74352663 -54.8125 75.1875 C-63.20172739 80.17298358 -71.60432963 85.13219462 -80.0625 90 C-81.38374878 90.76606567 -81.38374878 90.76606567 -82.73168945 91.54760742 C-83.5330835 92.00627197 -84.33447754 92.46493652 -85.16015625 92.9375 C-85.85761963 93.33839844 -86.55508301 93.73929687 -87.27368164 94.15234375 C-89 95 -89 95 -91 95 C-91 80.81 -91 66.62 -91 52 C-84.8125 48.473125 -84.8125 48.473125 -78.5 44.875 C-68.29223223 39.04819988 -58.11451412 33.1735283 -47.96972656 27.23754883 C-39.35941356 22.20147689 -30.72222161 17.21300715 -22.07763672 12.23608398 C-20.56194092 11.36318726 -20.56194092 11.36318726 -19.015625 10.47265625 C-18.03271484 9.90691895 -17.04980469 9.34118164 -16.03710938 8.75830078 C-11.7745999 6.2905682 -7.53229833 3.78862575 -3.29199219 1.28295898 C-1 0 -1 0 0 0 Z " fill="#000000" transform="translate(282,230)"/>
<path d="M0 0 C0.32275334 5.97685713 0.55781436 11.94860005 0.71411133 17.93212891 C0.77927325 19.96395211 0.86784079 21.99517046 0.98071289 24.02490234 C1.89078303 40.81796137 1.89078303 40.81796137 -2.52319336 45.91186523 C-5.92699762 48.01898216 -9.28543469 49.51697864 -13 51 C-15.03350663 52.14496278 -17.04887631 53.32285086 -19.04296875 54.53515625 C-21.09005551 55.71283478 -23.13826829 56.8885578 -25.1875 58.0625 C-26.88831853 59.0404645 -28.58913539 60.01843191 -30.28985596 60.99656677 C-32.03679182 62.00094035 -33.78420558 63.0044778 -35.53173828 64.0078125 C-41.06620975 67.18684159 -46.5958234 70.3742735 -52.125 73.5625 C-53.18420654 74.1723877 -54.24341309 74.78227539 -55.3347168 75.41064453 C-60.87010947 78.60156118 -66.39306033 81.81226604 -71.8984375 85.0546875 C-73.00687012 85.70622803 -74.11530273 86.35776855 -75.25732422 87.02905273 C-77.37837494 88.2773778 -79.49728476 89.52934949 -81.61376953 90.78540039 C-82.55591309 91.3396167 -83.49805664 91.89383301 -84.46875 92.46484375 C-85.29826172 92.955896 -86.12777344 93.44694824 -86.98242188 93.95288086 C-89 95 -89 95 -91 95 C-91 80.81 -91 66.62 -91 52 C-87.7 50.14375 -84.4 48.2875 -81 46.375 C-69.615254 39.95151527 -58.31620904 33.38771475 -47.03808594 26.77929688 C-38.98709378 22.06412243 -30.92569398 17.36672335 -22.86425781 12.66943359 C-20.94916541 11.55322137 -19.03445386 10.43635548 -17.12011719 9.31884766 C-14.43547516 7.75210808 -11.74922182 6.18816961 -9.0625 4.625 C-8.25707764 4.15425049 -7.45165527 3.68350098 -6.62182617 3.19848633 C-1.11430143 0 -1.11430143 0 0 0 Z " fill="#000000" transform="translate(473,119)"/>
<path d="M0 0 C0.32275334 5.97685713 0.55781436 11.94860005 0.71411133 17.93212891 C0.77927325 19.96395211 0.86784079 21.99517046 0.98071289 24.02490234 C1.890673 40.81593091 1.890673 40.81593091 -2.51879883 45.90966797 C-5.92373825 48.01791228 -9.28423998 49.51559523 -13 51 C-15.05686364 52.15677457 -17.09561649 53.34644798 -19.11328125 54.5703125 C-21.17868212 55.75695996 -23.24511881 56.94180605 -25.3125 58.125 C-27.60054836 59.43960695 -29.88835514 60.75462414 -32.17578125 62.0703125 C-33.88822021 63.05499512 -33.88822021 63.05499512 -35.63525391 64.05957031 C-40.76846056 67.01986102 -45.88453221 70.00919598 -51 73 C-53.94660254 74.71965494 -56.89362361 76.43859013 -59.84082031 78.15722656 C-62.07502172 79.46045317 -64.30872213 80.76451589 -66.54199219 82.06933594 C-69.56414181 83.83443263 -72.58905611 85.59471168 -75.61572266 87.35205078 C-77.34580928 88.35802677 -79.07331937 89.36842969 -80.80078125 90.37890625 C-81.84363281 90.98347656 -82.88648438 91.58804688 -83.9609375 92.2109375 C-84.88696777 92.75024902 -85.81299805 93.28956055 -86.76708984 93.84521484 C-89 95 -89 95 -91 95 C-91.22300529 89.12867095 -91.3860246 83.25981949 -91.49438477 77.38525391 C-91.53956174 75.38872331 -91.60092086 73.39248914 -91.67895508 71.39697266 C-92.30567885 54.95469017 -92.30567885 54.95469017 -89.3762207 50.5690918 C-86.98764523 48.9459162 -84.70401398 48.00700207 -82 47 C-80.09977519 45.9144455 -78.21629608 44.79922081 -76.34765625 43.66015625 C-74.25434715 42.45789761 -72.15920549 41.2588256 -70.0625 40.0625 C-68.33476359 39.07112539 -66.60702982 38.07974615 -64.87945557 37.08808899 C-63.09776381 36.065892 -61.31531765 35.04502131 -59.53271484 34.02441406 C-53.97347719 30.84035359 -48.42422196 27.63897421 -42.875 24.4375 C-41.81394043 23.82559814 -40.75288086 23.21369629 -39.65966797 22.58325195 C-31.9912408 18.15772391 -24.33544915 13.71081768 -16.6875 9.25 C-15.18388916 8.37299438 -15.18388916 8.37299438 -13.64990234 7.47827148 C-8.43403749 4.43666533 -8.43403749 4.43666533 -3.26098633 1.32324219 C-1 0 -1 0 0 0 Z " fill="#000000" transform="translate(282,283)"/>
<path d="M0 0 C0.32281905 5.83442903 0.5578377 11.66361512 0.71411133 17.50488281 C0.77926353 19.48822571 0.86782452 21.47094928 0.98071289 23.45214844 C1.89076904 39.84139488 1.89076904 39.84139488 -2.52319336 44.88061523 C-5.9261551 46.9872106 -9.29239914 48.50176232 -13 50 C-15.03295671 51.14593892 -17.0482913 52.32381367 -19.04296875 53.53515625 C-21.09005551 54.71283478 -23.13826829 55.8885578 -25.1875 57.0625 C-26.88831853 58.0404645 -28.58913539 59.01843191 -30.28985596 59.99656677 C-32.03679182 61.00094035 -33.78420558 62.0044778 -35.53173828 63.0078125 C-41.06620975 66.18684159 -46.5958234 69.3742735 -52.125 72.5625 C-53.18420654 73.1723877 -54.24341309 73.78227539 -55.3347168 74.41064453 C-60.87010947 77.60156118 -66.39306033 80.81226604 -71.8984375 84.0546875 C-73.00687012 84.70622803 -74.11530273 85.35776855 -75.25732422 86.02905273 C-77.37837494 87.2773778 -79.49728476 88.52934949 -81.61376953 89.78540039 C-82.55591309 90.3396167 -83.49805664 90.89383301 -84.46875 91.46484375 C-85.29826172 91.955896 -86.12777344 92.44694824 -86.98242188 92.95288086 C-89 94 -89 94 -91 94 C-91.22300529 88.12867095 -91.3860246 82.25981949 -91.49438477 76.38525391 C-91.53956174 74.38872331 -91.60092086 72.39248914 -91.67895508 70.39697266 C-92.30450794 53.98540922 -92.30450794 53.98540922 -89.41577148 49.58886719 C-87.01966782 47.95437534 -84.71399953 47.0195586 -82 46 C-79.93115107 44.82899183 -77.87865041 43.62881429 -75.83984375 42.40625 C-74.13677545 41.43959693 -72.43364657 40.47304242 -70.72814941 39.51068115 C-67.62056315 37.75669244 -64.51965351 35.99095934 -61.41796875 34.2265625 C-60.47662582 33.69157639 -60.47662582 33.69157639 -59.51626587 33.14578247 C-50.64209843 28.09762752 -41.83795578 22.92930995 -33.02783203 17.77050781 C-29.78011722 15.87142477 -26.5291011 13.97808969 -23.27734375 12.0859375 C-22.17487305 11.44414551 -21.07240234 10.80235352 -19.93652344 10.14111328 C-17.81643617 8.90710397 -15.69600902 7.67367837 -13.57519531 6.44091797 C-12.62612305 5.88807129 -11.67705078 5.33522461 -10.69921875 4.765625 C-9.86221436 4.27868164 -9.02520996 3.79173828 -8.1628418 3.29003906 C-2.64685844 0 -2.64685844 0 0 0 Z " fill="#000000" transform="translate(473,173)"/>
<path d="M0 0 C1.25327816 8.67426378 1.11200681 17.3222128 1.0625 26.0625 C1.05747503 27.61132668 1.05291388 29.16015493 1.04882812 30.70898438 C1.03790138 34.47269576 1.02069175 38.23633015 1 42 C0.33806641 42.3810791 -0.32386719 42.7621582 -1.00585938 43.15478516 C-13.02101773 50.07404445 -25.02936649 57.00388786 -37 64 C-48.70076431 70.83697066 -60.43402124 77.61671064 -72.18066406 84.37451172 C-74.68395896 85.81778652 -77.18291679 87.26813574 -79.6796875 88.72265625 C-80.34145996 89.10631348 -81.00323242 89.4899707 -81.68505859 89.88525391 C-83.34356326 90.84680289 -85.00001529 91.8118901 -86.65625 92.77734375 C-89 94 -89 94 -91 94 C-91.22304079 88.27109258 -91.38603876 82.54472602 -91.49438477 76.8125 C-91.53955622 74.864461 -91.6009115 72.91672569 -91.67895508 70.96972656 C-92.30447721 54.95963073 -92.30447721 54.95963073 -89.41577148 50.62011719 C-87.02136521 48.9867832 -84.70655437 48.03379448 -82 47 C-79.93173267 45.8279649 -77.8792024 44.62789328 -75.83984375 43.40625 C-74.13696042 42.43968522 -72.43401619 41.47321952 -70.72869873 40.51095581 C-67.6183762 38.75548414 -64.51461816 36.98846474 -61.41015625 35.22265625 C-60.7821814 34.86579239 -60.15420654 34.50892853 -59.50720215 34.14125061 C-53.60441645 30.78333523 -47.73545363 27.36872965 -41.875 23.9375 C-35.53780247 20.22776414 -29.19494139 16.52873018 -22.83203125 12.86328125 C-22.23382568 12.51865341 -21.63562012 12.17402557 -21.01928711 11.81895447 C-18.10936497 10.14315638 -15.19845516 8.46910641 -12.28662109 6.79663086 C-11.24715332 6.19858643 -10.20768555 5.60054199 -9.13671875 4.984375 C-7.75552856 4.19111816 -7.75552856 4.19111816 -6.34643555 3.38183594 C-0.60388693 0 -0.60388693 0 0 0 Z " fill="#000000" transform="translate(282,336)"/>
<path d="M0 0 C0.22304079 5.72890742 0.38603876 11.45527398 0.49438477 17.1875 C0.53955622 19.135539 0.6009115 21.08327431 0.67895508 23.03027344 C1.30676423 39.09890512 1.30676423 39.09890512 -1.67211914 43.43261719 C-4.05154908 45.04966965 -6.30442506 46.00522528 -9 47 C-10.70291928 47.95440335 -12.39157829 48.93461858 -14.06640625 49.9375 C-15.89678843 50.96128721 -17.72890002 51.98198707 -19.5625 53 C-27.68945735 57.55256765 -35.77431617 62.16741553 -43.8125 66.875 C-52.54579011 71.98769776 -61.29531141 77.07073734 -70.0625 82.125 C-71.15087158 82.7526123 -72.23924316 83.38022461 -73.3605957 84.02685547 C-75.36597052 85.18253786 -77.37217427 86.33678362 -79.37939453 87.48925781 C-80.99960834 88.42328828 -82.61600922 89.36401159 -84.22607422 90.31542969 C-88.79172601 93 -88.79172601 93 -91 93 C-91 79.14 -91 65.28 -91 51 C-82.09 46.05 -82.09 46.05 -73 41 C-69.11492832 38.76448347 -65.23846078 36.52170941 -61.375 34.25 C-59.32296122 33.04810102 -57.27087653 31.8462804 -55.21875 30.64453125 C-54.19136719 30.04205566 -53.16398437 29.43958008 -52.10546875 28.81884766 C-49.04169272 27.02441908 -45.97467785 25.23567956 -42.90625 23.44921875 C-41.90762939 22.86769043 -40.90900879 22.28616211 -39.88012695 21.68701172 C-37.88934444 20.52802663 -35.89829955 19.36949209 -33.90698242 18.21142578 C-28.82134946 15.24861955 -23.75293397 12.26051261 -18.70703125 9.23046875 C-17.69592285 8.62533447 -16.68481445 8.0202002 -15.64306641 7.39672852 C-13.71357426 6.24008516 -11.78730344 5.07804611 -9.86474609 3.90991211 C-9.00574707 3.39565674 -8.14674805 2.88140137 -7.26171875 2.3515625 C-6.50850342 1.89604004 -5.75528809 1.44051758 -4.97924805 0.97119141 C-3 0 -3 0 0 0 Z " fill="#000000" transform="translate(473,226)"/>
</svg>
