<?xml version="1.0" encoding="UTF-8"?>
<svg version="1.1" xmlns="http://www.w3.org/2000/svg" width="512" height="512">
<path d="M0 0 C1.1492395 -0.0071553 2.298479 -0.01431061 3.48254395 -0.02168274 C5.36054687 -0.02571609 5.36054687 -0.02571609 7.27648926 -0.02983093 C8.61572443 -0.03610146 9.95495787 -0.04274878 11.29418945 -0.04974365 C15.68476158 -0.07072513 20.07533381 -0.08114393 24.46594238 -0.09111023 C25.98279335 -0.09516069 27.49964414 -0.0992777 29.01649475 -0.10346031 C36.14828388 -0.12250295 43.28006274 -0.13673311 50.41187239 -0.14507228 C58.61634789 -0.15482645 66.82055229 -0.18110199 75.02493238 -0.22157317 C81.38357238 -0.25185146 87.7421352 -0.26655239 94.10084581 -0.26985329 C97.89018337 -0.27219141 101.67923105 -0.28098793 105.4684906 -0.30631447 C109.04075342 -0.32980501 112.61253983 -0.33374565 116.18486023 -0.32355309 C118.09915284 -0.3228312 120.0134224 -0.34177606 121.9276123 -0.36161804 C135.09751939 -0.28357608 145.60433734 2.85028884 155.14562988 11.95967102 C162.33036325 19.47787302 165.35018656 28.6021762 165.3943634 38.89997864 C165.40509636 40.62383789 165.40509636 40.62383789 165.41604614 42.38252258 C165.41873505 43.63452454 165.42142395 44.88652649 165.42419434 46.1764679 C165.43046486 47.51570306 165.43711218 48.85493651 165.44410706 50.19416809 C165.46508854 54.58474022 165.47550733 58.97531244 165.48547363 63.36592102 C165.4895241 64.88277199 165.4936411 66.39962278 165.49782372 67.91647339 C165.51686635 75.04826251 165.53109651 82.18004138 165.53943568 89.31185102 C165.54918986 97.51632653 165.57546539 105.72053093 165.61593658 113.92491102 C165.64621487 120.28355101 165.66091579 126.64211384 165.6642167 133.00082445 C165.66655481 136.79016201 165.67535133 140.57920969 165.70067787 144.36846924 C165.72416841 147.94073205 165.72810905 151.51251847 165.71791649 155.08483887 C165.71719461 156.99913147 165.73613946 158.91340104 165.75598145 160.82759094 C165.67793948 173.99749803 162.54407456 184.50431598 153.43469238 194.04560852 C145.91649038 201.23034188 136.79218721 204.25016519 126.49438477 204.29434204 C124.77052551 204.305075 124.77052551 204.305075 123.01184082 204.31602478 C121.75983887 204.31871368 120.50783691 204.32140259 119.21789551 204.32417297 C117.87866034 204.3304435 116.53942689 204.33709082 115.20019531 204.34408569 C110.80962318 204.36506717 106.41905096 204.37548597 102.02844238 204.38545227 C100.51159142 204.38950273 98.99474062 204.39361974 97.47789001 204.39780235 C90.34610089 204.41684499 83.21432202 204.43107515 76.08251238 204.43941432 C67.87803688 204.44916849 59.67383247 204.47544403 51.46945238 204.51591522 C45.11081239 204.5461935 38.75224957 204.56089443 32.39353895 204.56419533 C28.60420139 204.56653345 24.81515371 204.57532997 21.02589417 204.60065651 C17.45363135 204.62414705 13.88184493 204.62808769 10.30952454 204.61789513 C8.39523193 204.61717324 6.48096237 204.6361181 4.56677246 204.65596008 C-8.60313463 204.57791812 -19.10995258 201.4440532 -28.65124512 192.33467102 C-35.83597848 184.81646902 -38.85580179 175.69216584 -38.89997864 165.3943634 C-38.90713394 164.2451239 -38.91428925 163.0958844 -38.92166138 161.91181946 C-38.92435028 160.6598175 -38.92703918 159.40781555 -38.92980957 158.11787415 C-38.9360801 156.77863898 -38.94272742 155.43940553 -38.94972229 154.10017395 C-38.97070377 149.70960182 -38.98112257 145.3190296 -38.99108887 140.92842102 C-38.99513933 139.41157005 -38.99925634 137.89471926 -39.00343895 136.37786865 C-39.02248158 129.24607953 -39.03671175 122.11430066 -39.04505092 114.98249102 C-39.05480509 106.77801551 -39.08108063 98.57381111 -39.12155181 90.36943102 C-39.1518301 84.01079103 -39.16653102 77.6522282 -39.16983193 71.29351759 C-39.17217005 67.50418003 -39.18096657 63.71513235 -39.20629311 59.9258728 C-39.22978365 56.35360999 -39.23372429 52.78182357 -39.22353172 49.20950317 C-39.22280984 47.29521057 -39.2417547 45.38094101 -39.26159668 43.4667511 C-39.18355471 30.29684401 -36.0496898 19.79002606 -26.94030762 10.24873352 C-19.42210562 3.06400016 -10.29780244 0.04417685 0 0 Z " fill="#000000" transform="translate(64.7528076171875,281.8528289794922)"/>
<path d="M0 0 C1.1492395 -0.0071553 2.298479 -0.01431061 3.48254395 -0.02168274 C5.36054688 -0.02571609 5.36054688 -0.02571609 7.27648926 -0.02983093 C8.61572443 -0.03610146 9.95495787 -0.04274878 11.29418945 -0.04974365 C15.68476158 -0.07072513 20.07533381 -0.08114393 24.46594238 -0.09111023 C25.98279335 -0.09516069 27.49964414 -0.0992777 29.01649475 -0.10346031 C36.14828388 -0.12250295 43.28006274 -0.13673311 50.41187239 -0.14507228 C58.61634789 -0.15482645 66.82055229 -0.18110199 75.02493238 -0.22157317 C81.38357238 -0.25185146 87.7421352 -0.26655239 94.10084581 -0.26985329 C97.89018337 -0.27219141 101.67923105 -0.28098793 105.4684906 -0.30631447 C109.04075342 -0.32980501 112.61253983 -0.33374565 116.18486023 -0.32355309 C118.09915284 -0.3228312 120.0134224 -0.34177606 121.9276123 -0.36161804 C135.09751939 -0.28357608 145.60433734 2.85028884 155.14562988 11.95967102 C162.33036325 19.47787302 165.35018656 28.6021762 165.3943634 38.89997864 C165.40509636 40.62383789 165.40509636 40.62383789 165.41604614 42.38252258 C165.41873505 43.63452454 165.42142395 44.88652649 165.42419434 46.1764679 C165.43046486 47.51570306 165.43711218 48.85493651 165.44410706 50.19416809 C165.46508854 54.58474022 165.47550733 58.97531244 165.48547363 63.36592102 C165.4895241 64.88277199 165.4936411 66.39962278 165.49782372 67.91647339 C165.51686635 75.04826251 165.53109651 82.18004138 165.53943568 89.31185102 C165.54918986 97.51632653 165.57546539 105.72053093 165.61593658 113.92491102 C165.64621487 120.28355101 165.66091579 126.64211384 165.6642167 133.00082445 C165.66655481 136.79016201 165.67535133 140.57920969 165.70067787 144.36846924 C165.72416841 147.94073205 165.72810905 151.51251847 165.71791649 155.08483887 C165.71719461 156.99913147 165.73613946 158.91340104 165.75598145 160.82759094 C165.67793948 173.99749803 162.54407456 184.50431598 153.43469238 194.04560852 C145.91649038 201.23034188 136.79218721 204.25016519 126.49438477 204.29434204 C124.77052551 204.305075 124.77052551 204.305075 123.01184082 204.31602478 C121.75983887 204.31871368 120.50783691 204.32140259 119.21789551 204.32417297 C117.87866034 204.3304435 116.53942689 204.33709082 115.20019531 204.34408569 C110.80962318 204.36506717 106.41905096 204.37548597 102.02844238 204.38545227 C100.51159142 204.38950273 98.99474062 204.39361974 97.47789001 204.39780235 C90.34610089 204.41684499 83.21432202 204.43107515 76.08251238 204.43941432 C67.87803688 204.44916849 59.67383247 204.47544403 51.46945238 204.51591522 C45.11081239 204.5461935 38.75224957 204.56089443 32.39353895 204.56419533 C28.60420139 204.56653345 24.81515371 204.57532997 21.02589417 204.60065651 C17.45363135 204.62414705 13.88184493 204.62808769 10.30952454 204.61789513 C8.39523193 204.61717324 6.48096237 204.6361181 4.56677246 204.65596008 C-8.60313463 204.57791812 -19.10995258 201.4440532 -28.65124512 192.33467102 C-35.83597848 184.81646902 -38.85580179 175.69216584 -38.89997864 165.3943634 C-38.90713394 164.2451239 -38.91428925 163.0958844 -38.92166138 161.91181946 C-38.92435028 160.6598175 -38.92703918 159.40781555 -38.92980957 158.11787415 C-38.9360801 156.77863898 -38.94272742 155.43940553 -38.94972229 154.10017395 C-38.97070377 149.70960182 -38.98112257 145.3190296 -38.99108887 140.92842102 C-38.99513933 139.41157005 -38.99925634 137.89471926 -39.00343895 136.37786865 C-39.02248158 129.24607953 -39.03671175 122.11430066 -39.04505092 114.98249102 C-39.05480509 106.77801551 -39.08108063 98.57381111 -39.12155181 90.36943102 C-39.1518301 84.01079103 -39.16653102 77.6522282 -39.16983193 71.29351759 C-39.17217005 67.50418003 -39.18096657 63.71513235 -39.20629311 59.9258728 C-39.22978365 56.35360999 -39.23372429 52.78182357 -39.22353172 49.20950317 C-39.22280984 47.29521057 -39.2417547 45.38094101 -39.26159668 43.4667511 C-39.18355471 30.29684401 -36.0496898 19.79002606 -26.94030762 10.24873352 C-19.42210562 3.06400016 -10.29780244 0.04417685 0 0 Z " fill="#000000" transform="translate(320.7528076171875,25.852828979492188)"/>
<path d="M0 0 C1.1492395 -0.0071553 2.298479 -0.01431061 3.48254395 -0.02168274 C5.36054687 -0.02571609 5.36054687 -0.02571609 7.27648926 -0.02983093 C8.61572443 -0.03610146 9.95495787 -0.04274878 11.29418945 -0.04974365 C15.68476158 -0.07072513 20.07533381 -0.08114393 24.46594238 -0.09111023 C25.98279335 -0.09516069 27.49964414 -0.0992777 29.01649475 -0.10346031 C36.14828388 -0.12250295 43.28006274 -0.13673311 50.41187239 -0.14507228 C58.61634789 -0.15482645 66.82055229 -0.18110199 75.02493238 -0.22157317 C81.38357238 -0.25185146 87.7421352 -0.26655239 94.10084581 -0.26985329 C97.89018337 -0.27219141 101.67923105 -0.28098793 105.4684906 -0.30631447 C109.04075342 -0.32980501 112.61253983 -0.33374565 116.18486023 -0.32355309 C118.09915284 -0.3228312 120.0134224 -0.34177606 121.9276123 -0.36161804 C135.09751939 -0.28357608 145.60433734 2.85028884 155.14562988 11.95967102 C162.33036325 19.47787302 165.35018656 28.6021762 165.3943634 38.89997864 C165.40509636 40.62383789 165.40509636 40.62383789 165.41604614 42.38252258 C165.41873505 43.63452454 165.42142395 44.88652649 165.42419434 46.1764679 C165.43046486 47.51570306 165.43711218 48.85493651 165.44410706 50.19416809 C165.46508854 54.58474022 165.47550733 58.97531244 165.48547363 63.36592102 C165.4895241 64.88277199 165.4936411 66.39962278 165.49782372 67.91647339 C165.51686635 75.04826251 165.53109651 82.18004138 165.53943568 89.31185102 C165.54918986 97.51632653 165.57546539 105.72053093 165.61593658 113.92491102 C165.64621487 120.28355101 165.66091579 126.64211384 165.6642167 133.00082445 C165.66655481 136.79016201 165.67535133 140.57920969 165.70067787 144.36846924 C165.72416841 147.94073205 165.72810905 151.51251847 165.71791649 155.08483887 C165.71719461 156.99913147 165.73613946 158.91340104 165.75598145 160.82759094 C165.67793948 173.99749803 162.54407456 184.50431598 153.43469238 194.04560852 C145.91649038 201.23034188 136.79218721 204.25016519 126.49438477 204.29434204 C124.77052551 204.305075 124.77052551 204.305075 123.01184082 204.31602478 C121.75983887 204.31871368 120.50783691 204.32140259 119.21789551 204.32417297 C117.87866034 204.3304435 116.53942689 204.33709082 115.20019531 204.34408569 C110.80962318 204.36506717 106.41905096 204.37548597 102.02844238 204.38545227 C100.51159142 204.38950273 98.99474062 204.39361974 97.47789001 204.39780235 C90.34610089 204.41684499 83.21432202 204.43107515 76.08251238 204.43941432 C67.87803688 204.44916849 59.67383247 204.47544403 51.46945238 204.51591522 C45.11081239 204.5461935 38.75224957 204.56089443 32.39353895 204.56419533 C28.60420139 204.56653345 24.81515371 204.57532997 21.02589417 204.60065651 C17.45363135 204.62414705 13.88184493 204.62808769 10.30952454 204.61789513 C8.39523193 204.61717324 6.48096237 204.6361181 4.56677246 204.65596008 C-8.60313463 204.57791812 -19.10995258 201.4440532 -28.65124512 192.33467102 C-35.83597848 184.81646902 -38.85580179 175.69216584 -38.89997864 165.3943634 C-38.90713394 164.2451239 -38.91428925 163.0958844 -38.92166138 161.91181946 C-38.92435028 160.6598175 -38.92703918 159.40781555 -38.92980957 158.11787415 C-38.9360801 156.77863898 -38.94272742 155.43940553 -38.94972229 154.10017395 C-38.97070377 149.70960182 -38.98112257 145.3190296 -38.99108887 140.92842102 C-38.99513933 139.41157005 -38.99925634 137.89471926 -39.00343895 136.37786865 C-39.02248158 129.24607953 -39.03671175 122.11430066 -39.04505092 114.98249102 C-39.05480509 106.77801551 -39.08108063 98.57381111 -39.12155181 90.36943102 C-39.1518301 84.01079103 -39.16653102 77.6522282 -39.16983193 71.29351759 C-39.17217005 67.50418003 -39.18096657 63.71513235 -39.20629311 59.9258728 C-39.22978365 56.35360999 -39.23372429 52.78182357 -39.22353172 49.20950317 C-39.22280984 47.29521057 -39.2417547 45.38094101 -39.26159668 43.4667511 C-39.18355471 30.29684401 -36.0496898 19.79002606 -26.94030762 10.24873352 C-19.42210562 3.06400016 -10.29780244 0.04417685 0 0 Z " fill="#000000" transform="translate(64.7528076171875,25.852828979492188)"/>
<path d="M0 0 C6.19085852 4.25414723 11.60890146 9.31120011 16.90307617 14.61254883 C17.63602402 15.33877945 18.36897186 16.06501007 19.12413025 16.81324768 C21.51899913 19.18928848 23.90641704 21.57263857 26.29296875 23.95703125 C27.96952702 25.62715324 29.64623135 27.29712861 31.32307434 28.96696472 C34.8256296 32.45758679 38.32406938 35.95227508 41.82006836 39.44946289 C46.28508941 43.9146874 50.76372807 48.36597706 55.24601269 52.8138628 C58.709412 56.25495805 62.16361526 59.70517327 65.61535072 63.15796471 C67.26224199 64.80250713 68.91235137 66.44383377 70.56581688 68.08176613 C72.88192971 70.37814024 75.18485842 72.68701714 77.48510742 74.99926758 C78.16005249 75.66297363 78.83499756 76.32667969 79.53039551 77.01049805 C88.97952999 86.58452053 93.43690752 96.33662347 93.36352539 109.86547852 C92.98312659 124.56577895 84.33111553 133.97286799 74.38745117 143.90307617 C73.66122055 144.63602402 72.93498993 145.36897186 72.18675232 146.12413025 C69.81071152 148.51899913 67.42736143 150.90641704 65.04296875 153.29296875 C63.37284676 154.96952702 61.70287139 156.64623135 60.03303528 158.32307434 C56.54241321 161.8256296 53.04772492 165.32406938 49.55053711 168.82006836 C45.0853126 173.28508941 40.63402294 177.76372807 36.1861372 182.24601269 C32.74504195 185.709412 29.29482673 189.16361526 25.84203529 192.61535072 C24.19749287 194.26224199 22.55616623 195.91235137 20.91823387 197.56581688 C18.62185976 199.88192971 16.31298286 202.18485842 14.00073242 204.48510742 C13.33702637 205.16005249 12.67332031 205.83499756 11.98950195 206.53039551 C2.41547947 215.97952999 -7.33662347 220.43690752 -20.86547852 220.36352539 C-35.56577895 219.98312659 -44.97286799 211.33111553 -54.90307617 201.38745117 C-55.63602402 200.66122055 -56.36897186 199.93498993 -57.12413025 199.18675232 C-59.51899913 196.81071152 -61.90641704 194.42736143 -64.29296875 192.04296875 C-65.96952702 190.37284676 -67.64623135 188.70287139 -69.32307434 187.03303528 C-72.8256296 183.54241321 -76.32406938 180.04772492 -79.82006836 176.55053711 C-84.28508941 172.0853126 -88.76372807 167.63402294 -93.24601269 163.1861372 C-96.709412 159.74504195 -100.16361526 156.29482673 -103.61535072 152.84203529 C-105.26224199 151.19749287 -106.91235137 149.55616623 -108.56581688 147.91823387 C-110.88192971 145.62185976 -113.18485842 143.31298286 -115.48510742 141.00073242 C-116.16005249 140.33702637 -116.83499756 139.67332031 -117.53039551 138.98950195 C-126.97952999 129.41547947 -131.43690752 119.66337653 -131.36352539 106.13452148 C-130.98312659 91.43422105 -122.33111553 82.02713201 -112.38745117 72.09692383 C-111.66122055 71.36397598 -110.93498993 70.63102814 -110.18675232 69.87586975 C-107.81071152 67.48100087 -105.42736143 65.09358296 -103.04296875 62.70703125 C-101.37284676 61.03047298 -99.70287139 59.35376865 -98.03303528 57.67692566 C-94.54241321 54.1743704 -91.04772492 50.67593062 -87.55053711 47.17993164 C-83.0853126 42.71491059 -78.63402294 38.23627193 -74.1861372 33.75398731 C-70.74504195 30.290588 -67.29482673 26.83638474 -63.84203529 23.38464928 C-62.19749287 21.73775801 -60.55616623 20.08764863 -58.91823387 18.43418312 C-56.62185976 16.11807029 -54.31298286 13.81514158 -52.00073242 11.51489258 C-51.33702637 10.83994751 -50.67332031 10.16500244 -49.98950195 9.46960449 C-36.45336193 -3.88996382 -17.45075911 -9.03243208 0 0 Z " fill="#000000" transform="translate(403,276)"/>
</svg>
