<?xml version="1.0" encoding="UTF-8"?>
<svg version="1.1" xmlns="http://www.w3.org/2000/svg" width="512" height="512">
<path d="M0 0 C32.04217874 13.67147408 73.25478688 11.4552159 107.41845703 8.93847656 C124.61824919 7.67176405 124.61824919 7.67176405 129.0703125 9.7265625 C133.5633358 13.81112913 135.45601403 17.40750521 136.23828125 23.4609375 C136.44069573 28.29700236 136.58050317 31.95052816 134.0703125 36.1640625 C113.3592464 49.30762368 90.03207087 51.43791443 66.078125 51.1796875 C64.37885864 51.16301025 64.37885864 51.16301025 62.64526367 51.14599609 C60.41601838 51.11675482 58.18690726 51.0731952 55.95825195 51.01416016 C54.94206787 50.9991748 53.92588379 50.98418945 52.87890625 50.96875 C51.97454834 50.9466748 51.07019043 50.92459961 50.13842773 50.90185547 C47.77138988 51.04860713 47.77138988 51.04860713 46.03149414 52.52392578 C43.98950165 55.39448729 44.39708388 57.84073353 44.8203125 61.2265625 C47.71893773 64.08740845 49.98394828 64.63616772 53.984375 64.80859375 C55.01119385 64.8547583 56.0380127 64.90092285 57.09594727 64.94848633 C58.20123779 64.97837646 59.30652832 65.0082666 60.4453125 65.0390625 C62.16802368 65.09259888 62.16802368 65.09259888 63.92553711 65.1472168 C89.74825445 65.71855475 117.35600031 63.8119617 139.375 48.98046875 C146.4003633 44.35322739 153.70179226 40.53568575 161.2578125 36.8515625 C162.57897293 36.19986395 163.89985021 35.54759109 165.22045898 34.89477539 C174.73242821 30.20350323 184.287083 25.6003191 193.875 21.06640625 C197.71144771 19.24675505 201.52718962 17.39045209 205.33052063 15.50294495 C207.91758829 14.21953956 210.50881101 12.94463119 213.10006714 11.66970825 C214.34849309 11.05251496 215.59494501 10.43130849 216.83914185 9.80563354 C231.94965302 2.21126366 246.34722426 -1.53301539 263.0234375 3.1875 C268.9169354 5.37698386 273.9956806 8.37201183 277.3828125 13.7890625 C279.62789677 19.15774228 279.62789677 19.15774228 278.8203125 22.2265625 C273.71504408 27.03501299 267.7764667 30.50897681 261.8203125 34.1640625 C259.65314649 35.50570416 257.48649044 36.84816987 255.3203125 38.19140625 C254.22976563 38.86671387 253.13921875 39.54202148 252.015625 40.23779297 C247.26038648 43.19746389 242.53933725 46.20960819 237.8203125 49.2265625 C229.10669479 54.78906631 220.3523254 60.28367371 211.58129883 65.75512695 C203.07264639 71.06395611 194.58908143 76.41151384 186.11474609 81.77490234 C181.3918053 84.7630494 176.66555637 87.74596346 171.93969727 90.72949219 C168.00487167 93.21396458 164.0713335 95.70042445 160.140625 98.19140625 C156.19557901 100.69116821 152.24355084 103.17967111 148.29003906 105.66601562 C145.72805607 107.2848566 143.17656419 108.91948335 140.625 110.5546875 C113.46883119 127.83611362 84.33989549 140.86551621 51.42578125 134.578125 C43.78418726 132.80403822 36.34981112 130.46063204 28.87695312 128.08276367 C3.56301366 120.04709867 -21.79812287 114.47438238 -48.1796875 111.2265625 C-49.63495982 111.04501089 -51.09019963 110.86319854 -52.54541016 110.68115234 C-53.74472168 110.5311377 -54.9440332 110.38112305 -56.1796875 110.2265625 C-62.39445002 89.543056 -67.9980482 68.69645535 -73.58935547 47.83764648 C-74.92794378 42.84584695 -76.27692022 37.85691232 -77.62802124 32.86848736 C-78.67331526 29.0019412 -79.71117348 25.13342819 -80.74694824 21.26432228 C-81.24176004 19.42113188 -81.73937808 17.57869241 -82.23986816 15.73703575 C-82.93213348 13.18700109 -83.61385659 10.63437439 -84.29296875 8.08081055 C-84.5006337 7.32513794 -84.70829865 6.56946533 -84.92225647 5.79089355 C-86.29382094 0.56896281 -86.29382094 0.56896281 -85.1796875 -2.7734375 C-82.65693642 -3.80519371 -80.29210494 -4.60770863 -77.6796875 -5.3359375 C-76.54358032 -5.660177 -76.54358032 -5.660177 -75.38452148 -5.9909668 C-50.38368754 -12.77605944 -23.7054353 -10.19694382 0 0 Z " fill="#000000" transform="translate(194.1796875,329.7734375)"/>
<path d="M0 0 C18.50678868 14.57726506 29.76588922 33.95732309 33.72265625 57.14453125 C36.66048887 81.94711815 31.06172794 105.80301575 15.7578125 125.6875 C1.60452511 143.35270384 -19.12595735 156.20833327 -41.8359375 158.87109375 C-60.51412503 160.29898463 -78.11601482 158.83357483 -94.8359375 149.87109375 C-95.79757813 149.37996094 -96.75921875 148.88882813 -97.75 148.3828125 C-105.93107016 143.95404196 -112.30469916 138.39305476 -118.8359375 131.87109375 C-119.9496875 130.77474609 -119.9496875 130.77474609 -121.0859375 129.65625 C-138.05430505 111.85934888 -143.6470314 88.46222655 -143.12109375 64.6015625 C-142.31485214 43.91252575 -133.33454315 25.31307842 -119.8359375 9.87109375 C-119.25585938 9.195625 -118.67578125 8.52015625 -118.078125 7.82421875 C-87.63303991 -25.12500753 -34.64500411 -26.00761328 0 0 Z M-61.8359375 18.87109375 C-61.9390625 20.04671875 -62.0421875 21.22234375 -62.1484375 22.43359375 C-62.3753125 23.56796875 -62.6021875 24.70234375 -62.8359375 25.87109375 C-64.68514314 27.10389751 -66.59055915 27.86328152 -68.63671875 28.7265625 C-73.78031187 31.40342358 -77.46831351 36.43782092 -79.7734375 41.68359375 C-81.76106425 48.00673135 -82.01223613 54.98344889 -79.3359375 61.12109375 C-74.1019444 69.94001363 -65.53480524 73.74631557 -56.64453125 78.01171875 C-45.61054725 83.32187424 -45.61054725 83.32187424 -43.8359375 86.87109375 C-43.71443322 91.36675213 -44.03327003 94.84267605 -46.8359375 98.43359375 C-51.47987425 100.65881344 -56.03341483 100.72943095 -60.953125 99.22265625 C-63.69691077 97.2530507 -64.25535554 95.00985345 -65.3984375 91.87109375 C-67.03920556 87.06652612 -67.03920556 87.06652612 -70.8359375 83.87109375 C-74.49549652 84.00179229 -76.92009319 84.10296626 -79.7734375 86.49609375 C-81.63205681 90.65065456 -81.48097197 93.9609192 -80.02734375 98.265625 C-77.09677073 104.86701958 -72.90074883 109.89365755 -66.8359375 113.87109375 C-64.16829398 114.61773809 -64.16829398 114.61773809 -61.8359375 114.87109375 C-61.9184375 116.10859375 -62.0009375 117.34609375 -62.0859375 118.62109375 C-62.07494084 121.72215295 -61.95675696 122.68521766 -60.2109375 125.37109375 C-57.07279752 127.35307689 -55.48720285 127.54173433 -51.8359375 126.87109375 C-48.81560013 124.93417006 -48.81560013 124.93417006 -46.8359375 121.87109375 C-46.41762346 118.16108657 -46.41762346 118.16108657 -46.8359375 114.87109375 C-45.5984375 114.59265625 -45.5984375 114.59265625 -44.3359375 114.30859375 C-37.33428519 111.43291512 -32.6395124 106.6179784 -29.52734375 99.765625 C-27.10507878 93.12834528 -26.88083689 86.4005576 -29.69921875 79.87109375 C-34.54920927 71.33777709 -42.45895458 67.78156164 -50.9609375 63.765625 C-55.83317677 61.44421585 -60.98516597 58.72186528 -64.8359375 54.87109375 C-65.42327927 47.82299248 -65.42327927 47.82299248 -63.0234375 43.93359375 C-60.16741563 41.24077313 -58.35375139 40.90945033 -54.4609375 40.62109375 C-50.37271052 40.90304044 -48.84878265 41.10253334 -45.8359375 43.87109375 C-44.66062455 46.37337293 -43.7092687 48.87605584 -42.828125 51.49609375 C-41.79258436 53.97486819 -40.9617621 55.24943782 -38.8359375 56.87109375 C-35.37843801 57.53786253 -35.37843801 57.53786253 -31.8359375 56.87109375 C-29.11857848 55.05884983 -29.11857848 55.05884983 -27.8359375 51.87109375 C-27.00505687 44.59372551 -30.44631317 38.42877263 -34.8359375 32.87109375 C-38.22127685 29.71570198 -41.43377316 27.33848186 -45.8359375 25.87109375 C-46.42578125 23.91015625 -46.42578125 23.91015625 -46.7734375 21.49609375 C-47.47127461 17.81494365 -47.47127461 17.81494365 -49.6484375 14.80859375 C-55.37752861 12.35326899 -58.13504132 14.03936818 -61.8359375 18.87109375 Z " fill="#000000" transform="translate(294.8359375,139.12890625)"/>
<path d="M0 0 C6.51236761 23.25858577 12.8677638 46.55401005 19.06333923 69.89889526 C20.78908128 76.39946454 22.51872636 82.89899761 24.24779892 89.39868164 C24.68318181 91.03545842 25.11847731 92.67225845 25.55368423 94.30908203 C28.37778995 104.93018575 31.21682947 115.54711544 34.07769203 126.1583786 C34.62044898 128.17175251 35.16274293 130.18525054 35.70487976 132.1987915 C37.71497676 139.66393733 37.71497676 139.66393733 39.73251343 147.1270752 C40.63216936 150.44844594 41.52745942 153.77096498 42.421875 157.09375 C42.68646011 158.06499817 42.95104523 159.03624634 43.22364807 160.03692627 C43.460186 160.91870544 43.69672394 161.80048462 43.94042969 162.70898438 C44.14657898 163.47094116 44.35272827 164.23289795 44.56512451 165.01794434 C45 167 45 167 45 170 C38.62885916 171.71246134 32.25669303 173.42106502 25.88378906 175.12695312 C23.71460378 175.70808937 21.54565735 176.29011796 19.37695312 176.87304688 C16.26494274 177.70936411 13.15209567 178.54249915 10.0390625 179.375 C9.065065 179.63748535 8.0910675 179.8999707 7.08755493 180.17041016 C6.18677216 180.41065918 5.28598938 180.6509082 4.35791016 180.8984375 C3.56293121 181.11161621 2.76795227 181.32479492 1.94888306 181.54443359 C-0 182 -0 182 -2 182 C-6.18721025 167.5210769 -10.19130275 153.00178003 -14.0703125 138.4375 C-14.6381791 136.31083045 -15.20620686 134.18420392 -15.77438354 132.05761719 C-17.26077017 126.49259715 -18.74498006 120.92699894 -20.22869873 115.36126709 C-21.6979996 109.85116372 -23.16938863 104.34161808 -24.640625 98.83203125 C-26.38122835 92.31352534 -28.12119709 85.79485291 -29.85821533 79.27539062 C-32.4514678 69.54313665 -35.04794369 59.81182844 -37.66463661 50.08584595 C-38.79849171 45.87066486 -39.92972582 41.65478242 -41.06075668 37.43884277 C-41.59449514 35.4523958 -42.12956321 33.46630556 -42.66601944 31.48059082 C-43.401608 28.75747424 -44.13269707 26.0331872 -44.86279297 23.30859375 C-45.19038416 22.10320198 -45.19038416 22.10320198 -45.52459335 20.87345886 C-46.33574162 17.83218288 -47 15.16263985 -47 12 C-40.62885916 10.28753866 -34.25669303 8.57893498 -27.88378906 6.87304688 C-25.71460378 6.29191063 -23.54565735 5.70988204 -21.37695312 5.12695312 C-18.26494274 4.29063589 -15.15209567 3.45750085 -12.0390625 2.625 C-10.57806625 2.23127197 -10.57806625 2.23127197 -9.08755493 1.82958984 C-8.18677216 1.58934082 -7.28598938 1.3490918 -6.35791016 1.1015625 C-5.56293121 0.88838379 -4.76795227 0.67520508 -3.94888306 0.45556641 C-2 0 -2 0 0 0 Z M-22 22 C-24.61726814 25.92590221 -23.87450162 28.60490643 -23 33 C-22.31210621 35.8712603 -21.49493657 38.69104979 -20.63671875 41.515625 C-20.4034639 42.29387634 -20.17020905 43.07212769 -19.92988586 43.8739624 C-19.43822166 45.50523117 -18.9430724 47.13545328 -18.44458008 48.76464844 C-17.68654154 51.25314646 -16.94936714 53.74723544 -16.21289062 56.2421875 C-15.73042647 57.83371578 -15.24674447 59.4248755 -14.76171875 61.015625 C-14.54488937 61.75733948 -14.32806 62.49905396 -14.10466003 63.26324463 C-12.79881991 67.44909414 -11.52966229 70.31586568 -8 73 C-5 73.66666667 -5 73.66666667 -2 73 C1.10583951 70.64963496 2.39305825 68.80891771 3 65 C2.72962373 62.987756 2.72962373 62.987756 2.07543945 60.9375 C1.84802567 60.14988281 1.62061188 59.36226563 1.38630676 58.55078125 C1.13120834 57.70902344 0.87610992 56.86726563 0.61328125 56 C0.22586006 54.69095703 0.22586006 54.69095703 -0.16938782 53.35546875 C-0.71845322 51.51150427 -1.27271874 49.66908137 -1.83178711 47.828125 C-2.68290442 45.01518835 -3.50936283 42.19580157 -4.33398438 39.375 C-4.87091466 37.58288889 -5.40927914 35.79120673 -5.94921875 34 C-6.19419601 33.15824219 -6.43917328 32.31648438 -6.6915741 31.44921875 C-8.05554734 27.0314514 -9.18233001 23.8982237 -13 21 C-16.69075425 19.70823601 -18.76290952 19.76752381 -22 22 Z " fill="#000000" transform="translate(88,310)"/>
<path d="M0 0 C2.08028862 -0.0977639 4.15838246 -0.16305883 6.24029541 -0.21350098 C7.3994043 -0.2475 8.55851318 -0.28149902 9.75274658 -0.31652832 C12.69732666 0.12243652 12.69732666 0.12243652 15.08013916 1.70666504 C17.28709648 5.0034408 17.13805259 7.15945078 17.02935791 11.11071777 C17.01347122 11.80578934 16.99758453 12.5008609 16.98121643 13.21699524 C16.91604239 15.52099029 16.81265462 17.8204244 16.69732666 20.12243652 C16.65799011 20.9205072 16.61865356 21.71857788 16.578125 22.54083252 C16.31208335 27.60516567 15.96807944 32.66102324 15.5803833 37.71740723 C15.38222333 40.34444936 15.2046498 42.97242553 15.02740479 45.60095215 C14.90169564 47.28919628 14.77478781 48.97735168 14.64654541 50.66540527 C14.59640793 51.44248337 14.54627045 52.21956146 14.49461365 53.02018738 C14.13029575 57.45751989 13.4482727 60.58032022 10.69732666 64.12243652 C7.57867382 66.20153842 7.15993144 66.40403027 3.69732666 65.99743652 C3.01670166 65.9329834 2.33607666 65.86853027 1.63482666 65.80212402 C-1.14673181 64.82633537 -1.92051976 63.71610743 -3.30267334 61.12243652 C-3.63079834 57.94274902 -3.63079834 57.94274902 -3.55267334 54.24743652 C-3.53720459 53.05376465 -3.52173584 51.86009277 -3.50579834 50.63024902 C-3.36493696 46.69331006 -3.07495447 42.76954678 -2.78997803 38.84069824 C-2.69899841 37.58199921 -2.6080188 36.32330017 -2.51428223 35.02645874 C-2.44445129 34.06813141 -2.37462036 33.10980408 -2.30267334 32.12243652 C-2.81330826 32.6441745 -3.32394318 33.16591248 -3.85005188 33.70346069 C-8.67680124 38.63061159 -13.51570266 43.54553267 -18.36834812 48.44717216 C-20.86243659 50.96729645 -23.35168468 53.49183226 -25.83026123 56.02722168 C-28.68341126 58.94535254 -31.55680221 61.84279563 -34.43157959 64.73962402 C-35.31414932 65.64800018 -36.19671906 66.55637634 -37.10603333 67.49227905 C-45.05527916 75.44509733 -45.05527916 75.44509733 -51.30267334 76.12243652 C-56.82540061 74.07698198 -56.82540061 74.07698198 -58.30267334 71.12243652 C-59.22101285 64.4644751 -59.22101285 64.4644751 -57.01579285 61.24182129 C-56.44716019 60.62621338 -55.87852753 60.01060547 -55.29266357 59.37634277 C-54.65488983 58.68218262 -54.01711609 57.98802246 -53.36001587 57.27282715 C-49.93892333 53.69700775 -46.47454886 50.17180844 -42.96282959 46.68493652 C-42.19587265 45.91939453 -41.42891571 45.15385254 -40.63871765 44.3651123 C-38.21656453 41.94850455 -35.79093722 39.53541926 -33.36517334 37.12243652 C-31.71064441 35.47292967 -30.05634532 33.82319224 -28.40228271 32.17321777 C-24.37173132 28.15362281 -20.33833062 24.13690483 -16.30267334 20.12243652 C-17.54355713 20.15385742 -17.54355713 20.15385742 -18.80950928 20.18591309 C-22.55710704 20.26905272 -26.30451083 20.32109183 -30.05267334 20.37243652 C-31.35462646 20.40595215 -32.65657959 20.43946777 -33.99798584 20.47399902 C-35.24837646 20.48688965 -36.49876709 20.49978027 -37.78704834 20.51306152 C-38.93914795 20.53400879 -40.09124756 20.55495605 -41.27825928 20.57653809 C-44.95429713 20.02459827 -46.07266042 19.03820149 -48.30267334 16.12243652 C-49.44963272 12.52863048 -49.61899634 10.854974 -48.11517334 7.37243652 C-45.20107595 3.75493632 -43.05417557 3.21955373 -38.41473389 2.61999512 C-36.84031397 2.49458121 -35.26510639 2.37881461 -33.68939209 2.27087402 C-32.84278519 2.20711578 -31.99617828 2.14335754 -31.12391663 2.07766724 C-29.32792297 1.94432989 -27.53161651 1.81515023 -25.73504639 1.68981934 C-23.03730374 1.5007398 -20.34097362 1.29710583 -17.64447021 1.09118652 C-11.76636093 0.6540127 -5.88581678 0.31295752 0 0 Z " fill="#000000" transform="translate(372.30267333984375,60.8775634765625)"/>
<path d="M0 0 C3.87431159 0.03079739 5.13441222 0.82978749 8.13671875 3.38671875 C11.33868542 6.72628805 14.27846743 10.28036727 17.1875 13.875 C17.98414063 14.84050781 18.78078125 15.80601563 19.6015625 16.80078125 C21.06398389 18.58617557 22.51729665 20.37907364 23.9609375 22.1796875 C26.36254943 25.08690194 28.87901282 27.85519235 31.4375 30.625 C40.93331252 41.02306261 40.93331252 41.02306261 41.625 46.0625 C41.0554288 49.72402914 40.47112791 51.87662274 37.5 54.1875 C33.86238787 55.26895226 31.85085343 54.97400603 28.1875 53.875 C22.22069094 49.29638733 17.64622175 42.92558441 12.97265625 37.09765625 C11.37587217 35.02719979 11.37587217 35.02719979 10.1875 33.875 C10.18385437 34.62810959 10.18020874 35.38121918 10.17645264 36.15715027 C10.1385441 43.26376152 10.08165946 50.36991049 10.00359726 57.47617626 C9.9641323 61.12939913 9.93193941 64.78238133 9.91650391 68.43579102 C9.90133023 71.96334999 9.86687382 75.4902473 9.81919098 79.01751137 C9.79719117 81.01427272 9.79502687 83.01122075 9.79315186 85.00810242 C9.77343323 86.22899063 9.7537146 87.44987885 9.73339844 88.70776367 C9.72007477 90.31659676 9.72007477 90.31659676 9.70648193 91.95793152 C9.05770532 95.60454363 7.79496028 97.28125342 5.1875 99.875 C1.69290538 100.81105213 -0.65855048 101.2492539 -4.125 100.125 C-5.8125 98.875 -5.8125 98.875 -7.8125 95.875 C-8.0909729 93.16047668 -8.0909729 93.16047668 -8.13134766 89.84301758 C-8.15121735 88.60195755 -8.17108704 87.36089752 -8.19155884 86.08222961 C-8.20343518 84.72799864 -8.21509804 83.37376578 -8.2265625 82.01953125 C-8.24527317 80.63375188 -8.26484652 79.24798391 -8.2852478 77.86222839 C-8.33658594 74.21760784 -8.37620244 70.57295035 -8.41339111 66.92816162 C-8.45342036 63.20787403 -8.50451759 59.48774034 -8.5546875 55.76757812 C-8.65146662 48.47015765 -8.73586483 41.17266276 -8.8125 33.875 C-10.56959628 35.77562894 -12.32446079 37.6782398 -14.078125 39.58203125 C-14.57135254 40.11509888 -15.06458008 40.6481665 -15.57275391 41.1973877 C-18.36349382 44.23075018 -21.01981126 47.31453154 -23.5625 50.5625 C-25.97335919 53.33095074 -26.76694328 53.86007625 -30.4375 55.0625 C-34.16851371 54.85522146 -35.90653396 54.18267891 -38.8125 51.875 C-40.51345936 48.47308128 -40.74039058 45.49559265 -39.8125 41.875 C-37.87388657 39.1663138 -35.70432918 36.88809575 -33.375 34.5078125 C-30.86256204 31.92643569 -28.62035861 29.2522174 -26.375 26.4375 C-22.4754166 21.61916658 -18.37882425 17.02658425 -14.18359375 12.46484375 C-11.4360005 9.46376579 -8.75571378 6.40952883 -6.08984375 3.3359375 C-3.96971649 0.91108247 -3.96971649 0.91108247 0 0 Z " fill="#000000" transform="translate(239.8125,2.125)"/>
<path d="M0 0 C2.421875 1.43359375 2.421875 1.43359375 4.75 3.4375 C5.61238281 4.1696875 6.47476563 4.901875 7.36328125 5.65625 C10.73960879 8.65743004 14.10056955 11.67380097 17.4375 14.71875 C20.04525525 17.04028821 22.72041144 19.24530355 25.4375 21.4375 C29.37045109 24.64669832 33.28434232 27.8685358 37.125 31.1875 C38.49011719 32.35345703 38.49011719 32.35345703 39.8828125 33.54296875 C42.42711377 36.49567262 42.98992506 38.11611052 43 42 C41.09125819 46.51922693 37.5906561 49.52815363 34 52.75 C33.1349585 53.53769775 33.1349585 53.53769775 32.25244141 54.34130859 C27.86169222 58.30710763 23.32178658 62.06301018 18.70703125 65.765625 C14.80934091 68.98276623 11.11420461 72.39919159 7.41015625 75.8359375 C3.04062827 79.75930622 0.81317791 81.55252225 -5.09765625 81.27734375 C-7.93064968 80.86432007 -9.19293766 80.2407573 -11 78 C-12.02427957 74.31259354 -12.52332721 72.08340984 -10.83203125 68.58203125 C-8.74305192 65.63786209 -6.45388091 63.4529422 -3.75 61.0625 C-2.83734375 60.24910156 -1.9246875 59.43570313 -0.984375 58.59765625 C1.231955 56.66852084 3.45483042 54.74885839 5.68652344 52.83764648 C6.62066071 52.03749367 6.62066071 52.03749367 7.57366943 51.22117615 C8.27970306 50.61669395 8.27970306 50.61669395 9 50 C8.23214172 49.99635437 7.46428345 49.99270874 6.67315674 49.98895264 C-0.56622412 49.95107254 -7.80509036 49.8942207 -15.04413986 49.81609726 C-18.76577254 49.77660173 -22.48716789 49.74442382 -26.20898438 49.72900391 C-29.8013727 49.71385039 -33.39310868 49.67942976 -36.9852066 49.63169098 C-38.35505755 49.61686339 -39.72500163 49.60895819 -41.09493256 49.60811615 C-43.01489632 49.60574929 -44.93476929 49.57640188 -46.85449219 49.54589844 C-47.94703308 49.53701599 -49.03957397 49.52813354 -50.16522217 49.51898193 C-53.66982842 48.87736998 -54.83526104 47.77877208 -57 45 C-58.15711808 41.37436334 -58.3351709 39.73737598 -56.75 36.25 C-55 34 -55 34 -52 32 C-49.32344055 31.7215271 -49.32344055 31.7215271 -46.05981445 31.68115234 C-44.22825554 31.65134781 -44.22825554 31.65134781 -42.35969543 31.62094116 C-40.38147041 31.60361435 -40.38147041 31.60361435 -38.36328125 31.5859375 C-36.99992194 31.56722653 -35.63657421 31.54765317 -34.27323914 31.5272522 C-30.68780345 31.47591716 -27.10233022 31.43629901 -23.51672363 31.39910889 C-19.85675762 31.35907769 -16.19694799 31.30798135 -12.53710938 31.2578125 C-5.3581802 31.16103705 1.82082461 31.07663768 9 31 C7.42635898 29.57878713 5.85199872 28.15837062 4.27734375 26.73828125 C3.40070068 25.94719971 2.52405762 25.15611816 1.62084961 24.34106445 C-1.3176834 21.71623045 -4.29995811 19.14930473 -7.30859375 16.60546875 C-9.16222266 14.8460196 -10.63243964 13.1621673 -12 11 C-12 6.76711284 -11.66316819 4.73895884 -8.8125 1.5625 C-5.4662299 -0.29653895 -3.782961 -0.37876956 0 0 Z " fill="#000000" transform="translate(405,169)"/>
<path d="M0 0 C2.875 1.4375 2.875 1.4375 5 4 C5.87628762 7.1965985 5.83532921 9.79517485 5 13 C3.1145225 15.88694424 0.67414749 17.85243977 -2 20 C-2.9384375 20.77988281 -3.876875 21.55976563 -4.84375 22.36328125 C-6.7664436 23.94950347 -8.69947886 25.52330651 -10.64453125 27.08203125 C-13.00756704 28.93967086 -13.00756704 28.93967086 -15 31 C-14.25941849 31.00586624 -13.51883698 31.01173248 -12.7558136 31.01777649 C-5.76700466 31.07574725 1.22153202 31.14784915 8.21002483 31.23571491 C11.80267265 31.28038946 15.39520784 31.31965162 18.98803711 31.34643555 C22.45715697 31.37249823 25.92584275 31.41292056 29.39469337 31.46318626 C31.35821845 31.48792221 33.32191158 31.49789227 35.28556824 31.50764465 C37.08686943 31.53733589 37.08686943 31.53733589 38.92456055 31.56762695 C40.50674629 31.58428154 40.50674629 31.58428154 42.12089539 31.60127258 C45.42072609 32.05826639 47.32614391 33.04251925 50 35 C51.56471233 38.12942465 51.69701958 41.61082223 51 45 C48.82958827 47.77838925 47.63949045 48.88447134 44.1272583 49.51898193 C42.46179962 49.5323056 42.46179962 49.5323056 40.76269531 49.54589844 C38.87118744 49.57547638 38.87118744 49.57547638 36.94146729 49.60565186 C35.57035364 49.60731488 34.19923941 49.60854582 32.828125 49.609375 C31.42134701 49.62435931 30.01458661 49.64108699 28.60784912 49.65948486 C24.91220281 49.70314355 21.21679379 49.72315381 17.52093506 49.73822021 C13.74688698 49.75779694 9.97309496 49.7997662 6.19921875 49.83984375 C-1.20045197 49.91512954 -8.60001516 49.96543045 -16 50 C-13.79211695 51.89635983 -11.58370715 53.79210041 -9.375 55.6875 C-8.44880859 56.48317383 -8.44880859 56.48317383 -7.50390625 57.29492188 C-6.58544922 58.08286133 -6.58544922 58.08286133 -5.6484375 58.88671875 C-5.03967773 59.40927246 -4.43091797 59.93182617 -3.80371094 60.47021484 C-2.08714629 61.92608844 -0.34726673 63.348864 1.3984375 64.76953125 C4.84871961 67.727656 4.9414265 68.27368864 5.3125 72.875 C5.25340627 75.82968653 5.06564964 76.89058393 3.5 79.5 C0.74551363 81.15269182 -1.43585558 81.87300498 -4.671875 81.69921875 C-10.01902936 80.0932781 -13.98135883 75.70528611 -18 72 C-19.36705078 70.75863281 -19.36705078 70.75863281 -20.76171875 69.4921875 C-22.59042303 67.82783182 -24.4146393 66.15853184 -26.234375 64.484375 C-31.37564754 59.86594373 -36.79658815 55.58228352 -42.17578125 51.24609375 C-45.24599417 48.7098309 -47.50788604 46.70896897 -49 43 C-49.06464286 39.57392841 -48.8286313 37.1247566 -46.75390625 34.30859375 C-42.51045131 29.9226727 -37.63164488 26.19999384 -32.8828125 22.3828125 C-30.03609028 20.02983072 -27.32905928 17.57735397 -24.625 15.0625 C-20.57980373 11.36552722 -16.46595138 7.79714902 -12.1875 4.375 C-11.66043457 3.93679932 -11.13336914 3.49859863 -10.59033203 3.04711914 C-6.97141508 0.21445158 -4.56017926 -0.5931422 0 0 Z " fill="#000000" transform="translate(82,169)"/>
<path d="M0 0 C0.97107193 0.02383003 0.97107193 0.02383003 1.96176147 0.04814148 C4.15633789 0.11416226 6.3464512 0.21836745 8.5390625 0.33203125 C9.72949158 0.39103607 9.72949158 0.39103607 10.94396973 0.45123291 C16.12961268 0.72093929 21.30751738 1.06453061 26.48583984 1.44897461 C29.19422393 1.64673356 31.90350205 1.82446624 34.61328125 2.00195312 C36.35165088 2.1276903 38.08993621 2.25459972 39.828125 2.3828125 C40.63021393 2.43294998 41.43230286 2.48308746 42.25869751 2.53474426 C46.72037681 2.8897368 49.93426799 3.43368027 53.5390625 6.33203125 C55.42367574 10.49388549 55.89043217 12.38333313 54.2890625 16.70703125 C52.5390625 19.33203125 52.5390625 19.33203125 50.5390625 20.33203125 C48.31176378 20.43233344 46.08111367 20.46169071 43.8515625 20.45703125 C42.65144531 20.45960937 41.45132813 20.4621875 40.21484375 20.46484375 C36.0497133 20.39640099 31.90149608 20.10991807 27.74682617 19.82373047 C27.05249229 19.77663437 26.35815842 19.72953827 25.64278412 19.68101501 C23.94148813 19.56550084 22.24026749 19.44887786 20.5390625 19.33203125 C21.09029785 19.86550171 21.6415332 20.39897217 22.20947266 20.9486084 C27.40965773 25.98826416 32.59011332 31.04703643 37.74972534 36.12819672 C40.40284408 38.73962548 43.06285358 41.34312084 45.74023438 43.9296875 C48.32554995 46.42785468 50.89061942 48.94526748 53.4430542 51.477005 C54.41849761 52.43770607 55.4009386 53.39135689 56.39044189 54.33757019 C65.11067859 62.69127606 65.11067859 62.69127606 65.24609375 67.83007812 C64.45265763 71.75999794 63.84174731 73.10048746 60.5390625 75.33203125 C57.6238228 76.37852755 56.11919873 76.51140597 53.15534973 75.59500122 C50.20423572 74.17039909 48.41986646 72.57429264 46.1159668 70.24951172 C45.27547287 69.4087912 44.43497894 68.56807068 43.5690155 67.70187378 C42.22967705 66.33930954 42.22967705 66.33930954 40.86328125 64.94921875 C39.9381221 64.01981476 39.01296295 63.09041077 38.05976868 62.13284302 C35.60851796 59.67017591 33.16641325 57.19863174 30.72613525 54.72509766 C28.23111199 52.19930424 25.72750081 49.682055 23.22460938 47.1640625 C18.32101177 42.22835741 13.42702811 37.28321629 8.5390625 32.33203125 C8.5798291 33.15928711 8.6205957 33.98654297 8.66259766 34.83886719 C8.84096466 38.58615272 9.00269812 42.3339767 9.1640625 46.08203125 C9.22851562 47.38398437 9.29296875 48.6859375 9.359375 50.02734375 C9.43671875 51.90292969 9.43671875 51.90292969 9.515625 53.81640625 C9.56799316 54.96850586 9.62036133 56.12060547 9.67431641 57.30761719 C9.54006818 60.30954317 9.17748534 61.85307654 7.5390625 64.33203125 C4.84318447 66.42882528 3.4461185 66.32713946 -0.0234375 66.14453125 C-3.35568789 65.35690843 -4.51464511 65.03521512 -6.4609375 62.33203125 C-7.63842442 59.97705741 -7.73961825 58.23561148 -7.95751953 55.61035156 C-8.08237228 54.13807098 -8.08237228 54.13807098 -8.20974731 52.63604736 C-8.2952182 51.5715033 -8.38068909 50.50695923 -8.46875 49.41015625 C-8.55849091 48.31741394 -8.64823181 47.22467163 -8.74069214 46.09881592 C-8.92940284 43.78219943 -9.11587255 41.46539948 -9.30029297 39.1484375 C-9.58370279 35.60993261 -9.87935092 32.0725911 -10.17578125 28.53515625 C-10.35752269 26.28521686 -10.5385359 24.03521849 -10.71875 21.78515625 C-10.80826935 20.72870911 -10.8977887 19.67226196 -10.99002075 18.58380127 C-11.93138815 6.41910155 -11.93138815 6.41910155 -8.80224609 1.9777832 C-5.67979909 -0.21704633 -3.79959156 -0.11324335 0 0 Z " fill="#000000" transform="translate(102.4609375,60.66796875)"/>
</svg>
