<?xml version="1.0" encoding="UTF-8"?>
<svg version="1.1" xmlns="http://www.w3.org/2000/svg" width="512" height="512">
<path d="M0 0 C0.91281738 0.22574707 1.82563477 0.45149414 2.76611328 0.68408203 C33.75551148 8.53905124 60.80458437 22.9958897 84 45 C84.7420166 45.69319336 84.7420166 45.69319336 85.49902344 46.40039062 C110.84197339 70.19937008 126.97301797 101.36025612 135 135 C135.17789062 135.7110791 135.35578125 136.4221582 135.5390625 137.15478516 C141.65524434 162.65707907 140.94438163 196.32365636 132 221 C132.93005859 221.03867187 132.93005859 221.03867187 133.87890625 221.078125 C162.24151032 222.89465277 187.53547356 237.51926331 206.75 257.8125 C224.90318866 278.96872545 234.41394662 304.7015071 234.375 332.5625 C234.37418427 333.55120087 234.37418427 333.55120087 234.37335205 334.55987549 C234.33181094 345.54101814 233.38494788 355.5566372 230 366 C229.67854004 367.0223877 229.67854004 367.0223877 229.35058594 368.06542969 C224.76798059 382.29351879 217.81286424 394.68612402 208 406 C207.33613281 406.80824219 206.67226563 407.61648438 205.98828125 408.44921875 C188.84157733 428.63859101 163.24014277 441.81374274 137 445 C132.1422366 445.31167763 127.30447825 445.3818035 122.4375 445.375 C121.44879913 445.37418427 121.44879913 445.37418427 120.44012451 445.37335205 C109.45898186 445.33181094 99.4433628 444.38494788 89 441 C87.9776123 440.67854004 87.9776123 440.67854004 86.93457031 440.35058594 C72.70648121 435.76798059 60.31387598 428.81286424 49 419 C48.19175781 418.33613281 47.38351562 417.67226563 46.55078125 416.98828125 C26.83415255 400.2430754 12.30322671 373.94655399 10 348 C9.97893427 346.33346647 9.97359486 344.66645748 10 343 C8.99582031 343.26554687 7.99164063 343.53109375 6.95703125 343.8046875 C5.57560665 344.16179046 4.19409114 344.5185419 2.8125 344.875 C2.15830078 345.04902344 1.50410156 345.22304688 0.83007812 345.40234375 C-11.97829766 348.6803167 -24.48010253 349.37276 -37.625 349.3125 C-38.46860077 349.31034485 -39.31220154 349.3081897 -40.18136597 349.30596924 C-52.3475399 349.25602801 -64.14201557 348.9665114 -76 346 C-76.81033691 345.80664062 -77.62067383 345.61328125 -78.45556641 345.4140625 C-109.33419352 337.88467384 -137.07259784 323.02474853 -160 301 C-160.49032715 300.54077148 -160.9806543 300.08154297 -161.48583984 299.60839844 C-186.83680108 275.80826453 -202.97135595 244.64670911 -211 211 C-211.17789063 210.2889209 -211.35578125 209.5778418 -211.5390625 208.84521484 C-216.92924885 186.37006284 -216.7229747 157.37635811 -211 135 C-210.76893555 134.07654785 -210.53787109 133.1530957 -210.29980469 132.20166016 C-206.79833731 118.5547461 -202.36303003 105.57752994 -196 93 C-195.65743164 92.3203418 -195.31486328 91.64068359 -194.96191406 90.94042969 C-187.39108313 76.18683464 -177.47839201 62.94881791 -166 51 C-165.54077148 50.50967285 -165.08154297 50.0193457 -164.60839844 49.51416016 C-140.59807885 23.93931745 -109.74742453 8.44421685 -76 0 C-75.23768066 -0.1949707 -74.47536133 -0.38994141 -73.68994141 -0.59082031 C-51.31381806 -6.01250783 -22.27753373 -5.67691874 0 0 Z M-129 62 C-129.83917969 62.73089844 -130.67835938 63.46179688 -131.54296875 64.21484375 C-134.0612936 66.44361839 -136.53831652 68.70892825 -139 71 C-139.67804688 71.62390625 -140.35609375 72.2478125 -141.0546875 72.890625 C-168.03430687 98.67837363 -180.64145776 135.41686262 -182 172 C-182.68348654 210.67458665 -166.1346334 245.98231505 -140.3125 273.90625 C-114.01672325 301.11932129 -77.31903043 316.30273465 -39.57470703 317.00683594 C-24.00554768 316.96549927 -8.8527915 314.6395255 6 310 C7.27101562 309.65195312 8.54203125 309.30390625 9.8515625 308.9453125 C14.54270979 306.04681207 15.01919769 302.46364037 16.375 297.3125 C20.62925672 283.03813963 27.14709153 271.21127061 37 260 C37.67417969 259.18273437 38.34835937 258.36546875 39.04296875 257.5234375 C52.02669744 242.24568025 69.54056739 231.53916657 88.99414062 226.90942383 C92.72471123 225.87280174 95.22636021 225.17052167 97.41723633 221.85571289 C98.49767253 219.26021673 99.29461054 216.72039344 100 214 C100.32218506 212.86534302 100.32218506 212.86534302 100.65087891 211.70776367 C101.22120893 209.58524227 101.71603557 207.45895622 102.1875 205.3125 C102.4340332 204.25192383 102.4340332 204.25192383 102.68554688 203.16992188 C104.88942938 193.48889953 105.24196194 184.01154669 105.25 174.125 C105.25067474 173.38290283 105.25134949 172.64080566 105.25204468 171.8762207 C105.2362365 160.94937451 104.79814472 150.61946492 102 140 C101.82839355 139.31663574 101.65678711 138.63327148 101.47998047 137.92919922 C95.41023619 114.02449589 83.87522635 92.98936267 67 75 C66.54125488 74.50419434 66.08250977 74.00838867 65.60986328 73.49755859 C39.28160285 45.25417083 3.13979118 30.98709286 -35 29 C-68.44179363 28.04203195 -103.83119216 39.78711432 -129 62 Z M88 261 C87.08476562 261.41894531 86.16953125 261.83789062 85.2265625 262.26953125 C66.91636367 271.37216591 53.65690373 287.65952043 46.64453125 306.67578125 C39.81213468 328.45558692 41.51492514 350.23123674 51.93334961 370.49609375 C54.54314193 375.36657865 57.39363407 379.80054471 61 384 C61.49628906 384.63808594 61.99257813 385.27617187 62.50390625 385.93359375 C73.70624322 399.78130186 92.33543626 409.71743702 110 412 C134.36958263 413.97148155 156.08476578 408.49093466 175.03515625 392.68359375 C188.94918109 380.0894764 199.84354172 361.54772158 201.17700195 342.46728516 C201.69284879 319.92210674 198.13182272 299.62034529 183 282 C182.50371094 281.36191406 182.00742187 280.72382813 181.49609375 280.06640625 C169.96580267 265.81329944 151.94024942 256.76898791 134 254 C133.09894531 253.83628906 132.19789063 253.67257812 131.26953125 253.50390625 C116.93731148 251.5430807 100.94338408 254.7779049 88 261 Z " fill="#000000" transform="translate(246,35)"/>
<path d="M0 0 C3.88446678 2.58964452 6.69907021 5.64814041 8.8125 9.875 C8.80089844 10.81988281 8.78929687 11.76476562 8.77734375 12.73828125 C8.74887977 16.32880934 8.90659664 19.39511161 9.8125 22.875 C12.08343916 24.81170819 14.200083 25.60610285 16.984375 26.66015625 C26.53012766 30.76061077 33.73902895 40.48181542 38.12890625 49.61328125 C41.26803102 57.69625408 42.05592629 66.29901575 40.8125 74.875 C38.14804565 79.60440648 35.78524121 82.5662273 30.8125 84.875 C25.2127288 85.62881535 20.47750009 85.64803575 15.3125 83.25 C9.52716778 77.75393439 8.09666282 72.69246205 6.71875 64.99609375 C5.48573409 60.74962949 3.56537434 58.03654324 -0.1328125 55.5859375 C-4.10055254 54.21306927 -8.0583233 54.34662194 -12.1875 54.875 C-16.59358743 57.03798837 -19.3862497 59.27180479 -21.1875 63.875 C-21.87176057 68.91825384 -21.7614862 72.70576884 -19.5 77.3125 C-14.63906452 82.69894202 -9.88638177 83.45422464 -3 84.3125 C12.028168 86.47036159 22.04591356 91.81352343 32.0234375 103.48046875 C40.92899486 115.39991561 41.96752612 128.50954724 40.8125 142.875 C38.74842301 154.33248125 31.79212005 164.55562779 22.8125 171.875 C18.66161093 174.67605797 14.57669453 177.28693516 9.8125 178.875 C9.78671875 179.74382812 9.7609375 180.61265625 9.734375 181.5078125 C9.16066857 193.16448405 9.16066857 193.16448405 4.8125 197.875 C4.11125 198.638125 3.41 199.40125 2.6875 200.1875 C-1.49715092 202.64370815 -5.37386466 203.05579382 -10.1875 202.875 C-16.09390798 201.22895187 -18.71224458 198.67902955 -22.1875 193.875 C-23.1875 191.875 -23.1875 191.875 -23.15234375 189.01171875 C-23.12387977 185.42119066 -23.28159664 182.35488839 -24.1875 178.875 C-26.45843916 176.93829181 -28.575083 176.14389715 -31.359375 175.08984375 C-40.90512766 170.98938923 -48.11402895 161.26818458 -52.50390625 152.13671875 C-55.64303102 144.05374592 -56.43092629 135.45098425 -55.1875 126.875 C-52.52304565 122.14559352 -50.16024121 119.1837727 -45.1875 116.875 C-39.5877288 116.12118465 -34.85250009 116.10196425 -29.6875 118.5 C-23.90216778 123.99606561 -22.47166282 129.05753795 -21.09375 136.75390625 C-19.86073409 141.00037051 -17.94037434 143.71345676 -14.2421875 146.1640625 C-10.27444746 147.53693073 -6.3166767 147.40337806 -2.1875 146.875 C2.21858743 144.71201163 5.0112497 142.47819521 6.8125 137.875 C7.49676057 132.83174616 7.3864862 129.04423116 5.125 124.4375 C0.26406452 119.05105798 -4.48861823 118.29577536 -11.375 117.4375 C-26.403168 115.27963841 -36.42091356 109.93647657 -46.3984375 98.26953125 C-55.30399486 86.35008439 -56.34252612 73.24045276 -55.1875 58.875 C-53.12342301 47.41751875 -46.16712005 37.19437221 -37.1875 29.875 C-33.03661093 27.07394203 -28.95169453 24.46306484 -24.1875 22.875 C-24.16171875 22.00617188 -24.1359375 21.13734375 -24.109375 20.2421875 C-23.53566857 8.58551595 -23.53566857 8.58551595 -19.1875 3.875 C-13.37010796 -1.37484159 -7.3959011 -2.61031804 0 0 Z " fill="#000000" transform="translate(215.1875,107.125)"/>
<path d="M0 0 C3.88446678 2.58964452 6.69907021 5.64814041 8.8125 9.875 C9.12109375 12.4140625 9.12109375 12.4140625 9.25 15.5 C9.31058594 16.50289063 9.37117188 17.50578125 9.43359375 18.5390625 C7.85844183 26.99931244 -0.62102177 33.62899995 -6.4609375 39.484375 C-7.34351227 40.37360657 -8.22608704 41.26283813 -9.13540649 42.17901611 C-10.99356773 44.0472543 -12.85440556 45.91283375 -14.71777344 47.77587891 C-16.61769076 49.67563307 -18.51028847 51.58222789 -20.39648438 53.49560547 C-23.13707257 56.27290649 -25.89086645 59.03644676 -28.6484375 61.796875 C-29.48514984 62.64795837 -30.32186218 63.49904175 -31.18392944 64.37591553 C-36.72847045 69.87785717 -41.70331194 74.23440171 -49.6875 75.375 C-59.42229563 73.98431491 -65.37099878 67.28639038 -71.93505859 60.59399414 C-73.56734879 58.93256465 -75.21770884 57.29080109 -76.87109375 55.65039062 C-77.92299388 54.59225694 -78.9738143 53.53304858 -80.0234375 52.47265625 C-80.75776505 51.74273216 -80.75776505 51.74273216 -81.50692749 50.99806213 C-85.66600581 46.72291886 -87.4675187 42.94582966 -87.5625 37 C-87.43018319 31.76959419 -86.41414512 29.01172451 -83.1875 24.875 C-78.36688294 21.11491869 -74.76297864 20.43160376 -68.71484375 20.44140625 C-62.6946087 21.4742441 -58.94227027 24.76530661 -54.8125 29.0625 C-53.50152344 30.41408203 -53.50152344 30.41408203 -52.1640625 31.79296875 C-51.51179688 32.48003906 -50.85953125 33.16710937 -50.1875 33.875 C-45.47075435 29.9494312 -41.05300429 25.84844224 -36.7734375 21.453125 C-35.58882836 20.2510195 -34.40392394 19.04920492 -33.21875 17.84765625 C-31.38110585 15.97895749 -29.54592988 14.10801366 -27.71582031 12.23193359 C-25.92928517 10.40304319 -24.13340973 8.58375856 -22.3359375 6.765625 C-21.52169815 5.92345428 -21.52169815 5.92345428 -20.69100952 5.06427002 C-14.60707344 -1.06026904 -8.22360832 -2.90245 0 0 Z " fill="#000000" transform="translate(407.1875,333.125)"/>
</svg>
