<?xml version="1.0" encoding="UTF-8"?>
<svg version="1.1" xmlns="http://www.w3.org/2000/svg" width="512" height="512">
<path d="M0 0 C9.0388145 6.74582555 13.82979563 15.595451 16.19921875 26.53125 C16.29203125 28.14 16.29203125 28.14 16.38671875 29.78125 C16.46921875 30.9775 16.55171875 32.17375 16.63671875 33.40625 C16.68047234 36.23929483 16.28411259 38.06048533 15.29296875 40.7578125 C14.02962155 44.33445085 13.27685748 46.97565577 13.38671875 50.78125 C16.66684379 55.65758563 20.84007539 59.11847977 25.38671875 62.78125 C26.80751693 64.02655196 28.2249538 65.27571658 29.63671875 66.53125 C30.260625 67.06234375 30.88453125 67.5934375 31.52734375 68.140625 C34.27754648 70.56727447 36.81060052 73.19611231 39.3828125 75.80859375 C41.96918026 78.35462829 44.70207155 80.70146557 47.453125 83.06640625 C49.95241013 85.28294397 52.26953759 87.65287281 54.609375 90.03515625 C56.45265449 91.84602643 58.36494674 93.53446354 60.32421875 95.21875 C63.85306638 98.25804651 67.11676902 101.49141847 70.3828125 104.80859375 C72.96918026 107.35462829 75.70207155 109.70146557 78.453125 112.06640625 C80.95241013 114.28294397 83.26953759 116.65287281 85.609375 119.03515625 C87.45265449 120.84602643 89.36494674 122.53446354 91.32421875 124.21875 C94.85306638 127.25804651 98.11676902 130.49141847 101.3828125 133.80859375 C103.96918026 136.35462829 106.70207155 138.70146557 109.453125 141.06640625 C111.95241013 143.28294397 114.26953759 145.65287281 116.609375 148.03515625 C118.45265449 149.84602643 120.36494674 151.53446354 122.32421875 153.21875 C125.85306638 156.25804651 129.11676902 159.49141847 132.3828125 162.80859375 C134.96918026 165.35462829 137.70207155 167.70146557 140.453125 170.06640625 C142.94553091 172.27684301 145.25669442 174.63966559 147.58984375 177.015625 C150.15251746 179.53373047 152.86128306 181.86747705 155.58984375 184.203125 C157.38671875 185.78125 157.38671875 185.78125 158.6652832 187.35449219 C161.04699378 189.32849823 162.65963437 189.16473795 165.7265625 189.1875 C167.32274414 189.22037109 167.32274414 189.22037109 168.95117188 189.25390625 C170.06427734 189.26292969 171.17738281 189.27195313 172.32421875 189.28125 C189.78936517 189.42740185 203.28404576 193.30227492 216.1640625 205.48828125 C228.53532445 218.25090122 231.84826542 232.12415825 231.79077148 249.50537109 C231.79648382 251.07356754 231.80345141 252.64175984 231.81156921 254.20994568 C231.82942141 258.44355591 231.82834717 262.67695798 231.82262683 266.91059446 C231.81952312 270.45654352 231.82564059 274.00245327 231.83166558 277.54839671 C231.84568343 285.91999344 231.84417268 294.29148807 231.83276367 302.66308594 C231.82128787 311.27348177 231.83535529 319.88356592 231.86216015 328.49392068 C231.88437745 335.91083117 231.8909409 343.32764426 231.88508373 350.74458563 C231.88172701 355.16366586 231.88404304 359.58254641 231.90133476 364.00159836 C231.91689817 368.15997735 231.91274534 372.31789774 231.89402962 376.47625923 C231.89036941 377.99348048 231.89337635 379.51073643 231.90391541 381.02792549 C232.00369404 396.59238655 228.00005757 410.92282484 217.13671875 422.59375 C209.65512904 429.44074058 201.04290519 433.87030887 191.38671875 436.78125 C190.82266356 436.95846704 190.25860838 437.13568408 189.67746061 437.31827134 C186.53515766 437.95335783 183.53095654 437.91097829 180.32469273 437.91547108 C179.25233869 437.91899942 179.25233869 437.91899942 178.15832093 437.92259905 C175.75035328 437.92928344 173.34243966 437.92883099 170.9344635 437.92842102 C169.19548489 437.93172001 167.45650705 437.93544565 165.71753019 437.9395625 C160.92879869 437.9495869 156.14007973 437.95330001 151.35133922 437.95595181 C146.19023472 437.95985363 141.02914015 437.96943214 135.86804199 437.97816467 C123.39790331 437.9979339 110.92776381 438.00799647 98.45761338 438.01689246 C92.58521561 438.02127514 86.71281874 438.02664205 80.84042168 438.03188133 C61.31851546 438.04889507 41.7966098 438.06338876 22.2746973 438.07063007 C17.20778973 438.07253997 12.14088216 438.0744603 7.07397461 438.07641602 C5.1849376 438.07714163 5.1849376 438.07714163 3.25773823 438.0778819 C-17.13837746 438.08618036 -37.53443446 438.11151355 -57.93052452 438.14399669 C-78.8709749 438.17707481 -99.81139548 438.19507957 -120.75187212 438.19827431 C-132.50901048 438.20043885 -144.2660633 438.20917919 -156.02317619 438.23473549 C-166.03735855 438.25645284 -176.05143459 438.26448782 -186.06563782 438.25476871 C-191.1730563 438.25022687 -196.28025547 438.25210358 -201.38764381 438.27153015 C-206.06924259 438.28918295 -210.7504624 438.28814686 -215.43206532 438.27263286 C-217.11992286 438.27025999 -218.80780679 438.27456356 -220.49562406 438.28646151 C-239.027971 438.40894179 -253.42175207 433.77137504 -266.80859375 420.734375 C-278.63450969 408.64706909 -281.22762987 394.1232404 -281.13085938 377.80834961 C-281.13629373 376.24956106 -281.14342369 374.69077766 -281.15209961 373.13200378 C-281.17017857 368.93775615 -281.16333045 364.74390651 -281.15058327 360.54965281 C-281.14037664 356.13771121 -281.14986986 351.72580114 -281.15612793 347.31385803 C-281.16338145 339.90929109 -281.15387643 332.50488435 -281.13476562 325.1003418 C-281.11299323 316.56655547 -281.12006014 308.03315144 -281.14207125 299.49937433 C-281.16028137 292.14183998 -281.1627565 284.78442003 -281.15231657 277.42687041 C-281.1461134 273.04585326 -281.14515788 268.66501523 -281.15846252 264.28400993 C-281.17010291 260.1641462 -281.16184775 256.04477073 -281.1388855 251.92495918 C-281.1336421 250.42225577 -281.13503629 248.91951054 -281.14393616 247.41682434 C-281.2279506 231.77772113 -277.08390148 218.26834109 -266.42578125 206.5 C-256.99970202 197.56147659 -244.19691537 189.75348115 -230.82177734 189.78857422 C-229.84547363 189.8351416 -228.86916992 189.88170898 -227.86328125 189.9296875 C-217.85896088 190.37411157 -209.3964837 190.73120062 -201.60693359 183.75390625 C-198.82453736 180.91534671 -196.16561383 177.99511082 -193.57080078 174.984375 C-190.43928049 171.45995006 -186.96626313 168.33254664 -183.48828125 165.15625 C-182.16110936 163.91582667 -180.83557361 162.67365035 -179.51171875 161.4296875 C-175.09789628 157.29708418 -170.67678867 153.17230757 -166.25512695 149.0480957 C-159.02852505 142.30597988 -151.82123995 135.54328375 -144.61328125 128.78125 C-136.1707013 120.86097562 -127.72332292 112.94604218 -119.25756836 105.05053711 C-114.70271687 100.80129222 -110.15633239 96.54310648 -105.61328125 92.28125 C-100.45333461 87.4406811 -95.2872474 82.60683076 -90.11328125 77.78125 C-84.71361689 72.74367485 -79.31686272 67.70301057 -73.92578125 62.65625 C-72.91837891 61.71458984 -72.91837891 61.71458984 -71.890625 60.75390625 C-71.25898438 60.16222656 -70.62734375 59.57054688 -69.9765625 58.9609375 C-69.3882666 58.41018555 -68.7999707 57.85943359 -68.19384766 57.29199219 C-66.85577957 56.01303555 -65.56298397 54.68697042 -64.28125 53.3515625 C-62.61328125 51.78125 -62.61328125 51.78125 -60.61328125 51.78125 C-60.81824219 51.25917969 -61.02320313 50.73710938 -61.234375 50.19921875 C-65.37351805 38.89084228 -65.28372623 28.52554044 -61.36328125 17.15625 C-55.14617575 5.16611797 -47.63382135 -2.03598582 -34.61328125 -6.21875 C-22.65057223 -9.88829264 -10.21329024 -6.54163645 0 0 Z M-49.61328125 63.78125 C-50.17015625 64.34972656 -50.72703125 64.91820313 -51.30078125 65.50390625 C-55.63456159 69.88893061 -60.03602309 74.08850289 -64.71484375 78.1015625 C-67.20287151 80.30290393 -69.50522202 82.66213515 -71.83203125 85.03125 C-74.3322431 87.48759849 -76.99008641 89.74434368 -79.64453125 92.03125 C-81.54351196 93.71923286 -83.33334113 95.46894734 -85.11328125 97.28125 C-87.50381292 99.71514732 -89.96374387 101.99480559 -92.55078125 104.21875 C-95.35904472 106.63742779 -98.01298718 109.14024683 -100.61328125 111.78125 C-103.83486675 115.05327128 -107.1992027 118.07441055 -110.6796875 121.06640625 C-112.56822722 122.74129299 -114.34483773 124.48072587 -116.11328125 126.28125 C-118.50381292 128.71514732 -120.96374387 130.99480559 -123.55078125 133.21875 C-126.35904472 135.63742779 -129.01298718 138.14024683 -131.61328125 140.78125 C-134.83486675 144.05327128 -138.1992027 147.07441055 -141.6796875 150.06640625 C-143.56822722 151.74129299 -145.34483773 153.48072587 -147.11328125 155.28125 C-149.50381292 157.71514732 -151.96374387 159.99480559 -154.55078125 162.21875 C-157.35904472 164.63742779 -160.01298718 167.14024683 -162.61328125 169.78125 C-165.82766513 173.04595692 -169.18409357 176.06095744 -172.65625 179.046875 C-175.78328094 181.81813595 -178.69573923 184.79274074 -181.61328125 187.78125 C-182.60328125 188.77125 -182.60328125 188.77125 -183.61328125 189.78125 C-78.34328125 189.78125 26.92671875 189.78125 135.38671875 189.78125 C133.73671875 188.13125 132.08671875 186.48125 130.38671875 184.78125 C129.36886994 183.75351621 128.35180255 182.72500718 127.3359375 181.6953125 C122.08093925 176.38915515 116.84055435 171.15835722 111.14453125 166.3203125 C108.69395788 164.17469937 106.44533106 161.84999586 104.1640625 159.52734375 C102.32078301 157.71647357 100.40849076 156.02803646 98.44921875 154.34375 C94.92037112 151.30445349 91.65666848 148.07108153 88.390625 144.75390625 C85.80425724 142.20787171 83.07136595 139.86103443 80.3203125 137.49609375 C77.82102737 135.27955603 75.50389991 132.90962719 73.1640625 130.52734375 C71.32078301 128.71647357 69.40849076 127.02803646 67.44921875 125.34375 C63.92037112 122.30445349 60.65666848 119.07108153 57.390625 115.75390625 C54.80425724 113.20787171 52.07136595 110.86103443 49.3203125 108.49609375 C46.82102737 106.27955603 44.50389991 103.90962719 42.1640625 101.52734375 C40.32078301 99.71647357 38.40849076 98.02803646 36.44921875 96.34375 C32.92037112 93.30445349 29.65666848 90.07108153 26.390625 86.75390625 C23.805553 84.20914726 21.07426814 81.86332369 18.32421875 79.5 C16.41269299 77.80429166 14.61466952 76.04117311 12.82421875 74.21875 C10.48616623 71.86468342 8.13964089 69.52955381 5.69921875 67.28125 C5.15910156 66.7759375 4.61898437 66.270625 4.0625 65.75 C2.43749177 64.59274227 2.43749177 64.59274227 0.5234375 64.96875 C-2.08364939 65.96011028 -4.5912299 67.08951145 -7.11328125 68.28125 C-16.68448992 72.80390904 -27.51324527 73.60338478 -37.61328125 70.03125 C-41.82181347 68.26983143 -45.74199113 66.19005274 -49.61328125 63.78125 Z M-167.61328125 272.78125 C-169.08574704 275.72618157 -168.76924828 278.70822516 -168.77441406 281.93725586 C-168.77937897 282.6740004 -168.78434387 283.41074493 -168.78945923 284.16981506 C-168.80408868 286.61191738 -168.8108836 289.05395478 -168.81640625 291.49609375 C-168.8221564 293.18998721 -168.82791415 294.88388064 -168.8336792 296.57777405 C-168.84419096 300.13119816 -168.85003269 303.68459963 -168.85351562 307.23803711 C-168.85900533 311.79581248 -168.88304261 316.35328985 -168.91148758 320.91097164 C-168.93009067 324.41021099 -168.93531827 327.90937817 -168.9368515 331.4086628 C-168.93988309 333.0892252 -168.94792859 334.76978619 -168.96103668 336.45030022 C-168.9780514 338.79904904 -168.97622868 341.14706453 -168.96972656 343.49584961 C-168.97894135 344.19257782 -168.98815613 344.88930603 -168.99765015 345.60714722 C-168.97273695 348.47331406 -168.94895792 350.32652196 -167.21600342 352.67408752 C-164.23954753 354.73022697 -162.67223817 354.85584434 -159.11328125 354.46875 C-158.31921875 354.39011719 -157.52515625 354.31148438 -156.70703125 354.23046875 C-154.40473216 353.9347258 -154.40473216 353.9347258 -152.61328125 351.78125 C-152.33423496 348.67086056 -152.33423496 348.67086056 -152.41796875 345.0234375 C-152.42221359 344.02886032 -152.42221359 344.02886032 -152.42654419 343.01419067 C-152.4377469 340.89469417 -152.46285074 338.77561896 -152.48828125 336.65625 C-152.49831097 335.22005818 -152.50743684 333.78385975 -152.515625 332.34765625 C-152.53768625 328.82538372 -152.57221631 325.30335797 -152.61328125 321.78125 C-149.31328125 321.78125 -146.01328125 321.78125 -142.61328125 321.78125 C-142.34233643 322.64854736 -142.0713916 323.51584473 -141.79223633 324.40942383 C-139.82984033 330.02190077 -137.01703801 335.18998686 -134.30078125 340.46875 C-133.73166016 341.60892578 -133.16253906 342.74910156 -132.57617188 343.92382812 C-132.01478516 345.01501953 -131.45339844 346.10621094 -130.875 347.23046875 C-130.36928467 348.22393311 -129.86356934 349.21739746 -129.3425293 350.2409668 C-127.38233337 353.12051482 -125.77332391 354.35390349 -122.61328125 355.78125 C-117.63614169 354.95172674 -114.62524695 352.79720427 -111.61328125 348.78125 C-111.92441782 344.42945158 -113.17481073 341.25929818 -115.30078125 337.48828125 C-115.83445313 336.52857422 -116.368125 335.56886719 -116.91796875 334.58007812 C-117.47742188 333.59458984 -118.036875 332.60910156 -118.61328125 331.59375 C-119.71947394 329.62222916 -120.82373177 327.64962108 -121.92578125 325.67578125 C-122.41691406 324.80800049 -122.90804687 323.94021973 -123.4140625 323.04614258 C-124.61328125 320.78125 -124.61328125 320.78125 -125.61328125 317.78125 C-124.89140625 317.554375 -124.16953125 317.3275 -123.42578125 317.09375 C-118.77182923 314.92190572 -116.28124129 312.02174722 -113.86328125 307.53125 C-111.24705701 299.68257728 -111.10799872 292.71690168 -113.61328125 284.78125 C-116.67626407 278.98346109 -120.73462673 274.86753473 -126.92578125 272.53125 C-135.25530356 270.83710987 -143.45391158 270.59894428 -151.92578125 270.59375 C-153.53163086 270.57538086 -153.53163086 270.57538086 -155.16992188 270.55664062 C-156.19923828 270.55470703 -157.22855469 270.55277344 -158.2890625 270.55078125 C-159.21630127 270.54667236 -160.14354004 270.54256348 -161.09887695 270.53833008 C-163.76221769 270.79563895 -165.37101483 271.34157887 -167.61328125 272.78125 Z M-89.61328125 273.78125 C-90.78122817 277.28509077 -90.75465615 280.06110626 -90.77441406 283.75952148 C-90.77937897 284.46554504 -90.78434387 285.1715686 -90.78945923 285.89898682 C-90.80405882 288.23344905 -90.81087844 290.56784337 -90.81640625 292.90234375 C-90.82215863 294.52515159 -90.82791635 296.14795941 -90.8336792 297.77076721 C-90.8441823 301.17278357 -90.85002978 304.57477635 -90.85351562 307.97680664 C-90.85900508 312.33604314 -90.88304544 316.69496804 -90.91148758 321.05410671 C-90.93010841 324.40583713 -90.93531921 327.75749232 -90.9368515 331.1092701 C-90.93987881 332.7164385 -90.94790999 334.32360555 -90.96103668 335.93072319 C-90.97808931 338.17858526 -90.9762195 340.4256835 -90.96972656 342.67358398 C-90.97337219 343.95249008 -90.97701782 345.23139618 -90.98077393 346.54905701 C-90.58665112 350.01546891 -90.2016561 351.46071571 -87.61328125 353.78125 C-85.40918133 354.38442434 -85.40918133 354.38442434 -82.9140625 354.29882812 C-81.96297607 354.31143677 -81.01188965 354.32404541 -80.03198242 354.33703613 C-79.00693604 354.32893921 -77.98188965 354.32084229 -76.92578125 354.3125 C-75.34470581 354.31824036 -75.34470581 354.31824036 -73.73168945 354.32409668 C-71.5024317 354.32681951 -69.27314219 354.31943248 -67.04394531 354.30273438 C-63.62623048 354.28133109 -60.21061798 354.30252463 -56.79296875 354.328125 C-54.6289016 354.32548179 -52.46483575 354.32035696 -50.30078125 354.3125 C-49.27573486 354.32059692 -48.25068848 354.32869385 -47.19458008 354.33703613 C-46.24349365 354.32442749 -45.29240723 354.31181885 -44.3125 354.29882812 C-43.47549561 354.29564575 -42.63849121 354.29246338 -41.77612305 354.28918457 C-39.4607699 353.94580491 -39.4607699 353.94580491 -37.80786133 351.97546387 C-36.01517359 348.68264126 -36.75818804 346.33317563 -37.61328125 342.78125 C-39.52771446 340.42934337 -39.52771446 340.42934337 -42.86962891 340.55419922 C-44.2555742 340.55451618 -45.64154426 340.56583241 -47.02734375 340.5859375 C-48.12180313 340.59018234 -48.12180313 340.59018234 -49.2383728 340.59451294 C-51.57184153 340.60571998 -53.90492828 340.6308249 -56.23828125 340.65625 C-57.81900488 340.66627915 -59.39973452 340.67540511 -60.98046875 340.68359375 C-64.85833894 340.70396072 -68.73538187 340.74310673 -72.61328125 340.78125 C-72.61328125 333.85125 -72.61328125 326.92125 -72.61328125 319.78125 C-63.30078125 319.96875 -63.30078125 319.96875 -60.37768555 320.05151367 C-59.61367432 320.05900635 -58.84966309 320.06649902 -58.0625 320.07421875 C-57.28221436 320.0899292 -56.50192871 320.10563965 -55.69799805 320.12182617 C-53.04513057 319.68843232 -52.19180066 318.9298503 -50.61328125 316.78125 C-50.02994792 313.28125 -50.02994792 313.28125 -50.61328125 309.78125 C-52.41445161 307.6596558 -53.85965889 306.86868735 -56.62915039 306.54736328 C-59.04969104 306.48551439 -61.44270328 306.52056271 -63.86328125 306.59375 C-66.75078125 306.655625 -69.63828125 306.7175 -72.61328125 306.78125 C-72.61328125 300.18125 -72.61328125 293.58125 -72.61328125 286.78125 C-70.43347656 286.83925781 -68.25367188 286.89726562 -66.0078125 286.95703125 C-63.88634882 286.99607373 -61.76492582 287.02640527 -59.64331055 287.0559082 C-58.173726 287.08098644 -56.70426538 287.11505856 -55.23510742 287.15844727 C-53.11736444 287.21940499 -51.00127549 287.24752316 -48.8828125 287.26953125 C-47.61026611 287.29571533 -46.33771973 287.32189941 -45.02661133 287.34887695 C-40.71387618 286.63168153 -39.27683281 285.17596034 -36.61328125 281.78125 C-35.77994792 278.78125 -35.77994792 278.78125 -36.61328125 275.78125 C-38.616836 273.07662548 -40.21643108 271.101525 -43.60125732 270.32543945 C-46.02305009 270.1524779 -48.39666059 270.14062405 -50.82421875 270.1875 C-51.71058014 270.18745972 -52.59694153 270.18741943 -53.51016235 270.18737793 C-55.38119613 270.1927278 -57.25222974 270.21028783 -59.12304688 270.23925781 C-61.97206109 270.28101228 -64.81870087 270.28033168 -67.66796875 270.2734375 C-69.4909017 270.28393473 -71.31382254 270.29687571 -73.13671875 270.3125 C-73.98172943 270.31270142 -74.82674011 270.31290283 -75.69735718 270.31311035 C-81.03249841 270.41867336 -84.92121975 271.1617792 -89.61328125 273.78125 Z M62.38671875 272.78125 C60.82318395 275.90831959 60.98713388 279.36107443 61.38671875 282.78125 C63.10898371 286.02974977 63.10898371 286.02974977 66.38671875 286.78125 C69.12537162 286.85176114 71.83699463 286.87482765 74.57421875 286.84375 C75.32380859 286.83923828 76.07339844 286.83472656 76.84570312 286.83007812 C78.69274258 286.81831354 80.53974088 286.80037865 82.38671875 286.78125 C82.38005692 287.57638504 82.37339508 288.37152008 82.36653137 289.19075012 C82.30644634 296.6803146 82.2607578 304.16976239 82.23128223 311.65950489 C82.21561915 315.51016831 82.19436952 319.36063275 82.16040039 323.21118164 C82.12782929 326.92646429 82.10987058 330.64155544 82.10208702 334.35696983 C82.09653941 335.77518415 82.08570631 337.19338787 82.06952858 338.61152077 C82.04778685 340.59613467 82.04649362 342.58094086 82.04614258 344.56567383 C82.03948074 345.69596512 82.03281891 346.82625641 82.0259552 347.99079895 C82.15098492 350.78868084 82.15098492 350.78868084 83.78300476 352.60722351 C87.31551416 355.19325795 90.05214512 355.0751194 94.38671875 354.78125 C97.16215708 353.77679008 97.16215708 353.77679008 99.38671875 351.78125 C100.11322461 348.86756978 100.11322461 348.86756978 99.9543457 345.47387695 C99.95396805 344.17275467 99.95359039 342.87163239 99.95320129 341.53108215 C99.92766784 340.11055549 99.90158785 338.69003857 99.875 337.26953125 C99.86567339 335.81651525 99.85855656 334.36348351 99.8535614 332.91044617 C99.83447893 329.08776363 99.78536935 325.26603246 99.7300415 321.44372559 C99.67887477 317.54269278 99.65605299 313.64150609 99.63085938 309.74023438 C99.57725011 302.08680606 99.49192439 294.43416137 99.38671875 286.78125 C101.04960937 286.81605469 101.04960937 286.81605469 102.74609375 286.8515625 C104.20962867 286.87032577 105.67317089 286.88852537 107.13671875 286.90625 C107.86632812 286.92300781 108.5959375 286.93976563 109.34765625 286.95703125 C114.6950905 287.03787212 114.6950905 287.03787212 119.38671875 284.78125 C120.16218799 282.73954288 120.16218799 282.73954288 120.26171875 280.40625 C120.34164062 279.63539063 120.4215625 278.86453125 120.50390625 278.0703125 C120.36903038 275.43573722 119.85811735 273.96430544 118.38671875 271.78125 C115.48783434 270.8149552 113.62703567 270.64948125 110.61157227 270.63598633 C109.64369278 270.62960648 108.67581329 270.62322662 107.67860413 270.61665344 C106.63482101 270.61554062 105.5910379 270.6144278 104.515625 270.61328125 C103.44175034 270.60995285 102.36787567 270.60662445 101.26145935 270.60319519 C98.98933338 270.59813046 96.71719997 270.59578672 94.44506836 270.59594727 C90.96650969 270.59376087 87.48826816 270.5756004 84.00976562 270.55664062 C81.8033865 270.55370662 79.59700587 270.55172187 77.390625 270.55078125 C76.34886612 270.54359573 75.30710724 270.53641022 74.23377991 270.52900696 C72.77723244 270.5336219 72.77723244 270.5336219 71.29125977 270.53833008 C70.01243675 270.53619255 70.01243675 270.53619255 68.70777893 270.53401184 C66.15400343 270.80603872 64.55081803 271.41348148 62.38671875 272.78125 Z M-15.61328125 273.78125 C-17.10920586 276.77309921 -16.75713756 279.50837975 -16.77441406 282.84545898 C-16.77937897 283.57244995 -16.78434387 284.29944092 -16.78945923 285.04846191 C-16.80408799 287.45809874 -16.81088348 289.86766978 -16.81640625 292.27734375 C-16.82215646 293.94881696 -16.82791421 295.62029015 -16.8336792 297.29176331 C-16.84419077 300.79810901 -16.85003263 304.30443177 -16.85351562 307.81079102 C-16.85900527 312.30803399 -16.88304251 316.80497493 -16.91148758 321.30212307 C-16.93009131 324.7550394 -16.93531831 328.20788258 -16.9368515 331.6608448 C-16.93988295 333.31907874 -16.94792799 334.97731124 -16.96103668 336.63549614 C-16.97805276 338.95311503 -16.97622837 341.26999083 -16.96972656 343.58764648 C-16.97337219 344.90731918 -16.97701782 346.22699188 -16.98077393 347.58665466 C-16.88748106 350.73931033 -16.88748106 350.73931033 -15.21600342 352.66835022 C-11.64095714 355.15079434 -8.93998424 355.0745858 -4.61328125 354.78125 C-1.79302886 353.98992872 -1.79302886 353.98992872 0.38671875 351.78125 C1.16560674 348.70972324 1.10782986 345.67495183 1.09375 342.51953125 C1.10887131 341.61373825 1.12399261 340.70794525 1.13957214 339.77470398 C1.18257011 336.88080182 1.19129867 333.98794024 1.19921875 331.09375 C1.22235369 329.13213356 1.24771693 327.17054204 1.27539062 325.20898438 C1.33836241 320.39964711 1.37060316 315.59096334 1.38671875 310.78125 C1.72815918 311.41925537 2.06959961 312.05726074 2.42138672 312.71459961 C11.00797855 328.73465422 11.00797855 328.73465422 19.88671875 344.59375 C20.46268799 345.6310022 20.46268799 345.6310022 21.05029297 346.68920898 C23.30963636 350.57865531 25.24460901 352.942525 29.38671875 354.78125 C32.88671875 355.44791667 32.88671875 355.44791667 36.38671875 354.78125 C39.75953132 352.16364986 41.22099562 350.68321051 42.00144958 346.43553162 C41.99637894 345.16186234 41.99130829 343.88819305 41.98608398 342.57592773 C41.9900267 341.86961212 41.99396942 341.16329651 41.99803162 340.43557739 C42.00472032 338.11126744 41.97563054 335.78894201 41.9453125 333.46484375 C41.94105996 331.84489828 41.93873355 330.22494671 41.93824768 328.60499573 C41.93208942 325.21465317 41.90942377 321.82497315 41.8737793 318.43481445 C41.82847111 314.09133779 41.81375096 309.7484601 41.81004238 305.40476894 C41.80561181 302.06157029 41.79030507 298.71849704 41.77116585 295.37535286 C41.76229379 293.77379448 41.75555887 292.17222277 41.75100517 290.57064629 C41.74195186 288.33259519 41.71955323 286.09508254 41.69311523 283.85717773 C41.68247543 282.58430405 41.67183563 281.31143036 41.66087341 279.99998474 C41.40287351 276.97091621 41.15271749 275.23031655 39.38671875 272.78125 C35.17670659 271.37791261 31.25125135 271.14338358 27.01171875 272.59375 C25.06726251 273.77398731 25.06726251 273.77398731 24.38671875 276.78125 C24.23257999 279.65563548 24.1292459 282.51023986 24.0703125 285.38671875 C24.0495314 286.22592361 24.02875031 287.06512848 24.00733948 287.92976379 C23.94197857 290.60934294 23.88302161 293.28901969 23.82421875 295.96875 C23.78102073 297.78581737 23.73740602 299.60287488 23.69335938 301.41992188 C23.58631095 305.87359799 23.48500556 310.32737226 23.38671875 314.78125 C22.93345215 313.88929932 22.48018555 312.99734863 22.01318359 312.07836914 C20.30788772 308.72635146 18.59518254 305.37816416 16.88037109 302.03100586 C16.14336175 300.58996119 15.40828657 299.14792542 14.67529297 297.70483398 C8.07043675 283.1120162 8.07043675 283.1120162 -2.61328125 271.78125 C-4.83271358 271.34817993 -4.83271358 271.34817993 -7.11328125 271.46875 C-8.2425 271.47455078 -8.2425 271.47455078 -9.39453125 271.48046875 C-11.86302982 271.81510676 -13.5018056 272.47083858 -15.61328125 273.78125 Z " fill="#000000" transform="translate(280.61328125,40.21875)"/>
<path d="M0 0 C2.866875 -0.103125 5.73375 -0.20625 8.6875 -0.3125 C10.02880981 -0.38078003 10.02880981 -0.38078003 11.3972168 -0.45043945 C15.68947902 -0.52504982 17.48168065 -0.39091874 21.01953125 2.27734375 C23.68846094 5.94646406 24.3056909 8.51653352 24 13 C22.93724237 17.1222114 21.63031384 19.57979077 18 22 C16.00708008 22.22705078 16.00708008 22.22705078 13.76953125 22.1953125 C13.04612549 22.19031738 12.32271973 22.18532227 11.57739258 22.18017578 C10.66497803 22.16196777 9.75256348 22.14375977 8.8125 22.125 C5.904375 22.08375 2.99625 22.0425 0 22 C0 14.74 0 7.48 0 0 Z " fill="#000000" transform="translate(128,327)"/>
</svg>
