<?xml version="1.0" encoding="UTF-8"?>
<svg version="1.1" xmlns="http://www.w3.org/2000/svg" width="512" height="512">
<path d="M0 0 C1.36344334 -0.00346793 2.72688387 -0.00824002 4.09031868 -0.01418173 C7.79006702 -0.02656582 11.48957963 -0.02057973 15.18932819 -0.01122308 C19.19758415 -0.00438055 23.20580211 -0.01493936 27.21405029 -0.02316284 C35.04770911 -0.03644734 42.88128131 -0.03364613 50.71494341 -0.02492492 C57.08603147 -0.01812787 63.45709539 -0.01724036 69.82818604 -0.02049637 C71.19244506 -0.02118592 71.19244506 -0.02118592 72.58426487 -0.0218894 C74.4323659 -0.02284865 76.28046692 -0.02382129 78.12856793 -0.02480717 C95.42601653 -0.03334559 112.7234173 -0.0235513 130.02085805 -0.00740607 C144.83733425 0.0059957 159.65373992 0.00366717 174.47021484 -0.01016235 C191.70912015 -0.02624559 208.94798361 -0.03252176 226.18689537 -0.02332556 C228.02789687 -0.02236999 229.86889839 -0.02142688 231.7098999 -0.02049637 C232.61552079 -0.02003354 233.52114168 -0.01957072 234.45420563 -0.01909386 C240.81178621 -0.0165122 247.16934007 -0.02085714 253.5269165 -0.02793503 C261.2830619 -0.03638078 269.0391163 -0.03400559 276.79525137 -0.0180928 C280.74653469 -0.01025124 284.69766674 -0.00704747 288.64894867 -0.01704025 C292.27606908 -0.02607396 295.90290005 -0.02091411 299.52999473 -0.0051076 C301.44187262 -0.00024472 303.35377112 -0.00987804 305.26562691 -0.02027929 C333.07795717 0.16566716 357.15248179 12.22569324 377.33154297 30.88485718 C397.06215816 51.089766 407.30279211 77.52603036 407.1499939 105.61190796 C407.15346183 106.9753513 407.15823392 108.33879183 407.16417563 109.70222664 C407.17655971 113.40197498 407.17057363 117.10148759 407.16121697 120.80123615 C407.15437445 124.80949211 407.16493326 128.81771007 407.17315674 132.82595825 C407.18644124 140.65961707 407.18364002 148.49318927 407.17491882 156.32685137 C407.16812176 162.69793943 407.16723426 169.06900334 407.17049026 175.44009399 C407.17094996 176.34960001 407.17140966 177.25910603 407.17188329 178.19617283 C407.17284255 180.04427386 407.17381519 181.89237488 407.17480107 183.74047589 C407.18333948 201.03792449 407.17354519 218.33532526 407.15739997 235.63276601 C407.1439982 250.44924221 407.14632673 265.26564787 407.16015625 280.0821228 C407.17623949 297.32102811 407.18251565 314.55989157 407.17331946 331.79880333 C407.17236389 333.63980483 407.17142078 335.48080634 407.17049026 337.32180786 C407.17002744 338.22742875 407.16956461 339.13304964 407.16908776 340.06611359 C407.16650609 346.42369417 407.17085104 352.78124803 407.17792892 359.13882446 C407.18637468 366.89496985 407.18399949 374.65102425 407.16808669 382.40715933 C407.16024514 386.35844265 407.15704137 390.3095747 407.16703415 394.26085663 C407.17606785 397.88797704 407.170908 401.514808 407.15510149 405.14190269 C407.15023862 407.05378058 407.15987194 408.96567908 407.17027318 410.87753487 C406.98432674 438.68986513 394.92430066 462.76438975 376.26513672 482.94345093 C356.0602279 502.67406612 329.62396354 512.91470007 301.53808594 512.76190186 C300.17464259 512.76536978 298.81120207 512.77014188 297.44776726 512.77608359 C293.74801892 512.78846767 290.04850631 512.78248158 286.34875774 512.77312493 C282.34050178 512.76628241 278.33228382 512.77684121 274.32403564 512.7850647 C266.49037683 512.79834919 258.65680463 512.79554798 250.82314253 512.78682677 C244.45205447 512.78002972 238.08099055 512.77914221 231.7098999 512.78239822 C230.34564088 512.78308777 230.34564088 512.78308777 228.95382106 512.78379125 C227.10572004 512.7847505 225.25761902 512.78572315 223.409518 512.78670903 C206.11206941 512.79524744 188.81466864 512.78545315 171.51722789 512.76930793 C156.70075169 512.75590616 141.88434602 512.75823469 127.06787109 512.77206421 C109.82896579 512.78814745 92.59010233 512.79442361 75.35119057 512.78522742 C73.51018906 512.78427185 71.66918755 512.78332874 69.82818604 512.78239822 C68.92256514 512.7819354 68.01694425 512.78147257 67.08388031 512.78099572 C60.72629973 512.77841405 54.36874587 512.782759 48.01116943 512.78983688 C40.25502404 512.79828264 32.49896964 512.79590745 24.74283457 512.77999465 C20.79155125 512.7721531 16.8404192 512.76894933 12.88913727 512.77894211 C9.26201686 512.78797581 5.63518589 512.78281596 2.00809121 512.76700945 C0.09621331 512.76214657 -1.81568518 512.7717799 -3.72754097 512.78218114 C-31.53987123 512.5962347 -55.61439585 500.53620862 -75.79345703 481.87704468 C-95.52407222 461.67213585 -105.76470617 435.2358715 -105.61190796 407.1499939 C-105.61537589 405.78655055 -105.62014798 404.42311002 -105.62608969 403.05967522 C-105.63847378 399.35992687 -105.63248769 395.66041427 -105.62313104 391.9606657 C-105.61628851 387.95240974 -105.62684732 383.94419178 -105.6350708 379.9359436 C-105.6483553 372.10228479 -105.64555409 364.26871259 -105.63683288 356.43505049 C-105.63003583 350.06396243 -105.62914832 343.69289851 -105.63240433 337.32180786 C-105.63286403 336.41230184 -105.63332373 335.50279583 -105.63379735 334.56572902 C-105.63475661 332.717628 -105.63572925 330.86952698 -105.63671513 329.02142596 C-105.64525354 311.72397736 -105.63545925 294.4265766 -105.61931403 277.12913585 C-105.60591226 262.31265965 -105.60824079 247.49625398 -105.62207031 232.67977905 C-105.63815355 215.44087375 -105.64442972 198.20201028 -105.63523352 180.96309853 C-105.63427795 179.12209702 -105.63333484 177.28109551 -105.63240433 175.44009399 C-105.6319415 174.5344731 -105.63147867 173.62885221 -105.63100182 172.69578826 C-105.62842016 166.33820769 -105.6327651 159.98065383 -105.63984299 153.62307739 C-105.64828874 145.866932 -105.64591355 138.1108776 -105.63000076 130.35474253 C-105.6221592 126.40345921 -105.61895543 122.45232716 -105.62894821 118.50104523 C-105.63798192 114.87392481 -105.63282207 111.24709385 -105.61701556 107.61999917 C-105.61215268 105.70812127 -105.621786 103.79622278 -105.63218725 101.88436699 C-105.4462408 74.07203673 -93.38621472 49.99751211 -74.72705078 29.81845093 C-54.52214196 10.08783574 -28.0858776 -0.15279822 0 0 Z M109.76904297 80.38095093 C108.58109131 80.66978149 108.58109131 80.66978149 107.36914062 80.96444702 C76.87907032 88.41121588 46.31413305 104.17854622 24.76904297 127.38095093 C19.76904297 132.38095093 19.76904297 132.38095093 18.19580078 133.90145874 C14.09758712 137.90215117 10.44283178 142.04226529 7.01904297 146.63095093 C6.51026611 147.31278442 6.00148926 147.99461792 5.47729492 148.69711304 C-10.98366464 171.25491277 -21.97840269 196.98931534 -27.23095703 224.38095093 C-27.40900879 225.29030396 -27.58706055 226.19965698 -27.77050781 227.13656616 C-29.45461164 236.7031488 -29.62854267 246.13554703 -29.60595703 255.81845093 C-29.60574554 256.6562207 -29.60553406 257.49399048 -29.60531616 258.35714722 C-29.57165315 271.74002837 -28.59099154 284.37884168 -25.23095703 297.38095093 C-24.94212646 298.56890259 -24.94212646 298.56890259 -24.64746094 299.78085327 C-17.20069208 330.27092358 -1.43336174 360.83586084 21.76904297 382.38095093 C26.76904297 387.38095093 26.76904297 387.38095093 28.28955078 388.95419312 C32.29024321 393.05240677 36.43035733 396.70716212 41.01904297 400.13095093 C42.04179321 400.89411621 42.04179321 400.89411621 43.08520508 401.67269897 C65.64300481 418.13365853 91.37740738 429.12839659 118.76904297 434.38095093 C119.678396 434.55900269 120.58774902 434.73705444 121.5246582 434.92050171 C131.09124084 436.60460554 140.52363907 436.77853656 150.20654297 436.75595093 C151.46319763 436.7556337 151.46319763 436.7556337 152.74523926 436.75531006 C166.12812041 436.72164705 178.76693373 435.74098544 191.76904297 432.38095093 C192.95699463 432.09212036 192.95699463 432.09212036 194.16894531 431.79745483 C224.65901562 424.35068598 255.22395289 408.58335563 276.76904297 385.38095093 C281.76904297 380.38095093 281.76904297 380.38095093 283.34228516 378.86044312 C287.44049882 374.85975069 291.09525416 370.71963656 294.51904297 366.13095093 C295.02781982 365.44911743 295.53659668 364.76728394 296.06079102 364.06478882 C312.52175058 341.50698908 323.51648863 315.77258652 328.76904297 288.38095093 C328.94709473 287.4715979 329.12514648 286.56224487 329.30859375 285.62533569 C330.99269758 276.05875306 331.1666286 266.62635482 331.14404297 256.94345093 C331.14372574 255.68679626 331.14372574 255.68679626 331.1434021 254.40475464 C331.10973909 241.02187348 330.12907748 228.38306017 326.76904297 215.38095093 C326.4802124 214.19299927 326.4802124 214.19299927 326.18554688 212.98104858 C318.73877802 182.49097828 302.97144767 151.92604101 279.76904297 130.38095093 C274.76904297 125.38095093 274.76904297 125.38095093 273.24853516 123.80770874 C269.24784273 119.70949508 265.10772861 116.05473974 260.51904297 112.63095093 C259.49629272 111.86778564 259.49629272 111.86778564 258.45288086 111.08920288 C235.89508112 94.62824332 210.16067856 83.63350527 182.76904297 78.38095093 C181.85968994 78.20289917 180.95033691 78.02484741 180.01342773 77.84140015 C170.4468451 76.15729632 161.01444686 75.98336529 151.33154297 76.00595093 C150.07488831 76.00626816 150.07488831 76.00626816 148.79284668 76.0065918 C135.40996553 76.04025481 122.77115221 77.02091642 109.76904297 80.38095093 Z " fill="#000000" transform="translate(105.23095703125,-0.380950927734375)"/>
<path d="M0 0 C3.91834435 0.62856122 7.14548449 1.83239118 10.73828125 3.50390625 C11.80498047 3.99697266 12.87167969 4.49003906 13.97070312 4.99804688 C15.07349609 5.51431641 16.17628906 6.03058594 17.3125 6.5625 C18.99569336 7.34270508 18.99569336 7.34270508 20.71289062 8.13867188 C23.47752951 9.42099374 26.23975766 10.70824847 29 12 C26.75309347 19.38708995 23.67071776 26.08830386 20.25 33 C19.06719745 35.42173075 17.88655994 37.84432468 16.7109375 40.26953125 C16.40564117 40.89930374 16.10034485 41.52907623 15.78579712 42.17793274 C12.35401437 49.28974218 9.11545371 56.48707126 5.875 63.6875 C-0.82341452 78.56091548 -7.79054352 93.29993083 -14.83056641 108.0144043 C-15.22633377 108.84274277 -15.62210114 109.67108124 -16.02986145 110.52452087 C-16.77157509 112.07624399 -17.5147171 113.62728551 -18.25956726 115.17750549 C-18.59196915 115.87270798 -18.92437103 116.56791046 -19.2668457 117.28417969 C-19.55469437 117.88413757 -19.84254303 118.48409546 -20.13911438 119.10223389 C-20.56525276 120.04162811 -20.56525276 120.04162811 -21 121 C-21.35917007 121.72710678 -21.71834015 122.45421356 -22.08839417 123.20335388 C-23.3109891 126.95405978 -23.30812255 130.55881805 -23.31884766 134.4621582 C-23.32889328 135.3016954 -23.3389389 136.1412326 -23.34928894 137.00621033 C-23.38008949 139.77106057 -23.39714737 142.53581412 -23.4140625 145.30078125 C-23.43277666 147.22178477 -23.45235026 149.1427801 -23.4727478 151.06376648 C-23.52404874 156.11234705 -23.56368543 161.16095426 -23.60089111 166.20965576 C-23.64094349 171.36444682 -23.69203022 176.51912724 -23.7421875 181.67382812 C-23.83892276 191.78248204 -23.92231516 201.89118171 -24 212 C-33.9 212 -43.8 212 -54 212 C-54.41267506 200.13964835 -54.74018868 188.28433479 -54.93261909 176.41832542 C-55.0251496 170.90353675 -55.14974337 165.39405568 -55.35791016 159.88232422 C-56.45820443 129.94858716 -53.36873215 107.98539439 -38.21429443 81.92120361 C-34.79486513 75.98448946 -32.0492072 69.74703204 -29.25 63.5 C-28.22130424 61.26965348 -27.19038266 59.04033083 -26.15625 56.8125 C-25.64578125 55.7090625 -25.1353125 54.605625 -24.609375 53.46875 C-22.8823904 49.74651135 -21.14597164 46.02879701 -19.40625 42.3125 C-12.82749408 28.25686075 -6.30623568 14.18068871 0 0 Z " fill="#000000" transform="translate(295,134)"/>
</svg>
